<svg height="512pt" viewBox="0 -4 512 511" width="512pt" xmlns="http://www.w3.org/2000/svg"><path d="m358.398438 230.898438s0-34.132813-34.132813-34.132813c0 14.140625-11.460937 25.601563-25.597656 25.601563-9.558594 0-17.894531-5.238282-22.289063-13.003907-4.257812-7.511719-11.75-12.597656-20.378906-12.597656s-16.121094 5.085937-20.378906 12.597656c-4.394532 7.765625-12.730469 13.003907-22.289063 13.003907-14.136719 0-25.597656-11.460938-25.597656-25.601563-34.132813 0-34.132813 34.132813-34.132813 34.132813s-8.535156 264.535156-119.46875 264.535156h443.734376c-110.933594 0-119.46875-264.535156-119.46875-264.535156zm0 0" fill="#84615d"/><path d="m162.132812 68.765625c-4.148437 0-8.226562.769531-12.046874 2.238281-.105469-.207031-.230469-.386718-.34375-.589844-1.152344-2.246093-2.535157-4.328124-4.128907-6.253906-.351562-.429687-.683593-.863281-1.050781-1.273437-.765625-.84375-1.578125-1.621094-2.429688-2.378907-.609374-.546874-1.246093-1.058593-1.894531-1.5625-.796875-.613281-1.570312-1.246093-2.417969-1.792968-1.441406-.929688-2.949218-1.75-4.53125-2.457032-.636718-.28125-1.304687-.496093-1.953124-.742187-1.269532-.476563-2.566407-.886719-3.90625-1.210937-.632813-.15625-1.253907-.308594-1.90625-.429688-1.96875-.363281-3.984376-.613281-6.058594-.613281 0-23.527344-19.136719-42.664063-42.664063-42.664063-10.914062 0-21.128906 4.101563-28.964843 11.457032-2.121094-.9375-4.351563-1.6875-6.679688-2.175782h-.007812c-2.261719-.484375-4.609376-.75-7.015626-.75-18.824218 0-34.132812 15.308594-34.132812 34.132813 0 10.242187 4.625 19.335937 11.792969 25.601562-7.167969 6.261719-11.792969 15.359375-11.792969 25.597657 0 16.199218 11.367188 29.730468 26.523438 33.214843 3.480468 15.152344 17.011718 26.519531 33.210937 26.519531 10.179687 0 19.34375-4.480468 25.597656-11.578124 6.257813 7.097656 15.421875 11.578124 25.601563 11.578124 18.824218 0 34.132812-15.308593 34.132812-34.132812 0-4.710938-3.824218-8.535156-8.53125-8.535156-4.710937 0-8.535156 3.824218-8.535156 8.535156 0 9.414062-7.65625 17.066406-17.066406 17.066406-9.414063 0-17.066406-7.652344-17.066406-17.066406 0-4.710938-3.824219-8.535156-8.535157-8.535156-4.710937 0-8.53125 3.824218-8.53125 8.535156 0 9.414062-7.65625 17.066406-17.066406 17.066406-9.414063 0-17.066406-7.652344-17.066406-17.066406s7.652343-17.066406 17.066406-17.066406c4.710937 0 8.53125-3.824219 8.53125-8.535156 0-4.707032-3.820313-8.53125-8.53125-8.53125-15.320313 0-28.160156 10.214843-32.46875 24.132812-5.992187-2.644531-10.199219-8.636719-10.199219-15.601562 0-9.410157 7.65625-17.066407 17.066406-17.066407 4.710938 0 8.535157-3.820312 8.535157-8.53125 0-4.710937-3.824219-8.535156-8.535157-8.535156-9.410156 0-17.066406-7.652344-17.066406-17.066406 0-9.410157 7.65625-17.066407 17.066406-17.066407 1.722657 0 3.414063.316407 5.050782.855469.15625.042969.324218.09375.480468.144531 1.65625.597657 3.242188 1.425782 4.710938 2.535157.03125.023437.066406.023437.09375.050781 4.070312 3.121094 6.730469 7.96875 6.730469 13.480469 0 4.710937 3.824219 8.535156 8.535156 8.535156s8.53125-3.824219 8.53125-8.535156c0-7.609375-2.59375-14.574219-6.816406-20.257813 4.394531-3.386718 9.691406-5.339844 15.351562-5.339844 14.113281 0 25.597657 11.484376 25.597657 25.597657 0 1.621093-.28125 3.335937-.691407 5.121093-9.777343 6.015626-16.375 16.714844-16.375 29.011719 0 4.710938 3.824219 8.535157 8.535157 8.535157 4.710937 0 8.53125-3.824219 8.53125-8.535157 0-6.910156 4.148437-12.839843 10.070312-15.53125.019531-.007812.035156-.007812.050781-.015625 2.246094-1.007812 4.59375-1.519531 6.945313-1.519531 1.136718 0 2.238281.121094 3.304687.332031.828125.171875 1.621094.4375 2.398438.71875.203125.078125.425781.109375.628906.195313 5.847656 2.390625 10.121094 7.980469 10.582031 14.652343.007813.109376.0625.214844.070313.324219.015625.289063.085937.554688.085937.84375 0 4.710938 3.820313 8.535157 8.53125 8.535157 3.746094 0 6.835938-2.457032 7.988282-5.8125 2.730468-1.765626 5.863281-2.722657 9.078124-2.722657 4.710938 0 8.535157-3.820312 8.535157-8.53125 0-4.710937-3.824219-8.535156-8.535157-8.535156zm0 0" fill="#839594"/><path d="m500.207031 77.300781c7.167969-6.265625 11.792969-15.359375 11.792969-25.601562 0-18.824219-15.308594-34.132813-34.132812-34.132813-2.40625 0-4.753907.265625-7.023438.742188 0 0 0 0-.007812 0-2.320313.488281-4.558594 1.238281-6.683594 2.175781-7.824219-7.347656-18.039063-11.449219-28.953125-11.449219-23.527344 0-42.664063 19.136719-42.664063 42.664063-2.074218 0-4.089844.25-6.058594.613281-.652343.121094-1.273437.273438-1.90625.429688-1.339843.324218-2.636718.734374-3.90625 1.210937-.65625.246094-1.324218.453125-1.953124.742187-1.582032.707032-3.089844 1.527344-4.53125 2.457032-.855469.546875-1.621094 1.179687-2.417969 1.792968-.648438.503907-1.277344 1.015626-1.894531 1.5625-.851563.757813-1.652344 1.542969-2.429688 2.378907-.367188.410156-.699219.84375-1.050781 1.273437-1.605469 1.925782-2.984375 4-4.128907 6.253906-.101562.203126-.238281.382813-.34375.589844-3.820312-1.46875-7.898437-2.238281-12.046874-2.238281-4.710938 0-8.535157 3.824219-8.535157 8.535156 0 4.710938 3.824219 8.53125 8.535157 8.53125 3.214843 0 6.347656.957031 9.078124 2.722657 1.152344 3.355468 4.242188 5.8125 7.988282 5.8125 4.710937 0 8.53125-3.824219 8.53125-8.535157 0-.289062.070312-.554687.085937-.835937.007813-.109375.0625-.210938.070313-.324219.460937-6.671875 4.734375-12.261719 10.582031-14.652344.203125-.074219.425781-.117187.628906-.195312.777344-.28125 1.570313-.554688 2.398438-.714844 1.066406-.222656 2.167969-.34375 3.304687-.34375 2.351563 0 4.699219.511719 6.953125 1.527344.007813.007812.023438.007812.035157.007812 5.929687 2.679688 10.078124 8.621094 10.078124 15.53125 0 4.710938 3.820313 8.535157 8.53125 8.535157 4.710938 0 8.535157-3.824219 8.535157-8.535157 0-12.296875-6.597657-22.996093-16.375-29.011719-.410157-1.785156-.691407-3.5-.691407-5.121093 0-14.113281 11.484376-25.597657 25.597657-25.597657 5.660156 0 10.957031 1.953126 15.351562 5.339844-4.222656 5.683594-6.816406 12.648438-6.816406 20.257813 0 4.710937 3.820313 8.535156 8.53125 8.535156s8.535156-3.824219 8.535156-8.535156c0-5.511719 2.660157-10.359375 6.730469-13.480469.027344-.027344.070312-.027344.09375-.050781 1.46875-1.109375 3.054688-1.9375 4.710938-2.535157.15625-.050781.324218-.101562.480468-.144531 1.636719-.539062 3.328125-.855469 5.050782-.855469 9.410156 0 17.066406 7.65625 17.066406 17.066407 0 9.414062-7.65625 17.066406-17.066406 17.066406-4.710938 0-8.535157 3.824219-8.535157 8.535156 0 4.710938 3.824219 8.53125 8.535157 8.53125 9.410156 0 17.066406 7.65625 17.066406 17.066407 0 6.964843-4.207032 12.957031-10.199219 15.601562-4.308594-13.917969-17.148437-24.132812-32.46875-24.132812-4.710937 0-8.53125 3.824218-8.53125 8.53125 0 4.710937 3.820313 8.535156 8.53125 8.535156 9.414063 0 17.066406 7.652344 17.066406 17.066406s-7.652343 17.066406-17.066406 17.066406c-9.410156 0-17.066406-7.652344-17.066406-17.066406 0-4.710938-3.820313-8.535156-8.53125-8.535156-4.710938 0-8.535157 3.824218-8.535157 8.535156 0 9.414062-7.652343 17.066406-17.066406 17.066406-9.410156 0-17.066406-7.652344-17.066406-17.066406 0-4.710938-3.824219-8.535156-8.535156-8.535156-4.707032 0-8.53125 3.824218-8.53125 8.535156 0 18.824219 15.308594 34.132812 34.132812 34.132812 10.179688 0 19.34375-4.480468 25.601563-11.578124 6.253906 7.097656 15.417969 11.578124 25.597656 11.578124 16.199219 0 29.730469-11.367187 33.210937-26.519531 15.15625-3.484375 26.523438-17.015625 26.523438-33.214843 0-10.238282-4.625-19.335938-11.792969-25.597657zm0 0" fill="#afb6bb"/><path d="m273.066406 162.632812c-4.710937 0-8.53125-3.824218-8.53125-8.53125 0-8.730468 1.191406-85.335937 42.664063-85.335937 4.710937 0 8.535156 3.824219 8.535156 8.535156 0 4.710938-3.824219 8.53125-8.535156 8.53125-19.292969 0-25.582031 45.996094-25.597657 68.269531 0 4.707032-3.824218 8.53125-8.535156 8.53125zm0 0" fill="#dc691d"/><path d="m221.867188 162.632812c-4.710938 0-8.535157-3.824218-8.535157-8.53125v-51.203124c0-4.707032 3.824219-8.53125 8.535157-8.53125 4.710937 0 8.53125 3.824218 8.53125 8.53125v51.203124c0 4.707032-3.820313 8.53125-8.53125 8.53125zm0 0" fill="#dd352e"/><path d="m221.867188 77.300781c-4.710938 0-8.535157-3.824219-8.535157-8.535156v-17.066406c0-4.710938 3.824219-8.53125 8.535157-8.53125 4.710937 0 8.53125 3.820312 8.53125 8.53125v17.066406c0 4.710937-3.820313 8.535156-8.53125 8.535156zm0 0" fill="#ebba16"/><path d="m179.199219 145.566406c-4.710938 0-8.53125-3.824218-8.53125-8.53125v-17.070312c0-4.707032 3.820312-8.53125 8.53125-8.53125 4.710937 0 8.535156 3.824218 8.535156 8.53125v17.070312c0 4.707032-3.824219 8.53125-8.535156 8.53125zm0 0" fill="#ed8a19"/><path d="m281.601562 43.167969c-4.710937 0-8.535156-3.824219-8.535156-8.535157 0-18.824218 15.308594-34.132812 34.132813-34.132812 4.710937 0 8.535156 3.824219 8.535156 8.535156 0 4.707032-3.824219 8.53125-8.535156 8.53125-9.410157 0-17.066407 7.65625-17.066407 17.066406 0 4.710938-3.824218 8.535157-8.53125 8.535157zm0 0" fill="#b02721"/><path d="m179.199219 43.167969c-4.710938 0-8.53125-3.824219-8.53125-8.535157 0-9.410156-7.65625-17.066406-17.066407-17.066406-4.710937 0-8.535156-3.824218-8.535156-8.53125 0-4.710937 3.824219-8.535156 8.535156-8.535156 18.824219 0 34.132813 15.308594 34.132813 34.132812 0 4.710938-3.824219 8.535157-8.535156 8.535157zm0 0" fill="#dd352e"/><path d="m162.132812 503.964844c-.988281 0-2.003906-.175782-2.996093-.542969-4.410157-1.65625-6.644531-6.582031-4.992188-10.992187l25.601563-68.265626c1.65625-4.414062 6.554687-6.648437 10.984375-4.992187 4.410156 1.65625 6.644531 6.578125 4.988281 10.988281l-25.597656 68.269532c-1.28125 3.421874-4.53125 5.535156-7.988282 5.535156zm0 0"/><path d="m367.222656 316.214844c-40.429687-29.039063-68.554687-25.582032-68.554687-25.582032-21.25 5.316407-35.890625 37.085938-43.914063 60.3125-7.03125 20.363282-35.609375 22.605469-44.84375 3.152344-1.585937-3.347656-2.746094-6.835937-3.582031-10.285156-3.953125-16.203125-22.347656-23.882812-36.78125-15.511719-11.398437 6.613281-22.40625 14.921875-31.1875 22.183594-15.171875 70.078125-45.210937 144.949219-104.226563 144.949219h443.734376c-68.855469 0-98.253907-101.90625-110.644532-179.21875zm0 0" fill="#6b4842"/><path d="m366.941406 452.765625c-2.753906 0-5.460937-1.332031-7.109375-3.796875l-17.066406-25.597656c-2.609375-3.917969-1.550781-9.226563 2.363281-11.835938 3.925782-2.628906 9.226563-1.5625 11.835938 2.363282l17.066406 25.597656c2.613281 3.917968 1.554688 9.226562-2.363281 11.835937-1.457031.972657-3.105469 1.433594-4.726563 1.433594zm0 0" fill="#472b28"/><path d="m221.867188 461.300781h-42.667969c-4.710938 0-8.53125-3.824219-8.53125-8.535156s3.820312-8.53125 8.53125-8.53125h42.667969c4.710937 0 8.53125 3.820313 8.53125 8.53125s-3.820313 8.535156-8.53125 8.535156zm0 0" fill="#472b28"/><path d="m503.464844 503.964844h-494.929688c-4.710937 0-8.535156-3.820313-8.535156-8.53125 0-4.710938 3.824219-8.535156 8.535156-8.535156h494.929688c4.710937 0 8.535156 3.824218 8.535156 8.535156 0 4.710937-3.824219 8.53125-8.535156 8.53125zm0 0" fill="#61b872"/><path d="m332.800781 452.765625h78.746094c-3.457031-5.347656-6.691406-11.058594-9.722656-17.066406h-69.023438c-4.710937 0-8.535156 3.824219-8.535156 8.535156s3.824219 8.53125 8.535156 8.53125zm0 0" fill="#472b28"/></svg>