<svg height="512pt" viewBox="0 -16 512.0013 512" width="512pt" xmlns="http://www.w3.org/2000/svg"><path d="m0 0v173.558594l234.304688 60.746094-52.066407-234.304688zm0 0" fill="#ebba16"/><path d="m182.238281 0h-13.859375l-168.378906 162.667969v10.890625l10.804688 2.804687 173.402343-167.519531zm0 0" fill="#ed8a19"/><path d="m0 0v12.269531l217.738281 217.742188 16.566407 4.292969-3.503907-15.777344-218.53125-218.527344zm0 0" fill="#ed8a19"/><path d="m298.957031 479.128906c-8.949219 0-18.007812-1.65625-26.808593-5.050781-26.910157-10.386719-44.691407-34.609375-46.410157-63.191406-.109375-1.9375-.109375-3.023438-.109375-3.023438 0-33.625 22.386719-63.285156 41.175782-82.257812 17.085937-17.25 20.0625-44.542969 6.933593-63.496094-8.800781-12.6875-22.070312-19.125-39.433593-19.125-4.789063 0-8.675782-3.886719-8.675782-8.679687 0-4.789063 3.886719-8.675782 8.675782-8.675782 23.074218 0 41.636718 9.199219 53.699218 26.597656 18.101563 26.128907 14.378906 62.125-8.867187 85.589844-16.5 16.660156-36.152344 42.332032-36.152344 70.046875 0 .097657.007813.800781.078125 1.972657 1.300781 21.730468 14.839844 40.144531 35.335938 48.050781 20.695312 7.992187 43.328124 3.390625 59.070312-11.996094 37.59375-36.75 70.03125-55.382813 96.429688-55.382813 1.589843 0 39.300781.53125 76.199218 46.644532 2.996094 3.742187 2.386719 9.207031-1.351562 12.195312-3.730469 2.984375-9.207032 2.382813-12.191406-1.355468-31.320313-39.148438-61.457032-40.109376-62.726563-40.136719-21.015625 0-50.957031 17.914062-84.21875 50.4375-13.964844 13.648437-32.039063 20.835937-50.652344 20.835937zm0 0" fill="#e7eced"/><g fill="#afb6bb"><path d="m277.6875 373.152344c-1.519531 0-3.066406-.398438-4.460938-1.238282l-43.390624-26.035156c-4.113282-2.464844-5.441407-7.792968-2.976563-11.90625 2.464844-4.113281 7.792969-5.441406 11.90625-2.976562l43.390625 26.035156c4.113281 2.460938 5.441406 7.792969 2.976562 11.90625-1.625 2.714844-4.496093 4.214844-7.445312 4.214844zm0 0"/><path d="m234.3125 468.609375c-2.636719 0-5.238281-1.195313-6.949219-3.46875-2.882812-3.835937-2.101562-9.277344 1.734375-12.148437l34.710938-26.035157c3.855468-2.890625 9.277344-2.09375 12.152344 1.734375 2.878906 3.835938 2.097656 9.277344-1.738282 12.148438l-34.710937 26.035156c-1.5625 1.171875-3.394531 1.734375-5.199219 1.734375zm0 0"/><path d="m364.484375 468.609375c-2.640625 0-5.242187-1.195313-6.953125-3.46875l-26.03125-34.710937c-2.882812-3.835938-2.101562-9.277344 1.734375-12.152344 3.84375-2.878906 9.277344-2.089844 12.148437 1.738281l26.035157 34.710937c2.878906 3.835938 2.097656 9.277344-1.738281 12.148438-1.558594 1.171875-3.390626 1.734375-5.195313 1.734375zm0 0"/><path d="m433.898438 425.222656c-4.789063 0-8.679688-3.890625-8.679688-8.679687v-34.710938c0-4.792969 3.890625-8.679687 8.679688-8.679687 4.789062 0 8.679687 3.886718 8.679687 8.679687v34.710938c0 4.789062-3.890625 8.679687-8.679687 8.679687zm0 0"/></g></svg>