<svg height="512pt" viewBox="-26 0 512 512.00883" width="512pt" xmlns="http://www.w3.org/2000/svg"><path d="m43.292969 317.792969c.496093 2.277343.550781 4.617187-.035157 6.753906-2.179687 7.925781-10.035156 11.414063-17.644531 10.019531.078125.015625-3.714843-.0625-3.644531-.25-.671875.144532-1.335938.328125-1.988281.539063-.050781.046875-.15625.125-.511719.308593-.230469.152344-.238281.144532-.34375.203126-.609375.558593-1.199219 1.121093-1.738281 1.742187 1.191406-1.371094-1.34375 2.160156-1.644531 2.691406-3.160157 5.605469-5.03125 13.480469-7.058594 20.789063-1.433594 5.15625-4.785156 8.113281-8.67968775 9.375v105.382812c0 20.242188 16.40234375 36.652344 36.64453175 36.652344h86.941406v-194.207031zm0 0" fill="#1f436d"/><path d="m158.902344 317.792969h141.238281v194.207031h-141.238281zm0 0" fill="#1f436d"/><path d="m449.59375 345.863281c.140625-.21875.203125-.371093.300781-.554687-.769531-.625-1.644531-1.359375-1.8125-1.5 1.652344 1.332031-2.691406-1.773438-3.125-2.066406-7.960937-5.296876-15.445312-10.320313-21.113281-18.175782-1.253906-1.730468-1.84375-3.726562-1.996094-5.765625h-86.394531v194.207031h86.941406c20.242188-.007812 36.644531-16.417968 36.644531-36.652343v-108.773438c-8.546874-2.074219-15.476562-11.140625-9.445312-20.71875zm0 0" fill="#1f436d"/><path d="m70.625 388.414062h-70.62109375v-33.976562c0-20.242188 16.40234375-36.644531 36.64453175-36.644531h33.976562zm0 0" fill="#ed8a19"/><path d="m422.394531 317.792969h-33.976562v70.621093h70.621093v-33.976562c0-20.242188-16.402343-36.644531-36.644531-36.644531zm0 0" fill="#ed8a19"/><path d="m70.625 70.621094h317.792969v441.378906h-317.792969zm0 0" fill="#366db6"/><path d="m105.933594 238.34375h70.621094v35.3125h-70.621094zm0 0" fill="#e7eced"/><path d="m282.488281 238.34375h70.621094v35.3125h-70.621094zm0 0" fill="#e7eced"/><path d="m185.375 414.894531 44.136719-44.136719 44.136719 44.136719-44.136719 44.136719zm0 0" fill="#ebba16"/><path d="m123.589844 0h-52.964844c-24.371094 0-44.136719 19.765625-44.136719 44.136719 0 24.375 19.765625 44.140625 44.136719 44.140625h52.964844zm0 0" fill="#e7eced"/><path d="m158.902344 0h141.238281v88.277344h-141.238281zm0 0" fill="#e7eced"/><path d="m388.417969 0h-52.964844v88.277344h52.964844c24.375 0 44.136719-19.757813 44.136719-44.140625 0-24.371094-19.761719-44.136719-44.136719-44.136719zm0 0" fill="#e7eced"/><g fill="#1f436d"><path d="m300.140625 0h35.3125v238.34375h-35.3125zm0 0"/><path d="m300.140625 273.65625h35.3125v238.34375h-35.3125zm0 0"/><path d="m123.589844 0h35.3125v238.34375h-35.3125zm0 0"/><path d="m123.589844 273.65625h35.3125v238.34375h-35.3125zm0 0"/></g><path d="m211.867188 132.414062h35.308593v35.308594h-35.308593zm0 0" fill="#ebba16"/><path d="m211.867188 238.34375h35.308593v35.3125h-35.308593zm0 0" fill="#dd352e"/></svg>