<svg height="512pt" viewBox="-44 0 511 512" width="512pt" xmlns="http://www.w3.org/2000/svg"><path d="m203.53125 176.550781h17.65625v335.449219h-17.65625zm0 0" fill="#c2cbcc"/><path d="m185.875 0h52.964844v70.621094h-52.964844zm0 0" fill="#c2cbcc"/><path d="m106.425781 61.792969h211.863281v44.136719h-211.863281zm0 0" fill="#1f436d"/><path d="m79.945312 97.101562h264.828126v52.96875h-264.828126zm0 0" fill="#c2cbcc"/><path d="m212.359375 203.035156s82.644531 56.179688 167.722656 74.035156v-118.164062c0-9.753906-7.910156-17.664062-17.664062-17.664062h-300.121094c-9.753906 0-17.664063 7.910156-17.664063 17.664062v118.175781c85.082032-17.867187 167.726563-74.046875 167.726563-74.046875zm0 0" fill="#1f436d"/><path d="m212.359375 176.550781s-98.984375 67.320313-191.824219 78.019531c-13.003906 1.5-21.945312 13.515626-19.683594 26.183594 10.070313 56.503906 40.207032 193.050782 79.09375 231.246094h132.414063zm0 0" fill="#e7eced"/><path d="m212.359375 176.550781s98.984375 67.320313 191.824219 78.019531c13 1.5 21.945312 13.515626 19.683594 26.183594-10.070313 56.503906-40.210938 193.050782-79.09375 231.246094h-132.414063zm0 0" fill="#c2cbcc"/><path d="m177.046875 485.515625h-79.445313c-3.488281 0-6.648437-2.054687-8.070312-5.242187l-35.308594-79.449219c-1.980468-4.457031.023438-9.675781 4.484375-11.652344 4.457031-1.992187 9.671875.027344 11.652344 4.476563l32.980469 74.214843h73.707031c4.875 0 8.828125 3.953125 8.828125 8.828125 0 4.871094-3.953125 8.824219-8.828125 8.824219zm0 0" fill="#c2cbcc"/><path d="m327.117188 485.515625h-79.449219c-4.871094 0-8.828125-3.953125-8.828125-8.824219 0-4.875 3.957031-8.828125 8.828125-8.828125h73.710937l32.980469-74.207031c1.976563-4.449219 7.195313-6.476562 11.652344-4.472656 4.457031 1.976562 6.460937 7.191406 4.484375 11.652344l-35.308594 79.445312c-1.421875 3.179688-4.582031 5.234375-8.070312 5.234375zm0 0" fill="#a7aeaf"/></svg>