<svg height="512pt" viewBox="0 0 512 512.00309" width="512pt" xmlns="http://www.w3.org/2000/svg"><path d="m97.105469 344.277344v114.761718h61.519531v-114.761718zm0 0" fill="#cc9b11"/><path d="m505.558594 270.332031c-6.292969-12.429687-17.59375-21.691406-30.4375-27.101562l-201.738282-85.054688v-19.164062c35.3125-8.5 56.699219-40.183594 52.621094-76.519531-3.917968-34.886719-34.398437-62.152344-69.507812-62.48828175-31.355469-.29296825-58.078125 20.04687475-67.539063 48.17187475-3.53125 10.503907 4.703125 22.449219 15.792969 22.449219h1.863281c7.695313 0 13.761719-5.949219 16.417969-12.757812 5.121094-13.160157 17.945312-22.554688 32.917969-22.554688 21.203125 0 38.109375 18.75 34.921875 40.609375-2.507813 17.195313-18.574219 30.011719-35.945313 30.011719h-3.636719c-7.179687 0-13.207031 3.585937-13.207031 10.761718v41.488282l-201.648437 85.046875c-12.835938 5.410156-23.976563 14.660156-30.277344 27.089843-6.1015625 12.042969-7.964844 26.015626-4.238281 39.511719 6.761719 24.480469 28.628906 41.042969 53.875 43.273438h102.839843c0-19.417969-15.890624-35.308594-35.308593-35.308594h-67.53125c-9.09375 0-16.976563-6.964844-19.632813-15.652344-2.648437-8.695312.636719-18.511719 8.183594-23.578125l211.613281-89.421875 211.484375 89.5625c7.546875 5.078125 10.839844 14.742188 8.183594 23.445313-2.660156 8.679687-10.550781 15.644531-19.644531 15.644531h-76.667969c19.484375 0 35.3125 15.792969 35.3125 35.265625l-.042969.042969h41.398438c25.238281-2.230469 47.070312-18.785157 53.832031-43.253907 3.734375-13.496093 1.84375-27.472656-4.253906-39.519531zm0 0" fill="#e7eced"/><path d="m97.105469 317.796875c19.421875 0 35.308593 15.890625 35.308593 35.308594v158.898437h317.792969v-158.941406c0-19.472656-15.789062-35.265625-35.265625-35.265625zm0 0" fill="#ebba16"/><path d="m132.140625 397.246094h317.792969v35.308594h-317.792969zm0 0" fill="#ed8a19"/></svg>