<svg height="512pt" viewBox="-13 0 512 512.00378" width="512pt" xmlns="http://www.w3.org/2000/svg"><g fill="#afb6bb"><path d="m321.144531 381.828125h-156.207031c-4.792969 0-8.679688-3.886719-8.679688-8.675781 0-4.792969 3.886719-8.679688 8.679688-8.679688h156.207031c4.792969 0 8.679688 3.886719 8.679688 8.679688 0 4.789062-3.878907 8.675781-8.679688 8.675781zm0 0"/><path d="m95.511719 381.828125h-43.4375c-4.789063 0-8.675781-3.886719-8.675781-8.675781 0-4.792969 3.886718-8.679688 8.675781-8.679688h43.4375c4.789062 0 8.675781 3.886719 8.675781 8.679688 0 4.789062-3.878906 8.675781-8.675781 8.675781zm0 0"/><path d="m451.277344 381.828125h-60.707032c-4.789062 0-8.675781-3.886719-8.675781-8.675781 0-4.792969 3.886719-8.679688 8.675781-8.679688h60.707032c4.789062 0 8.675781 3.886719 8.675781 8.679688 0 4.789062-3.886719 8.675781-8.675781 8.675781zm0 0"/></g><path d="m390.570312 407.863281h-329.816406v104.140625h364.488282v-104.140625zm0 0" fill="#366db6"/><path d="m208.597656 407.863281h-43.390625v17.359375h-69.695312v-17.359375h-34.445313l-.3125 52.070313h147.53125zm0 0" fill="#1f436d"/><path d="m390.839844 407.863281v17.359375h-69.425782v-17.359375h-43.390624l-.3125 52.070313h147.53125l.3125-52.070313zm0 0" fill="#1f436d"/><path d="m243.308594 182.230469c-4.789063 0-8.675782-3.886719-8.675782-8.679688v-60.746093c0-4.792969 3.886719-8.679688 8.675782-8.679688 13.121094 0 25.402344-5.847656 33.691406-16.035156 8.285156-10.199219 11.464844-23.605469 8.710938-36.789063-3.402344-16.324219-16.652344-29.566406-32.96875-32.96875-13.179688-2.742187-26.589844.425781-36.785157 8.714844-10.199219 8.285156-16.039062 20.566406-16.039062 33.6875 0 4.789063-3.886719 8.679687-8.675781 8.679687-4.792969 0-8.679688-3.890624-8.679688-8.679687 0-18.371094 8.183594-35.554687 22.449219-47.15625 14.269531-11.605469 32.953125-16.054687 51.273437-12.246094 22.980469 4.789063 41.628906 23.449219 46.417969 46.417969 3.820313 18.320312-.640625 37.015625-12.242187 51.28125-9.757813 11.984375-23.449219 19.683594-38.480469 21.835938v52.683593c.007812 4.792969-3.878907 8.679688-8.671875 8.679688zm0 0" fill="#afb6bb"/><path d="m447.890625 390.507812h-5.257813c-9.582031 0-17.339843-7.777343-17.339843-17.347656v-.027344c0-9.578124 7.765625-17.335937 17.339843-17.335937h5.257813c.078125 0 1.035156-.773437 2.039063-2.578125 2.996093-5.320312.902343-13.242188-4.476563-16.941406l-195.46875-134.304688c-6.1875-4-10.386719-2.367187-13.9375.042969l-195.417969 134.261719c-5.390625 3.699218-7.472656 11.601562-4.476562 16.929687 1.015625 1.796875 1.960937 2.589844 2.210937 2.589844h5.070313c9.589844 0 17.371094 7.765625 17.371094 17.355469v.007812c0 9.582032-7.765626 17.347656-17.335938 17.347656h-5.277344c-13.269531 0-25.039062-7.386718-32.292968-20.253906-11.890626-21.125-5.265626-48.617187 15.066406-62.589844l195.476562-134.304687c16.507813-11.226563 35.71875-11.316406 52.789063-.269531l195.878906 134.574218c20.332031 13.972657 26.953125 41.464844 15.066406 62.582032-7.238281 12.875-19.007812 20.261718-32.285156 20.261718zm0 0" fill="#e7eced"/><path d="m95.511719 364.472656h69.695312v60.75h-69.695312zm0 0" fill="#e7eced"/><path d="m130.222656 390.507812c-4.789062 0-8.675781-3.886718-8.675781-8.679687v-17.355469c0-4.789062 3.886719-8.675781 8.675781-8.675781 4.792969 0 8.679688 3.886719 8.679688 8.675781v17.355469c0 4.792969-3.878906 8.679687-8.679688 8.679687zm0 0" fill="#7383bf"/><path d="m321.144531 364.472656h69.425781v60.75h-69.425781zm0 0" fill="#e7eced"/><path d="m355.859375 390.507812c-4.792969 0-8.679687-3.886718-8.679687-8.679687v-17.355469c0-4.789062 3.886718-8.675781 8.679687-8.675781 4.789063 0 8.675781 3.886719 8.675781 8.675781v17.355469c0 4.792969-3.878906 8.679687-8.675781 8.679687zm0 0" fill="#7383bf"/><path d="m112.824219 329.761719h34.710937v34.710937h-34.710937zm0 0" fill="#afb6bb"/><path d="m338.457031 329.761719h34.714844v34.710937h-34.714844zm0 0" fill="#afb6bb"/><path d="m251.675781 512.003906v-34.714844c0-4.789062-3.886719-8.675781-8.679687-8.675781-4.789063 0-8.675782 3.886719-8.675782 8.675781v34.714844zm0 0" fill="#1f436d"/><path d="m208.285156 407.863281h69.425782v69.425781h-69.425782zm0 0" fill="#e7eced"/></svg>