<svg height="512pt" viewBox="0 -4 512 512" width="512pt" xmlns="http://www.w3.org/2000/svg"><path d="m512 44.136719h-512v406.070312c0 29.253907 23.710938 52.964844 52.964844 52.964844h406.070312c29.253906 0 52.964844-23.710937 52.964844-52.964844zm0 0" fill="#f7e6a1"/><path d="m441.378906 16.488281v373.089844c0 9.109375 7.378906 16.492187 16.492188 16.492187h9.992187c25.210938 0 42.328125 19.480469 44.136719 44.136719v-406.070312c-1.808594-24.652344-18.925781-44.136719-44.136719-44.136719h-9.992187c-9.113282 0-16.492188 7.378906-16.492188 16.488281zm0 0" fill="#d6c88a"/><path d="m238.34375 167.722656c-2.257812 0-4.519531-.863281-6.238281-2.585937l-61.792969-61.792969c-3.453125-3.449219-3.453125-9.03125 0-12.480469 3.441406-3.453125 9.039062-3.453125 12.480469 0l61.792969 61.792969c3.453124 3.449219 3.453124 9.03125 0 12.480469-1.722657 1.722656-3.980469 2.585937-6.242188 2.585937zm0 0" fill="#dd352e"/><path d="m176.550781 167.722656c-2.257812 0-4.519531-.863281-6.238281-2.585937-3.453125-3.449219-3.453125-9.03125 0-12.480469l61.792969-61.792969c3.441406-3.453125 9.039062-3.453125 12.480469 0 3.453124 3.449219 3.453124 9.03125 0 12.480469l-61.792969 61.792969c-1.722657 1.722656-3.980469 2.585937-6.242188 2.585937zm0 0" fill="#dd352e"/><g fill="#fff"><path d="m141.242188 141.242188h-17.65625c-4.871094 0-8.828126-3.957032-8.828126-8.828126 0-4.875 3.957032-8.828124 8.828126-8.828124h17.65625c4.871093 0 8.828124 3.953124 8.828124 8.828124 0 4.871094-3.957031 8.828126-8.828124 8.828126zm0 0"/><path d="m79.449219 141.242188h-17.65625c-4.871094 0-8.828125-3.957032-8.828125-8.828126 0-4.875 3.957031-8.828124 8.828125-8.828124h17.65625c4.871093 0 8.828125 3.953124 8.828125 8.828124 0 4.871094-3.957032 8.828126-8.828125 8.828126zm0 0"/><path d="m375.613281 464.039062c-1.261719 0-2.542969-.265624-3.75-.839843-5.878906-2.761719-12.183593-4.164063-18.761719-4.164063h-10.53125c-4.871093 0-8.824218-3.957031-8.824218-8.828125 0-4.871093 3.953125-8.828125 8.824218-8.828125h10.53125c9.191407 0 18.027344 1.96875 26.28125 5.84375 4.414063 2.074219 6.304688 7.335938 4.230469 11.75-1.511719 3.1875-4.6875 5.066406-8 5.066406zm-75.28125-5.003906h-33.792969c-4.871093 0-8.828124-3.957031-8.828124-8.828125 0-4.871093 3.957031-8.828125 8.828124-8.828125h33.792969c4.871094 0 8.828125 3.957032 8.828125 8.828125 0 4.871094-3.957031 8.828125-8.828125 8.828125zm-76.03125 0h-33.792969c-4.871093 0-8.828124-3.957031-8.828124-8.828125 0-4.871093 3.957031-8.828125 8.828124-8.828125h33.792969c4.871094 0 8.828125 3.957032 8.828125 8.828125 0 4.871094-3.957031 8.828125-8.828125 8.828125zm-74.683593-8.546875c-1.339844 0-2.707032-.308593-3.988282-.953125-11.078125-5.632812-21.082031-13.734375-28.917968-23.4375-3.066407-3.792968-2.472657-9.347656 1.3125-12.410156 3.789062-3.0625 9.351562-2.472656 12.414062 1.316406 6.285156 7.785156 14.308594 14.28125 23.179688 18.792969 4.34375 2.207031 6.082031 7.519531 3.875 11.871094-1.554688 3.054687-4.652344 4.820312-7.875 4.820312zm-42.847657-59.320312c-4.308593 0-8.078125-3.152344-8.722656-7.539063-.625-4.226562-.945313-8.554687-.945313-12.871094 0-8.253906 1.160157-16.425781 3.425782-24.308593 1.351562-4.6875 6.242187-7.371094 10.929687-6.039063 4.6875 1.351563 7.390625 6.242188 6.039063 10.929688-1.820313 6.292968-2.738282 12.824218-2.738282 19.417968 0 3.453126.257813 6.914063.75 10.300782.714844 4.820312-2.621093 9.316406-7.441406 10.019531-.433594.0625-.863281.089844-1.296875.089844zm23.941407-69.09375c-2.332032 0-4.660157-.917969-6.402344-2.746094-3.363282-3.53125-3.21875-9.117187.308594-12.480469 9.066406-8.625 20.050781-15.34375 31.761718-19.4375 4.59375-1.617187 9.640625.808594 11.25 5.417969 1.605469 4.601563-.8125 9.640625-5.421875 11.246094-9.367187 3.277343-18.148437 8.660156-25.414062 15.574219-1.703125 1.621093-3.894531 2.425781-6.082031 2.425781zm104.113281-21.9375h-33.792969c-4.875 0-8.828125-3.953125-8.828125-8.828125 0-4.871094 3.953125-8.824219 8.828125-8.824219h33.792969c4.871093 0 8.824219 3.953125 8.824219 8.824219 0 4.875-3.953126 8.828125-8.824219 8.828125zm42.230469-.070313c-4.707032 0-8.617188-3.707031-8.820313-8.457031-.203125-4.871094 3.574219-8.984375 8.449219-9.195313 10.097656-.433593 19.78125-2.976562 28.785156-7.566406 4.351562-2.226562 9.667969-.484375 11.875 3.855469 2.207031 4.34375.484375 9.660156-3.859375 11.875-11.28125 5.746094-23.410156 8.933594-36.050781 9.472656-.125.007813-.257813.015625-.378906.015625zm63.390624-36.5c-1.640624 0-3.300781-.460937-4.785156-1.414062-4.097656-2.648438-5.269531-8.113282-2.628906-12.207032 5.507812-8.519531 9.027344-17.894531 10.496094-27.871093.703125-4.820313 5.1875-8.164063 10.007812-7.449219 4.820313.707031 8.15625 5.191406 7.453125 10.011719-1.828125 12.488281-6.25 24.222656-13.128906 34.886719-1.675781 2.621093-4.511719 4.042968-7.414063 4.042968zm6.769532-72.800781c-3.476563 0-6.769532-2.066406-8.171875-5.484375-3.769531-9.199219-9.605469-17.707031-16.878907-24.601562-3.542968-3.355469-3.683593-8.941407-.335937-12.480469 3.355469-3.542969 8.941406-3.683594 12.480469-.335938 9.066406 8.597657 16.359375 19.214844 21.0625 30.710938 1.847656 4.511719-.308594 9.664062-4.820313 11.519531-1.085937.457031-2.222656.671875-3.335937.671875zm0 0"/><path d="m291.1875 143.199219c-.652344 0-1.308594-.070313-1.96875-.21875-5.078125-1.15625-10.3125-1.738281-15.5625-1.738281-4.875 0-8.828125-3.957032-8.828125-8.828126 0-4.875 3.953125-8.828124 8.828125-8.828124 6.574219 0 13.125.734374 19.488281 2.179687 4.75 1.085937 7.726563 5.820313 6.648438 10.566406-.933594 4.097657-4.582031 6.867188-8.605469 6.867188zm0 0"/></g><path d="m317.800781 414.898438c-3.035156 0-5.992187-1.574219-7.632812-4.378907l-23.269531-39.894531-23.269532 39.894531c-2.457031 4.210938-7.867187 5.628907-12.078125 3.175781-4.210937-2.453124-5.632812-7.863281-3.179687-12.074218l30.898437-52.964844c3.160157-5.421875 12.085938-5.421875 15.253907 0l30.898437 52.964844c2.453125 4.210937 1.03125 9.613281-3.179687 12.074218-1.402344.8125-2.929688 1.203126-4.441407 1.203126zm0 0" fill="#7383bf"/><path d="m240.058594 235.714844 9.234375-17.160156c4.800781-8.925782 16.691406-8.925782 21.492187 0l9.234375 17.160156c4.835938 8.996094-1.148437 20.285156-10.742187 20.285156h-18.46875c-9.605469 0-15.589844-11.289062-10.75-20.285156zm0 0" fill="#be6e41"/><path d="m169.4375 368.128906 9.234375-17.160156c4.800781-8.925781 16.691406-8.925781 21.492187 0l9.234376 17.160156c4.839843 8.996094-1.148438 20.285156-10.742188 20.285156h-18.46875c-9.601562 0-15.589844-11.289062-10.75-20.285156zm0 0" fill="#6c4127"/><path d="m114.757812 264.828125c-4.871093 0-8.828124-3.957031-8.828124-8.828125v-26.484375c0-4.871094 3.957031-8.824219 8.828124-8.824219 4.875 0 8.828126 3.953125 8.828126 8.824219v26.484375c0 4.871094-3.953126 8.828125-8.828126 8.828125zm0 0" fill="#be6e41"/><path d="m141.242188 203.035156c0 14.625-11.859376 26.480469-26.484376 26.480469s-26.480468-11.855469-26.480468-26.480469 11.855468-26.484375 26.480468-26.484375 26.484376 11.859375 26.484376 26.484375zm0 0" fill="#61b872"/></svg>