<svg height="512pt" viewBox="0 0 512 512" width="512pt" xmlns="http://www.w3.org/2000/svg"><path d="m169.816406 21.574219-169.816406 84.367187v406.058594l123.585938-61.792969 132.414062 61.792969v-450.207031zm0 0" fill="#ebba16"/><path d="m123.585938 450.207031 8.828124 4.121094v-242.464844c0-4.875-3.953124-8.828125-8.828124-8.828125-4.871094 0-8.828126 3.953125-8.828126 8.828125v242.757813zm0 0" fill="#ed8a19"/><path d="m238.34375 61.792969h35.3125v432.550781h-35.3125zm0 0" fill="#ebba16"/><path d="m388.414062 0-132.414062 61.792969v450.207031l132.414062-61.792969 123.585938 61.792969v-450.207031zm0 0" fill="#ed8a19"/><path d="m211.863281 105.929688c0 58.503906-47.429687 105.933593-105.933593 105.933593-58.503907 0-105.929688-47.429687-105.929688-105.933593 0-58.503907 47.425781-105.929688 105.929688-105.929688 58.503906 0 105.933593 47.425781 105.933593 105.929688zm0 0" fill="#366db6"/><g fill="#fff"><path d="m135.890625 135.890625-82.925781 23.007813 23.003906-82.929688 82.929688-23.003906zm0 0"/><path d="m353.101562 256c-2.257812 0-4.519531-.863281-6.238281-2.585938l-61.792969-61.792968c-3.453124-3.453125-3.453124-9.03125 0-12.484375 3.449219-3.449219 9.03125-3.449219 12.480469 0l61.792969 61.792969c3.453125 3.453124 3.453125 9.03125 0 12.484374-1.71875 1.722657-3.980469 2.585938-6.242188 2.585938zm0 0"/><path d="m291.308594 256c-2.257813 0-4.519532-.863281-6.238282-2.585938-3.453124-3.453124-3.453124-9.03125 0-12.484374l61.792969-61.792969c3.449219-3.449219 9.03125-3.449219 12.480469 0 3.453125 3.453125 3.453125 9.03125 0 12.484375l-61.792969 61.792968c-1.722656 1.722657-3.980469 2.585938-6.242187 2.585938zm0 0"/></g><path d="m97.101562 123.585938c-2.257812 0-4.519531-.863282-6.238281-2.585938-3.453125-3.453125-3.453125-9.03125 0-12.484375l17.652344-17.652344c3.453125-3.453125 9.03125-3.453125 12.484375 0 3.453125 3.449219 3.453125 9.03125 0 12.480469l-17.65625 17.65625c-1.71875 1.722656-3.980469 2.585938-6.242188 2.585938zm0 0" fill="#dd352e"/><path d="m379.585938 4.121094v450.207031l8.828124-4.121094 8.828126 4.414063v-450.207032l-8.828126-4.414062zm0 0" fill="#ebba16"/><path d="m388.414062 388.414062h-23.71875c-4.875 0-8.828124-3.953124-8.828124-8.828124 0-4.871094 3.953124-8.828126 8.828124-8.828126h23.71875c4.191407 0 8.394532-.371093 12.492188-1.113281 4.808594-.917969 9.390625 2.324219 10.257812 7.117188.863282 4.800781-2.324218 9.390625-7.117187 10.257812-5.144531.925781-10.398437 1.394531-15.632813 1.394531zm-71.035156 0h-37.851562c-4.875 0-8.828125-3.953124-8.828125-8.828124 0-4.871094 3.953125-8.828126 8.828125-8.828126h37.851562c4.871094 0 8.828125 3.957032 8.828125 8.828126 0 4.875-3.957031 8.828124-8.828125 8.828124zm-85.167968 0h-37.855469c-4.871094 0-8.824219-3.953124-8.824219-8.828124 0-4.871094 3.953125-8.828126 8.824219-8.828126h37.855469c4.871093 0 8.828124 3.957032 8.828124 8.828126 0 4.875-3.957031 8.828124-8.828124 8.828124zm-85.167969 0h-37.855469c-4.871094 0-8.828125-3.953124-8.828125-8.828124 0-4.871094 3.957031-8.828126 8.828125-8.828126h37.855469c4.871093 0 8.824219 3.957032 8.824219 8.828126 0 4.875-3.953126 8.828124-8.824219 8.828124zm296.816406-22.6875c-2.292969 0-4.589844-.890624-6.3125-2.65625-3.40625-3.488281-3.335937-9.074218.152344-12.484374 8.066406-7.882813 14.195312-17.644532 17.742187-28.230469 1.546875-4.625 6.550782-7.113281 11.167969-5.570313 4.625 1.546875 7.121094 6.550782 5.570313 11.167969-4.421876 13.242187-12.085938 25.433594-22.148438 35.265625-1.722656 1.667969-3.945312 2.507812-6.171875 2.507812zm21-78.335937c-3.847656 0-7.378906-2.535156-8.480469-6.417969-3.054687-10.742187-8.742187-20.769531-16.449218-28.996094-3.324219-3.558593-3.140626-9.148437.40625-12.484374 3.558593-3.320313 9.148437-3.132813 12.484374.40625 9.613282 10.273437 16.71875 22.800781 20.542969 36.238281 1.332031 4.6875-1.386719 9.566406-6.074219 10.902343-.820312.238282-1.632812.351563-2.429687.351563zm0 0" fill="#fff"/><path d="m61.792969 388.414062h-17.65625c-4.871094 0-8.828125-3.953124-8.828125-8.828124 0-4.871094 3.957031-8.828126 8.828125-8.828126h17.65625c4.871093 0 8.828125 3.957032 8.828125 8.828126 0 4.875-3.957032 8.828124-8.828125 8.828124zm0 0" fill="#fff"/></svg>