<svg height="512pt" viewBox="0 -93 512 512" width="512pt" xmlns="http://www.w3.org/2000/svg"><path d="m406.070312 52.976562h-26.484374c-4.871094 0-8.828126-3.957031-8.828126-8.828124 0-4.871094 3.957032-8.828126 8.828126-8.828126h26.484374c4.871094 0 8.828126-3.964843 8.828126-8.828124 0-4.863282-3.957032-8.828126-8.828126-8.828126h-88.277343c-4.871094 0-8.828125-3.953124-8.828125-8.824218 0-4.875 3.957031-8.8281252 8.828125-8.8281252h88.277343c14.597657 0 26.480469 11.8789062 26.480469 26.4804692 0 14.601562-11.882812 26.484374-26.480469 26.484374zm0 0" fill="#e7eced"/><path d="m176.5625 79.457031c-3.242188 0-6.359375-1.78125-7.902344-4.878906l-26.484375-52.964844c-2.179687-4.363281-.414062-9.667969 3.945313-11.847656 4.355468-2.179687 9.660156-.425781 11.847656 3.945313l26.484375 52.964843c2.179687 4.363281.414063 9.667969-3.945313 11.847657-1.273437.636718-2.625.933593-3.945312.933593zm0 0" fill="#e7eced"/><path d="m194.207031 229.527344c0 53.628906-43.476562 97.105468-97.105469 97.105468-53.625 0-97.101562-43.476562-97.101562-97.105468s43.476562-97.101563 97.101562-97.101563c53.628907 0 97.105469 43.472657 97.105469 97.101563zm0 0" fill="#7383bf"/><path d="m512 229.527344c0 53.628906-43.476562 97.105468-97.101562 97.105468-53.628907 0-97.105469-43.476562-97.105469-97.105468s43.476562-97.101563 97.105469-97.101563c53.625 0 97.101562 43.472657 97.101562 97.101563zm0 0" fill="#7383bf"/><g fill="#afb6bb"><path d="m247.171875 238.355469h-158.894531c-3.125 0-6.023438-1.660157-7.609375-4.351563-1.589844-2.703125-1.625-6.03125-.105469-8.765625l88.273438-158.898437c1.554687-2.796875 4.511718-4.535156 7.714843-4.535156h167.726563c3.195312 0 6.132812 1.71875 7.695312 4.507812 1.5625 2.78125 1.5 6.199219-.167968 8.925781l-97.101563 158.898438c-1.597656 2.621093-4.457031 4.21875-7.53125 4.21875zm-143.898437-17.65625h138.945312l86.316406-141.242188h-146.792968zm0 0"/><path d="m247.171875 238.355469h-158.894531c-3.125 0-6.023438-1.660157-7.609375-4.351563-1.589844-2.703125-1.625-6.03125-.105469-8.765625l88.273438-158.898437c1.625-2.929688 4.800781-4.652344 8.113281-4.527344 3.34375.148438 6.3125 2.179688 7.671875 5.234375l70.621094 158.898437c1.207031 2.734376.960937 5.886719-.664063 8.394532-1.632813 2.496094-4.414063 4.015625-7.40625 4.015625zm-143.898437-17.65625h130.3125l-57.917969-130.3125zm0 0"/><path d="m414.898438 238.355469c-3.402344 0-6.632813-1.96875-8.089844-5.277344l-97.101563-220.691406c-1.960937-4.457031.0625-9.675781 4.519531-11.632813 4.46875-1.96875 9.675782.058594 11.636719 4.527344l97.101563 220.6875c1.960937 4.460938-.0625 9.675781-4.519532 11.636719-1.148437.511719-2.355468.75-3.546874.75zm0 0"/></g><path d="m185.378906 26.492188h-61.792968c-4.871094 0-8.828126-3.953126-8.828126-8.828126 0-4.871093 3.957032-8.824218 8.828126-8.824218h61.792968c4.875 0 8.828125 3.953125 8.828125 8.824218 0 4.875-3.953125 8.828126-8.828125 8.828126zm0 0" fill="#be6e41"/><path d="m414.898438 300.148438c-38.941407 0-70.621094-31.683594-70.621094-70.621094 0-4.871094 3.953125-8.828125 8.824218-8.828125 4.875 0 8.828126 3.957031 8.828126 8.828125 0 29.210937 23.765624 52.964844 52.96875 52.964844 29.199218 0 52.964843-23.753907 52.964843-52.964844 0-4.871094 3.953125-8.828125 8.828125-8.828125 4.871094 0 8.824219 3.957031 8.824219 8.828125 0 38.9375-31.679687 70.621094-70.617187 70.621094zm0 0" fill="#556080"/><path d="m36.394531 239.0625c-4.757812 0-8.675781-3.777344-8.816406-8.5625-.820313-27.359375 13.691406-51.917969 37.859375-64.117188 4.34375-2.195312 9.660156-.449218 11.855469 3.910157 2.199219 4.355469.453125 9.660156-3.910157 11.855469-17.980468 9.066406-28.777343 27.394531-28.167968 47.820312.148437 4.875-3.679688 8.941406-8.554688 9.082031-.078125.011719-.175781.011719-.265625.011719zm0 0" fill="#556080"/><path d="m97.050781 300.148438c-23.535156 0-45.089843-11.714844-57.6875-31.339844-2.632812-4.101563-1.441406-9.558594 2.664063-12.199219 4.105468-2.613281 9.5625-1.445313 12.199218 2.667969 9.332032 14.539062 25.34375 23.214844 42.832032 23.214844h.054687c4.871094 0 8.828125 3.945312 8.828125 8.820312-.011718 4.890625-4.027344 9.199219-8.890625 8.835938zm0 0" fill="#556080"/></svg>