<svg height="512pt" viewBox="0 0 512 512" width="512pt" xmlns="http://www.w3.org/2000/svg"><path d="m156.488281 335.695312c-4.460937 12.386719-26.855469 10.390626-27.941406-5.765624-.511719-7.609376-4.28125-14.898438-7.636719-22.050782-1.171875 3.019532-2.417968 6.011719-3.777344 8.96875-5.535156 12.113282-15.652343 22.925782-17.789062 36.210938-1.992188 12.394531-15.410156 12.730468-22.878906 6.003906l-76.464844 152.9375h158.898438l14.335937-140.242188zm0 0" fill="#3d6f44"/><path d="m123.585938 264.828125-49.65625 99.308594 23.171874 15.449219 26.484376-17.65625 17.65625 8.828124 18.582031-27.875zm0 0" fill="#e7eced"/><path d="m67.832031 476.238281c.925781.308594 1.871094.453125 2.789063.453125 3.699218 0 7.140625-2.339844 8.378906-6.039062l8.824219-26.484375c.902343-2.691407.441406-5.648438-1.214844-7.953125-1.660156-2.304688-4.328125-3.664063-7.160156-3.664063h-39.726563l-8.824218 17.65625h36.304687l-4.960937 14.867188c-1.542969 4.625.964843 9.621093 5.589843 11.164062zm0 0" fill="#29512c"/><path d="m444.726562 389.675781c-7.292968 7.132813-24.066406 3.699219-25.417968-10.089843-.332032-3.425782-1.023438-6.804688-1.859375-10.167969.132812 6.574219-3.417969 12.71875-10.328125 14.617187-4.925782 1.351563-10.816406-.40625-14.445313-4.15625l-15.269531 30.542969 19.835938 101.578125h114.757812zm0 0" fill="#3d6f44"/><path d="m390.9375 383.375 15.132812 22.695312 26.480469 8.828126 14.585938-20.835938-32.238281-58.613281zm0 0" fill="#e7eced"/><path d="m309.953125 286.15625c-5.082031 4.898438-13.152344 6.476562-19.402344-.152344-12.492187-13.25-20.894531-29.589844-29.730469-45.671875-10.214843 23.417969-9.667968 50.765625-29.988281 69.949219-7.8125 7.378906-17.917969 3.574219-22.386719-3.382812l-111.34375 205.101562h335.449219zm0 0" fill="#61b872"/><path d="m291.308594 308.964844 24.402344-12.199219-50.882813-93.730469-59.90625 110.34375 15.769531 22.070313 17.652344-17.65625 44.140625 17.65625zm0 0" fill="#e7eced"/><path d="m256.007812 494.34375c-2.851562 0-5.648437-1.375-7.351562-3.925781-2.703125-4.054688-1.609375-9.542969 2.445312-12.246094l26.480469-17.65625c4.054688-2.71875 9.535157-1.605469 12.246094 2.445313 2.699219 4.054687 1.605469 9.542968-2.445313 12.246093l-26.484374 17.65625c-1.507813 1.003907-3.210938 1.480469-4.890626 1.480469zm0 0" fill="#29512c"/><path d="m476.691406 70.621094c-3.375 0-6.570312.6875-9.535156 1.835937-3.238281-16.144531-17.496094-28.320312-34.605469-28.320312-17.105469 0-31.363281 12.175781-34.601562 28.320312-2.96875-1.148437-6.164063-1.835937-9.535157-1.835937-14.628906 0-26.484374 11.855468-26.484374 26.480468 0 14.628907 11.855468 26.484376 26.484374 26.484376h88.277344c14.625 0 26.480469-11.855469 26.480469-26.484376 0-14.625-11.855469-26.480468-26.480469-26.480468zm0 0" fill="#afb6bb"/><path d="m163.875 0c2.296875 5.339844 3.585938 11.210938 3.585938 17.390625 0 24.371094-19.765626 44.136719-44.140626 44.136719-6.179687 0-12.046874-1.289063-17.390624-3.582032 2.640624 26.789063 25.222656 47.722657 52.703124 47.722657 29.253907 0 52.964844-23.710938 52.964844-52.96875 0-27.480469-20.929687-50.070313-47.722656-52.699219zm0 0" fill="#f2ecbf"/><path d="m264.828125 150.070312c-4.875 0-8.828125-3.957031-8.828125-8.828124 0-9.738282-7.917969-17.65625-17.65625-17.65625-4.871094 0-8.828125-3.953126-8.828125-8.828126 0-4.871093 3.957031-8.828124 8.828125-8.828124 9.394531 0 17.949219 3.691406 24.277344 9.695312 9.039062-16.296875 26.429687-27.347656 46.34375-27.347656 4.875 0 8.828125 3.953125 8.828125 8.824218 0 4.875-3.953125 8.828126-8.828125 8.828126-19.472656 0-35.308594 15.839843-35.308594 35.3125 0 4.871093-3.957031 8.828124-8.828125 8.828124zm0 0" fill="#28384c"/><path d="m114.757812 158.898438c-3.371093 0-6.566406.6875-9.53125 1.835937-3.242187-16.148437-17.496093-28.320313-34.605468-28.320313s-31.363282 12.171876-34.605469 28.320313c-2.964844-1.148437-6.160156-1.835937-9.53125-1.835937-14.628906 0-26.484375 11.855468-26.484375 26.480468 0 14.628906 11.855469 26.484375 26.484375 26.484375h88.273437c14.628907 0 26.484376-11.855469 26.484376-26.484375 0-14.625-11.855469-26.480468-26.484376-26.480468zm0 0" fill="#afb6bb"/><g fill="#29512c"><path d="m301.902344 393.710938 26.484375 35.308593c1.128906 1.511719 2.71875 2.613281 4.527343 3.160157l67.265626 20.179687-11.953126-22.015625-47.457031-14.238281-24.742187-32.988281c-2.921875-3.882813-8.449219-4.6875-12.359375-1.765626-3.902344 2.921876-4.6875 8.457032-1.765625 12.359376zm0 0"/><path d="m164.441406 449.582031c1.058594.421875 2.179688.625 3.28125.625 1.582032 0 3.152344-.425781 4.546875-1.261719l44.140625-26.484374c4.183594-2.507813 5.53125-7.925782 3.027344-12.109376-2.507812-4.183593-7.929688-5.535156-12.113281-3.027343l-40.386719 24.230469-21.496094-8.597657-8.480468 15.625zm0 0"/><path d="m264.828125 512v-61.792969c0-4.871093-3.957031-8.828125-8.828125-8.828125s-8.828125 3.957032-8.828125 8.828125v61.792969zm0 0"/></g></svg>