<svg height="512pt" viewBox="0 -31 512 512" width="512pt" xmlns="http://www.w3.org/2000/svg"><path d="m465.859375 374.933594-44.226563-63.691406-82.308593-118.519532c-8.449219 3.101563-19.898438-1.183594-19.871094-12.859375.027344-12.925781-13.894531-22.230469-25.609375-30.855469-5.753906 9.667969-10.285156 20.207032-16.074219 29.8125-6.25 10.363282-18.988281 7.699219-24.390625.203126l-27.683594 40.464843 136.234376 221.890625h150.070312zm0 0" fill="#995f56"/><path d="m262.875 270.195312c-7.023438 6.460938-20.699219 6.027344-24.019531-5.96875-2.207031-7.988281-11.15625-13.753906-17.230469-18.722656-1.148438-.9375-2.269531-1.878906-3.40625-2.816406-4.566406 1.898438-9.933594 1.359375-14.292969-3.574219-7.996093-9.03125-7.757812-17.523437-10.859375-28.398437-.210937-.757813-.582031-1.449219-.835937-2.199219-2.492188 5.023437-5.03125 10.019531-7.832031 14.910156-3.757813 6.585938-7.457032 13.3125-12.003907 19.394531-1.863281 2.488282-4.546875 4.765626-6.734375 7.222657-1.574218 12.507812-21.648437 16.328125-27.535156 2.980469l-45.585938 62.164062-45.460937 61.996094-47.078125 64.195312h388.414062zm0 0" fill="#be7c6d"/><path d="m79.449219 397.242188c-1.527344 0-3.039063-.082032-4.511719-.238282-24.699219-2.613281-37.941406-28.230468-26.816406-48.515625l31.328125-57.179687 31.335937 57.179687c11.125 20.285157-2.125 45.902344-26.816406 48.515625-1.484375.15625-2.992188.238282-4.519531.238282zm0 0" fill="#61b872"/><path d="m79.449219 450.207031c-4.875 0-8.828125-3.953125-8.828125-8.828125v-70.621094c0-4.871093 3.953125-8.828124 8.828125-8.828124 4.871093 0 8.828125 3.957031 8.828125 8.828124v70.621094c0 4.875-3.957032 8.828125-8.828125 8.828125zm0 0" fill="#6b4842"/><path d="m432.550781 397.242188c-1.527343 0-3.035156-.082032-4.511719-.238282-24.699218-2.613281-37.9375-28.230468-26.816406-48.515625l31.328125-57.179687 31.339844 57.179687c11.121094 20.285157-2.128906 45.902344-26.820313 48.515625-1.480468.15625-2.992187.238282-4.519531.238282zm0 0" fill="#61b872"/><path d="m432.550781 450.207031c-4.871093 0-8.828125-3.953125-8.828125-8.828125v-70.621094c0-4.871093 3.957032-8.828124 8.828125-8.828124 4.875 0 8.828125 3.957031 8.828125 8.828124v70.621094c0 4.875-3.953125 8.828125-8.828125 8.828125zm0 0" fill="#6b4842"/><path d="m185.378906 414.898438c-1.527344 0-3.035156-.082032-4.511718-.238282-24.699219-2.613281-37.941407-28.234375-26.816407-48.519531l31.328125-57.175781 31.339844 57.175781c11.121094 20.285156-2.128906 45.90625-26.820312 48.519531-1.484376.15625-2.992188.238282-4.519532.238282zm0 0" fill="#3d6f44"/><path d="m185.378906 450.207031c-4.871094 0-8.828125-3.953125-8.828125-8.828125v-52.964844c0-4.875 3.957031-8.828124 8.828125-8.828124 4.875 0 8.828125 3.953124 8.828125 8.828124v52.964844c0 4.875-3.953125 8.828125-8.828125 8.828125zm0 0" fill="#6b4842"/><path d="m266.082031 274.554688-71.875-98.003907-59.753906 81.488281 24.445313 24.445313 35.308593-17.65625 44.136719 17.65625zm0 0" fill="#e7eced"/><path d="m291.308594 123.585938-38.75 56.636718 21.097656 31.640625 17.652344-26.484375 26.484375 26.484375 24.277343-15.175781zm0 0" fill="#e7eced"/><path d="m485.515625 26.484375c-3.371094 0-6.566406.6875-9.53125 1.835937-3.242187-16.148437-17.496094-28.320312-34.605469-28.320312s-31.363281 12.171875-34.605468 28.320312c-2.964844-1.148437-6.160157-1.835937-9.53125-1.835937-14.628907 0-26.484376 11.855469-26.484376 26.480469 0 14.628906 11.855469 26.484375 26.484376 26.484375h88.273437c14.628906 0 26.484375-11.855469 26.484375-26.484375 0-14.625-11.855469-26.480469-26.484375-26.480469zm0 0" fill="#839594"/><path d="m114.757812 97.101562c-3.371093 0-6.566406.691407-9.53125 1.839844-3.242187-16.148437-17.496093-28.320312-34.605468-28.320312s-31.363282 12.171875-34.605469 28.320312c-2.964844-1.148437-6.160156-1.839844-9.53125-1.839844-14.628906 0-26.484375 11.855469-26.484375 26.484376 0 14.628906 11.855469 26.484374 26.484375 26.484374h88.273437c14.628907 0 26.484376-11.855468 26.484376-26.484374 0-14.628907-11.855469-26.484376-26.484376-26.484376zm0 0" fill="#afb6bb"/><path d="m229.515625 97.101562c-4.871094 0-8.824219-3.953124-8.824219-8.824218 0-9.738282-7.921875-17.65625-17.65625-17.65625-4.875 0-8.828125-3.957032-8.828125-8.828125 0-4.871094 3.953125-8.828125 8.828125-8.828125 9.390625 0 17.9375 3.691406 24.273438 9.695312 9.042968-16.296875 26.429687-27.351562 46.347656-27.351562 4.871094 0 8.828125 3.957031 8.828125 8.828125 0 4.875-3.957031 8.828125-8.828125 8.828125-19.476562 0-35.3125 15.835937-35.3125 35.3125 0 4.871094-3.953125 8.824218-8.828125 8.824218zm0 0" fill="#28384c"/></svg>