<svg height="512pt" viewBox="0 -9 512.00427 512" width="512pt" xmlns="http://www.w3.org/2000/svg"><path d="m315.734375 298.667969h-119.464844l-110.933593 110.933593v85.332032h341.332031v-85.332032zm0 0" fill="#2a4c40"/><path d="m230.402344 179.203125c-4.710938 0-8.535156-3.824219-8.535156-8.535156 0-9.410157-7.652344-17.066407-17.066407-17.066407-4.710937 0-8.53125-3.824218-8.53125-8.53125 0-4.710937 3.820313-8.535156 8.53125-8.535156 9.082031 0 17.339844 3.566406 23.46875 9.371094 8.738281-15.753906 25.546875-26.4375 44.800781-26.4375 4.707032 0 8.53125 3.824219 8.53125 8.535156 0 4.707032-3.824218 8.53125-8.53125 8.53125-18.824218 0-34.136718 15.308594-34.136718 34.132813 0 4.710937-3.820313 8.535156-8.53125 8.535156zm0 0" fill="#28384c"/><path d="m477.867188 110.933594c-3.257813 0-6.347657.667968-9.214844 1.777344-3.132813-15.609376-16.914063-27.375-33.449219-27.375-16.539063 0-30.320313 11.765624-33.453125 27.375-2.867188-1.109376-5.953125-1.777344-9.214844-1.777344-14.140625 0-25.601562 11.460937-25.601562 25.601562s11.460937 25.601563 25.601562 25.601563h85.332032c14.140624 0 25.601562-11.460938 25.601562-25.601563s-11.460938-25.601562-25.601562-25.601562zm0 0" fill="#839594"/><path d="m238.933594 25.601562c-3.257813 0-6.347656.667969-9.214844 1.777344-3.132812-15.609375-16.914062-27.37499975-33.449219-27.37499975-16.539062 0-30.320312 11.76562475-33.453125 27.37499975-2.867187-1.109375-5.953125-1.777344-9.214844-1.777344-14.140624 0-25.597656 11.460938-25.597656 25.601563s11.457032 25.597656 25.597656 25.597656h85.332032c14.140625 0 25.601562-11.457031 25.601562-25.597656s-11.460937-25.601563-25.601562-25.601563zm0 0" fill="#afb6bb"/><path d="m119.46875 179.203125c-3.257812 0-6.347656.664063-9.214844 1.773437-3.132812-15.605468-16.914062-27.375-33.453125-27.375-16.535156 0-30.316406 11.769532-33.449219 27.375-2.867187-1.109374-5.957031-1.773437-9.214843-1.773437-14.140625 0-25.601563 11.460937-25.601563 25.597656 0 14.140625 11.460938 25.601563 25.601563 25.601563h85.332031c14.140625 0 25.601562-11.460938 25.601562-25.601563 0-14.136719-11.460937-25.597656-25.601562-25.597656zm0 0" fill="#e7eced"/><path d="m315.734375 298.667969-110.933594 110.933593v85.332032h221.867188v-85.332032zm0 0" fill="#426d5f"/><path d="m196.269531 298.667969h119.464844l-110.933594 110.933593h-119.464843zm0 0" fill="#2a4c40"/><path d="m85.335938 409.601562h119.464843v85.332032h-119.464843zm0 0" fill="#1c352b"/><path d="m341.335938 375.46875h-51.199219l-42.667969 51.199219v68.265625h136.535156v-68.265625zm0 0" fill="#2a4c40"/><g fill="#afb6bb"><path d="m8.535156 494.933594c-2.183594 0-4.367187-.835938-6.03125-2.5-3.339844-3.335938-3.339844-8.726563 0-12.066406l213.332032-213.332032c3.328124-3.335937 8.738281-3.335937 12.066406 0 3.335937 3.335938 3.335937 8.730469 0 12.066406l-213.332032 213.332032c-1.664062 1.664062-3.851562 2.5-6.035156 2.5zm0 0"/><path d="m196.269531 307.203125c-2.183593 0-4.371093-.835937-6.035156-2.5l-25.597656-25.601563c-3.335938-3.335937-3.335938-8.730468 0-12.066406 3.328125-3.335937 8.738281-3.335937 12.066406 0l25.597656 25.601563c3.335938 3.335937 3.335938 8.730469 0 12.066406-1.664062 1.664063-3.847656 2.5-6.03125 2.5zm0 0"/><path d="m503.46875 494.933594c-2.183594 0-4.367188-.835938-6.03125-2.5l-213.335938-213.332032c-3.335937-3.335937-3.335937-8.730468 0-12.066406 3.328126-3.335937 8.738282-3.335937 12.066407 0l213.332031 213.332032c3.339844 3.339843 3.339844 8.730468 0 12.066406-1.664062 1.664062-3.847656 2.5-6.03125 2.5zm0 0"/><path d="m315.734375 307.203125c-2.183594 0-4.367187-.835937-6.03125-2.5-3.335937-3.335937-3.335937-8.730469 0-12.066406l25.597656-25.601563c3.328125-3.335937 8.738281-3.335937 12.066407 0 3.335937 3.335938 3.335937 8.730469 0 12.066406l-25.597657 25.601563c-1.664062 1.664063-3.847656 2.5-6.035156 2.5zm0 0"/></g><path d="m8.535156 494.933594c-4.710937 0-8.53124975-3.820313-8.53124975-8.53125v-34.132813c0-4.710937 3.82031275-8.535156 8.53124975-8.535156 4.710938 0 8.535156 3.824219 8.535156 8.535156v34.132813c0 4.710937-3.824218 8.53125-8.535156 8.53125zm0 0" fill="#be6e41"/><path d="m503.46875 494.933594c-4.710938 0-8.535156-3.820313-8.535156-8.53125v-34.132813c0-4.710937 3.824218-8.535156 8.535156-8.535156s8.535156 3.824219 8.535156 8.535156v34.132813c0 4.710937-3.824218 8.53125-8.535156 8.53125zm0 0" fill="#be6e41"/></svg>