<svg height="512pt" viewBox="-66 0 512 512" width="512pt" xmlns="http://www.w3.org/2000/svg"><path d="m361.894531 0h-300.066406c-9.773437 0-17.691406 7.917969-17.691406 17.691406v61.765625h247.191406c9.738281.007813 17.636719 7.902344 17.636719 17.644531v370.761719h52.929687c9.773438 0 17.691407-7.917969 17.691407-17.691406v-432.480469c0-9.773437-7.917969-17.691406-17.691407-17.691406zm0 0" fill="#556080"/><path d="m317.8125 512h-300.175781c-9.734375 0-17.636719-7.902344-17.636719-17.636719v-432.585937c0-9.738282 7.902344-17.640625 17.636719-17.640625h300.164062c9.746094 0 17.648438 7.902343 17.648438 17.640625v432.578125c0 9.742187-7.902344 17.644531-17.636719 17.644531zm0 0" fill="#7383bf"/><path d="m284.785156 172.457031c-7.105468 2.453125-16.125.203125-19.074218-9.003906-2.179688-6.808594-6.65625-12.597656-10.179688-18.75-2.875-5.023437-5.074219-9.984375-9.417969-13.984375-9.128906-8.402344-21.371093-13.480469-31.144531-21.257812-4.96875-3.953126-5.753906-8.921876-4.140625-13.292969-13.441406-5.023438-27.921875-7.890625-43.105469-7.890625-24.617187 0-47.5 7.28125-66.761718 19.683594 10.441406 2.773437 16.164062 19.09375 4.121093 26.535156-8.585937 5.304687-14.070312 13.480468-19.921875 21.488281-6.949218 9.515625-14.089844 17.714844-23.480468 24.859375-3.910157 2.972656-9.234376 2.558594-13.542969.351562-2.515625 9.824219-4 20.054688-4 30.667969 0 34.839844 14.46875 66.25 37.660156 88.714844 4.773437-6.476563 14.125-9.425781 21.027344-1.753906 7.925781 8.800781 19.199219 13.054687 28.734375 19.824219 4.464844 3.179687 7.230468 8.070312 7.015625 13.199218 9.367187 2.269532 19.09375 3.601563 29.148437 3.601563 15.765625 0 30.792969-3.0625 44.660156-8.449219.484376-4.359375 3.125-8.367188 6.957032-11.289062 19.976562-15.289063 32.316406-38.4375 49.328125-56.613282 4.484375-4.792968 9.902343-5.277344 14.496093-3.378906 5.179688-13.648438 8.144532-28.390625 8.144532-43.855469 0-13.796875-2.355469-27.023437-6.523438-39.40625zm0 0" fill="#366db6"/><path d="m148.542969 195.097656c-16.464844-.386718-28.761719-17.839844-21.242188-33.207031.488281-1 1.050781-1.96875 1.433594-3.011719 3.246094-9.003906 1.242187-23.304687-1.539063-32.148437-1.613281-5.140625-4.164062-10.101563-8.183593-13.765625-2.074219-1.894532-4.472657-3.386719-7.078125-4.429688-1.6875-.671875-7.398438-2.894531-9.066406-1.871094-27.636719 17.070313-48.011719 44.730469-55.535157 77.3125 5.28125 4.535157 12.273438 6.53125 19.246094 6.214844 14.054687-.65625 43.335937.316406 43.335937 19.675782 0 14.007812-5.75 24.160156-10.929687 30.472656-8.324219 10.144531-14.847656 21.734375-17.761719 34.535156-1.632812 7.183594-2.648437 15.171875-2.09375 23.117188.097656 1.457031 5.09375 4.960937 6.214844 5.96875 2.289062 2.046874 4.644531 4.007812 7.082031 5.878906 5.03125 3.875 10.355469 7.351562 15.914063 10.417968 5.617187 3.078126 11.46875 5.726563 17.496094 7.898438 2.332031.839844 15.863281 6.144531 15.8125 2.824219-.0625-3.890625-.371094-7.785157-.917969-11.640625-.40625-2.851563-.945313-5.75-.46875-8.589844.617187-3.707031 2.886719-6.941406 5.515625-9.613281 19.667968-20.03125 54.300781-39.195313 42.558594-72.882813-.671876-1.921875-1.472657-3.804687-2.382813-5.632812-11.097656-22.3125-26.5-27.265625-37.410156-27.523438zm0 0" fill="#61b872"/><path d="m283.710938 254.613281-10.710938-10.707031c-3.539062-3.441406-9.171875-4.582031-16.964844-4.582031-19.03125 0-25.371094 32.273437-25.371094 32.273437 0 12.90625-12.585937 18.078125-12.585937 18.078125s-31.859375 8.015625-22.890625 22.890625l10.210938 17.019532c36.238281-11.597657 65.210937-39.441407 78.3125-74.972657zm0 0" fill="#61b872"/><path d="m210.671875 95.957031-1.75 1.472657c-4.140625 5.421874-5.171875 10.40625-4.378906 17.65625-18.667969 17.285156-4.660157 37.15625 1.386719 45.726562 7 9.921875 26.414062 28.6875 49.761718 28.6875 9.648438 0 18.871094-3.28125 26.695313-9.503906l3.363281-2.675782.511719-.433593c-11.027344-37.429688-39.273438-67.46875-75.589844-80.929688zm0 0" fill="#61b872"/><g fill="#ebba16"><path d="m203.035156 476.691406h-17.65625c-4.871094 0-8.828125-3.957031-8.828125-8.828125 0-4.875 3.957031-8.828125 8.828125-8.828125h17.65625c4.871094 0 8.828125-3.964844 8.828125-8.828125v-8.828125c0-4.863281-3.957031-8.828125-8.828125-8.828125-14.601562 0-26.484375-11.882812-26.484375-26.480469v-8.828124c0-14.601563 11.882813-26.484376 26.484375-26.484376h17.65625c4.871094 0 8.824219 3.957032 8.824219 8.828126 0 4.875-3.953125 8.828124-8.824219 8.828124h-17.65625c-4.875 0-8.828125 3.964844-8.828125 8.828126v8.828124c0 4.863282 3.953125 8.828126 8.828125 8.828126 14.601563 0 26.480469 11.878906 26.480469 26.480468v8.828125c0 14.601563-11.878906 26.484375-26.480469 26.484375zm0 0"/><path d="m273.65625 476.691406h-17.65625c-4.871094 0-8.828125-3.957031-8.828125-8.828125 0-4.875 3.957031-8.828125 8.828125-8.828125h17.65625c4.871094 0 8.828125-3.964844 8.828125-8.828125v-8.828125c0-4.863281-3.957031-8.828125-8.828125-8.828125-14.601562 0-26.484375-11.882812-26.484375-26.480469v-8.828124c0-14.601563 11.882813-26.484376 26.484375-26.484376h17.652344c4.875 0 8.828125 3.957032 8.828125 8.828126 0 4.875-3.953125 8.828124-8.828125 8.828124h-17.652344c-4.875 0-8.828125 3.964844-8.828125 8.828126v8.828124c0 4.863282 3.953125 8.828126 8.828125 8.828126 14.601562 0 26.480469 11.878906 26.480469 26.480468v8.828125c0 14.601563-11.878907 26.484375-26.480469 26.484375zm0 0"/><path d="m150.070312 476.691406c-4.875 0-8.828124-3.957031-8.828124-8.828125v-77.429687c0-1.109375-.910157-2.019532-2.023438-2.019532h-13.609375c-1.113281 0-2.023437.910157-2.023437 2.019532v77.429687c0 4.871094-3.953126 8.828125-8.828126 8.828125-4.871093 0-8.828124-3.957031-8.828124-8.828125v-77.429687c0-10.847656 8.828124-19.675782 19.679687-19.675782h13.609375c10.851562 0 19.679688 8.828126 19.679688 19.675782v77.429687c0 4.871094-3.957032 8.828125-8.828126 8.828125zm0 0"/><path d="m150.070312 432.550781h-35.3125c-4.871093 0-8.828124-3.953125-8.828124-8.828125 0-4.871094 3.957031-8.824218 8.828124-8.824218h35.3125c4.871094 0 8.828126 3.953124 8.828126 8.824218 0 4.875-3.957032 8.828125-8.828126 8.828125zm0 0"/><path d="m44.136719 476.691406c-4.871094 0-8.828125-3.957031-8.828125-8.828125v-88.277343c0-4.871094 3.957031-8.828126 8.828125-8.828126 4.875 0 8.828125 3.957032 8.828125 8.828126v88.277343c0 4.871094-3.953125 8.828125-8.828125 8.828125zm0 0"/><path d="m52.964844 441.378906h-8.828125c-4.871094 0-8.828125-3.953125-8.828125-8.828125v-52.964843c0-4.871094 3.957031-8.828126 8.828125-8.828126h8.828125c19.472656 0 35.3125 15.835938 35.3125 35.3125 0 19.472657-15.839844 35.308594-35.3125 35.308594zm0-17.65625h.089844zm0-35.308594v35.308594c9.738281 0 17.65625-7.917968 17.65625-17.652344 0-9.738281-7.917969-17.65625-17.65625-17.65625zm0 0"/></g></svg>