<svg height="512pt" viewBox="0 -4 512 511" width="512pt" xmlns="http://www.w3.org/2000/svg"><path d="m119.464844 316.234375h51.203125v51.199219h-51.203125zm0 0" fill="#c2cbcc"/><path d="m341.332031 316.234375h51.203125v51.199219h-51.203125zm0 0" fill="#c2cbcc"/><path d="m93.867188 358.898438h110.933593v136.535156h-110.933593zm0 0" fill="#e7eced"/><path d="m307.199219 358.898438h110.933593v136.535156h-110.933593zm0 0" fill="#e7eced"/><path d="m469.332031 196.765625c-4.710937 0-8.53125-3.820313-8.53125-8.53125v-59.734375c0-4.710938 3.820313-8.535156 8.53125-8.535156 4.710938 0 8.535157 3.824218 8.535157 8.535156v59.734375c0 4.710937-3.824219 8.53125-8.535157 8.53125zm0 0" fill="#ebba16"/><path d="m486.398438 239.433594h-34.132813v-51.199219l17.066406-25.601563 17.066407 25.601563zm0 0" fill="#c2cbcc"/><path d="m42.667969 188.234375c-4.710938 0-8.535157-3.824219-8.535157-8.535156v-51.199219c0-4.710938 3.824219-8.535156 8.535157-8.535156 4.710937 0 8.53125 3.824218 8.53125 8.535156v51.199219c0 4.710937-3.820313 8.535156-8.53125 8.535156zm0 0" fill="#ebba16"/><path d="m59.734375 247.964844h-34.132813v-59.730469l17.066407-25.601563 17.066406 25.601563zm0 0" fill="#c2cbcc"/><path d="m213.332031 307.699219h85.335938v68.265625h-85.335938zm0 0" fill="#e7eced"/><path d="m256 222.367188c-4.710938 0-8.535156-3.824219-8.535156-8.535157v-59.730469c0-4.710937 3.824218-8.535156 8.535156-8.535156s8.535156 3.824219 8.535156 8.535156v59.730469c0 4.710938-3.824218 8.535157-8.535156 8.535157zm0 0" fill="#ebba16"/><path d="m145.066406 282.101562c-4.710937 0-8.53125-3.824218-8.53125-8.535156v-34.132812c0-4.710938 3.820313-8.535156 8.53125-8.535156 4.710938 0 8.535156 3.824218 8.535156 8.535156v34.132812c0 4.710938-3.824218 8.535156-8.535156 8.535156zm0 0" fill="#e7eced"/><path d="m196.265625 358.898438h119.46875v136.535156h-119.46875zm0 0" fill="#c2cbcc"/><path d="m25.601562 222.367188h34.132813v273.066406h-34.132813zm0 0" fill="#e7eced"/><path d="m288.894531 241.753906c-56.941406-73.683594-8.34375-68.992187-65.6875 0-18.464843 22.222656-35.011719 43.734375-22.671875 67.773438 5.367188 10.46875 16.886719 15.238281 30.222656 15.238281h56.679688c13.34375 0 18.773438-4.769531 24.140625-15.238281 12.339844-24.039063-5.027344-44.929688-22.683594-67.773438zm0 0" fill="#c2cbcc"/><path d="m281.601562 495.433594h-51.203124v-76.800782c0-14.140624 11.460937-25.597656 25.601562-25.597656s25.601562 11.457032 25.601562 25.597656zm0 0" fill="#a7aeaf"/><path d="m170.667969 324.765625h-51.203125v-25.597656c0-14.140625 11.460937-25.601563 25.601562-25.601563s25.601563 11.460938 25.601563 25.601563zm0 0" fill="#a7aeaf"/><path d="m76.800781 273.566406h-68.265625c-4.710937 0-8.535156-3.824218-8.535156-8.53125 0-4.710937 3.824219-8.535156 8.535156-8.535156h68.265625c4.710938 0 8.53125 3.824219 8.53125 8.535156 0 4.707032-3.820312 8.53125-8.53125 8.53125zm0 0" fill="#ebba16"/><path d="m76.800781 316.234375h-68.265625c-4.710937 0-8.535156-3.824219-8.535156-8.535156 0-4.710938 3.824219-8.53125 8.535156-8.53125h68.265625c4.710938 0 8.53125 3.820312 8.53125 8.53125 0 4.710937-3.820312 8.535156-8.53125 8.535156zm0 0" fill="#ebba16"/><path d="m452.265625 222.367188h34.132813v273.066406h-34.132813zm0 0" fill="#e7eced"/><g fill="#ebba16"><path d="m503.464844 273.566406h-68.265625c-4.710938 0-8.53125-3.824218-8.53125-8.53125 0-4.710937 3.820312-8.535156 8.53125-8.535156h68.265625c4.710937 0 8.535156 3.824219 8.535156 8.535156 0 4.707032-3.824219 8.53125-8.535156 8.53125zm0 0"/><path d="m503.464844 316.234375h-68.265625c-4.710938 0-8.53125-3.824219-8.53125-8.535156 0-4.710938 3.820312-8.53125 8.53125-8.53125h68.265625c4.710937 0 8.535156 3.820312 8.535156 8.53125 0 4.710937-3.824219 8.535156-8.535156 8.535156zm0 0"/><path d="m128 418.632812c-4.710938 0-8.535156-3.824218-8.535156-8.53125v-17.066406c0-4.710937 3.824218-8.535156 8.535156-8.535156s8.535156 3.824219 8.535156 8.535156v17.066406c0 4.707032-3.824218 8.53125-8.535156 8.53125zm0 0"/><path d="m162.132812 418.632812c-4.710937 0-8.53125-3.824218-8.53125-8.53125v-17.066406c0-4.710937 3.820313-8.535156 8.53125-8.535156 4.710938 0 8.535157 3.824219 8.535157 8.535156v17.066406c0 4.707032-3.824219 8.53125-8.535157 8.53125zm0 0"/><path d="m128 469.832031c-4.710938 0-8.535156-3.820312-8.535156-8.53125v-17.066406c0-4.710937 3.824218-8.535156 8.535156-8.535156s8.535156 3.824219 8.535156 8.535156v17.066406c0 4.710938-3.824218 8.53125-8.535156 8.53125zm0 0"/><path d="m162.132812 469.832031c-4.710937 0-8.53125-3.820312-8.53125-8.53125v-17.066406c0-4.710937 3.820313-8.535156 8.53125-8.535156 4.710938 0 8.535157 3.824219 8.535157 8.535156v17.066406c0 4.710938-3.824219 8.53125-8.535157 8.53125zm0 0"/></g><path d="m366.933594 282.101562c-4.710938 0-8.535156-3.824218-8.535156-8.535156v-34.132812c0-4.710938 3.824218-8.535156 8.535156-8.535156 4.710937 0 8.53125 3.824218 8.53125 8.535156v34.132812c0 4.710938-3.820313 8.535156-8.53125 8.535156zm0 0" fill="#e7eced"/><path d="m392.535156 324.765625h-51.203125v-25.597656c0-14.140625 11.460938-25.601563 25.601563-25.601563s25.601562 11.460938 25.601562 25.601563zm0 0" fill="#a7aeaf"/><path d="m349.867188 418.632812c-4.710938 0-8.535157-3.824218-8.535157-8.53125v-17.066406c0-4.710937 3.824219-8.535156 8.535157-8.535156 4.710937 0 8.53125 3.824219 8.53125 8.535156v17.066406c0 4.707032-3.820313 8.53125-8.53125 8.53125zm0 0" fill="#ebba16"/><path d="m384 418.632812c-4.710938 0-8.535156-3.824218-8.535156-8.53125v-17.066406c0-4.710937 3.824218-8.535156 8.535156-8.535156s8.535156 3.824219 8.535156 8.535156v17.066406c0 4.707032-3.824218 8.53125-8.535156 8.53125zm0 0" fill="#ebba16"/><path d="m349.867188 469.832031c-4.710938 0-8.535157-3.820312-8.535157-8.53125v-17.066406c0-4.710937 3.824219-8.535156 8.535157-8.535156 4.710937 0 8.53125 3.824219 8.53125 8.535156v17.066406c0 4.710938-3.820313 8.53125-8.53125 8.53125zm0 0" fill="#ebba16"/><path d="m384 469.832031c-4.710938 0-8.535156-3.820312-8.535156-8.53125v-17.066406c0-4.710937 3.824218-8.535156 8.535156-8.535156s8.535156 3.824219 8.535156 8.535156v17.066406c0 4.710938-3.824218 8.53125-8.535156 8.53125zm0 0" fill="#ebba16"/><path d="m503.464844 503.964844h-494.929688c-4.710937 0-8.535156-3.820313-8.535156-8.53125 0-4.710938 3.824219-8.535156 8.535156-8.535156h494.929688c4.710937 0 8.535156 3.824218 8.535156 8.535156 0 4.710937-3.824219 8.53125-8.535156 8.53125zm0 0" fill="#c2cbcc"/><path d="m401.066406 77.300781c-3.257812 0-6.347656.664063-9.214844 1.773438-3.132812-15.605469-16.914062-27.375-33.453124-27.375-16.535157 0-30.316407 11.769531-33.449219 27.375-2.867188-1.109375-5.957031-1.773438-9.214844-1.773438-14.140625 0-25.601563 11.460938-25.601563 25.597657 0 14.140624 11.460938 25.601562 25.601563 25.601562h85.332031c14.140625 0 25.601563-11.460938 25.601563-25.601562 0-14.136719-11.460938-25.597657-25.601563-25.597657zm0 0" fill="#839594"/><path d="m119.464844 26.101562c-3.257813 0-6.347656.664063-9.214844 1.773438-3.132812-15.609375-16.914062-27.375-33.449219-27.375-16.539062 0-30.320312 11.765625-33.453125 27.375-2.867187-1.109375-5.953125-1.773438-9.214844-1.773438-14.140624 0-25.597656 11.457032-25.597656 25.597657s11.457032 25.601562 25.597656 25.601562h85.332032c14.140625 0 25.601562-11.460937 25.601562-25.601562s-11.460937-25.597657-25.601562-25.597657zm0 0" fill="#afb6bb"/></svg>