<svg height="512pt" viewBox="0 -137 512 512" width="512pt" xmlns="http://www.w3.org/2000/svg"><path d="m371.226562 52.964844c-3.152343 0-6.1875-1.683594-7.777343-4.632813-.335938-.546875-8.605469-13.726562-39.273438-22.582031-4.6875-1.351562-7.390625-6.25-6.03125-10.929688 1.351563-4.675781 6.25-7.371093 10.929688-6.035156 38.71875 11.183594 48.96875 29.296875 50 31.320313 2.222656 4.339843.511719 9.664062-3.824219 11.890625-1.296875.660156-2.671875.96875-4.023438.96875zm0 0" fill="#e7eced"/><path d="m300.136719 105.929688h-88.273438c-4.875 0-8.828125-3.953126-8.828125-8.828126 0-4.871093 3.953125-8.824218 8.828125-8.824218h88.273438c4.875 0 8.828125 3.953125 8.828125 8.824218 0 4.875-3.953125 8.828126-8.828125 8.828126zm0 0" fill="#afb6bb"/><path d="m140.765625 52.851562c-1.40625 0-2.824219-.34375-4.140625-1.050781-4.210938-2.285156-5.878906-7.425781-3.691406-11.695312 1.042968-2.023438 11.28125-20.144531 50-31.320313 4.679687-1.34375 9.578125 1.339844 10.929687 6.035156 1.351563 4.6875-1.351562 9.578126-6.03125 10.929688-31.175781 9.003906-39.210937 22.457031-39.28125 22.597656-1.652343 2.859375-4.6875 4.503906-7.785156 4.503906zm0 0" fill="#e7eced"/><path d="m185.378906 0h141.242188v26.484375h-141.242188zm0 0" fill="#be6e41"/><path d="m229.144531 97.101562s-35.5625-52.964843-88.363281-52.964843h-79.191406s-61.589844 0-61.589844 70.621093v30.199219c0 16.914063 3.53125 33.800781 11.484375 48.738281 8.105469 15.210938 21.714844 31.398438 44.367187 39.46875 16.171876 5.753907 33.878907 5.472657 50.386719.742188 39.621094-11.371094 129.785157-47.148438 122.90625-136.804688zm0 0" fill="#28384c"/><path d="m282.855469 97.101562s35.5625-52.964843 88.363281-52.964843h79.191406s61.589844 0 61.589844 70.621093v30.199219c0 16.914063-3.53125 33.800781-11.484375 48.738281-8.105469 15.210938-21.714844 31.398438-44.367187 39.46875-16.171876 5.753907-33.878907 5.472657-50.386719.742188-39.621094-11.371094-129.785157-47.148438-122.90625-136.804688zm0 0" fill="#28384c"/><g fill="#425a75"><path d="m44.136719 114.757812c-2.257813 0-4.519531-.863281-6.238281-2.585937-3.453126-3.453125-3.453126-9.03125 0-12.480469l17.652343-17.65625c3.445313-3.453125 9.039063-3.453125 12.484375 0 3.449219 3.453125 3.449219 9.03125 0 12.480469l-17.65625 17.65625c-1.722656 1.722656-3.980468 2.585937-6.242187 2.585937zm0 0"/><path d="m52.964844 150.070312c-2.257813 0-4.519532-.867187-6.242188-2.585937-3.449218-3.453125-3.449218-9.03125 0-12.484375l52.96875-52.964844c3.441406-3.453125 9.039063-3.453125 12.480469 0 3.453125 3.453125 3.453125 9.03125 0 12.480469l-52.964844 52.96875c-1.722656 1.71875-3.980469 2.585937-6.242187 2.585937zm0 0"/><path d="m397.242188 114.757812c-2.261719 0-4.519532-.863281-6.242188-2.585937-3.453125-3.453125-3.453125-9.03125 0-12.480469l17.65625-17.65625c3.441406-3.453125 9.039062-3.453125 12.480469 0 3.453125 3.453125 3.453125 9.03125 0 12.480469l-17.652344 17.65625c-1.722656 1.722656-3.984375 2.585937-6.242187 2.585937zm0 0"/><path d="m450.207031 150.070312c-2.261719 0-4.519531-.867187-6.242187-2.585937-3.449219-3.453125-3.449219-9.03125 0-12.484375l17.65625-17.65625c3.441406-3.449219 9.039062-3.449219 12.480468 0 3.453126 3.453125 3.453126 9.03125 0 12.484375l-17.652343 17.65625c-1.722657 1.71875-3.984375 2.585937-6.242188 2.585937zm0 0"/><path d="m406.070312 150.070312c-2.261718 0-4.519531-.867187-6.242187-2.585937-3.453125-3.453125-3.453125-9.03125 0-12.484375l52.964844-52.964844c3.441406-3.453125 9.039062-3.453125 12.484375 0 3.449218 3.453125 3.449218 9.03125 0 12.480469l-52.96875 52.96875c-1.71875 1.71875-3.980469 2.585937-6.238282 2.585937zm0 0"/></g></svg>