<svg height="512pt" viewBox="0 0 512.00427 512" width="512pt" xmlns="http://www.w3.org/2000/svg"><path d="m256.003906 128.003906c-4.710937 0-8.535156-3.824218-8.535156-8.53125v-34.136718c0-4.707032 3.824219-8.53125 8.535156-8.53125 4.707032 0 8.53125 3.824218 8.53125 8.53125v34.136718c0 4.707032-3.824218 8.53125-8.53125 8.53125zm0 0" fill="#e7eced"/><path d="m273.070312 93.871094h-34.136718c-4.707032 0-8.53125-3.824219-8.53125-8.535156 0-4.707032 3.824218-8.53125 8.53125-8.53125h34.136718c4.707032 0 8.53125 3.824218 8.53125 8.53125 0 4.710937-3.824218 8.535156-8.53125 8.535156zm0 0" fill="#e7eced"/><path d="m179.203125 187.738281c-23.527344 0-42.667969-19.140625-42.667969-42.667969v-93.867187c0-4.710937 3.824219-8.53125 8.535156-8.53125 4.707032 0 8.53125 3.820313 8.53125 8.53125v93.867187c0 14.113282 11.488282 25.601563 25.601563 25.601563 4.710937 0 8.53125 3.820313 8.53125 8.53125s-3.820313 8.535156-8.53125 8.535156zm0 0" fill="#afb6bb"/><path d="m332.800781 187.738281c-4.710937 0-8.53125-3.824219-8.53125-8.535156s3.820313-8.53125 8.53125-8.53125c14.117188 0 25.601563-11.488281 25.601563-25.601563v-93.867187c0-4.710937 3.824218-8.53125 8.53125-8.53125 4.710937 0 8.535156 3.820313 8.535156 8.53125v93.867187c0 23.527344-19.140625 42.667969-42.667969 42.667969zm0 0" fill="#afb6bb"/><path d="m298.667969 298.671875-25.597657 8.53125-25.601562-42.664063-25.601562 42.664063-25.597657-8.53125s-20.242187 26.988281-24.730469 74.972656c-1.605468 17.152344 1.921876 34.738281 11.929688 48.757813 10.667969 14.933594 29.867188 29.867187 64 29.867187s53.332031-14.933593 64-29.867187c10.007812-14.011719 13.535156-31.605469 11.929688-48.757813-4.488282-47.984375-24.730469-74.972656-24.730469-74.972656zm0 0" fill="#ebba16"/><path d="m324.269531 503.472656h-145.066406c-14.140625 0-25.601563-11.460937-25.601563-25.601562s11.460938-25.601563 25.601563-25.601563h145.066406c14.140625 0 25.597657 11.460938 25.597657 25.601563s-11.457032 25.601562-25.597657 25.601562zm0 0" fill="#be6e41"/><path d="m247.46875 324.269531s-34.132812 25.601563-34.132812 51.203125c0 0 0 42.664063 34.132812 42.664063s34.132812-42.664063 34.132812-42.664063c0-25.601562-34.132812-51.203125-34.132812-51.203125zm0 0" fill="#c5411e"/><g fill="#6b4842"><path d="m34.136719 512.003906c-4.710938 0-8.535157-3.824218-8.535157-8.53125v-469.335937c0-4.710938 3.824219-8.53125 8.535157-8.53125 4.710937 0 8.53125 3.820312 8.53125 8.53125v469.335937c0 4.707032-3.820313 8.53125-8.53125 8.53125zm0 0"/><path d="m34.136719 42.671875c-2.1875 0-4.371094-.835937-6.035157-2.5-3.335937-3.335937-3.335937-8.730469 0-12.066406l25.601563-25.601563c3.328125-3.335937 8.738281-3.335937 12.066406 0 3.335938 3.335938 3.335938 8.730469 0 12.066406l-25.601562 25.601563c-1.664063 1.664063-3.847657 2.5-6.03125 2.5zm0 0"/><path d="m34.136719 42.671875c-2.1875 0-4.371094-.835937-6.035157-2.5l-25.597656-25.601563c-3.339844-3.335937-3.339844-8.730468 0-12.066406 3.328125-3.335937 8.738282-3.335937 12.066406 0l25.597657 25.601563c3.335937 3.335937 3.335937 8.730469 0 12.066406-1.664063 1.664063-3.847657 2.5-6.03125 2.5zm0 0"/><path d="m477.867188 512.003906c-4.707032 0-8.53125-3.824218-8.53125-8.53125v-469.335937c0-4.710938 3.824218-8.53125 8.53125-8.53125 4.710937 0 8.535156 3.820312 8.535156 8.53125v469.335937c0 4.707032-3.824219 8.53125-8.535156 8.53125zm0 0"/><path d="m477.867188 42.671875c-2.183594 0-4.367188-.835937-6.03125-2.5-3.335938-3.335937-3.335938-8.730469 0-12.066406l25.601562-25.601563c3.335938-3.335937 8.726562-3.335937 12.0625 0 3.339844 3.335938 3.339844 8.730469 0 12.066406l-25.597656 25.601563c-1.664063 1.664063-3.847656 2.5-6.035156 2.5zm0 0"/><path d="m477.867188 42.671875c-2.183594 0-4.367188-.835937-6.03125-2.5l-25.601563-25.601563c-3.335937-3.335937-3.335937-8.730468 0-12.066406 3.339844-3.335937 8.730469-3.335937 12.066406 0l25.601563 25.601563c3.335937 3.335937 3.335937 8.730469 0 12.066406-1.664063 1.664063-3.847656 2.5-6.035156 2.5zm0 0"/><path d="m477.867188 59.738281h-443.730469c-4.710938 0-8.535157-3.824219-8.535157-8.535156s3.824219-8.53125 8.535157-8.53125h443.730469c4.710937 0 8.535156 3.820313 8.535156 8.53125s-3.824219 8.535156-8.535156 8.535156zm0 0"/></g><path d="m315.753906 221.871094h-119.503906c-9.417969 0-17.046875-7.628906-17.046875-17.050782v-51.214843h153.597656v51.214843c0 9.421876-7.628906 17.050782-17.046875 17.050782zm0 0" fill="#e7eced"/><path d="m332.800781 153.605469h-153.597656c0-18.851563 15.28125-34.132813 34.132813-34.132813h85.332031c18.851562 0 34.132812 15.28125 34.132812 34.132813zm0 0" fill="#afb6bb"/><path d="m196.269531 477.871094c0 14.136718-11.460937 25.601562-25.601562 25.601562-14.136719 0-25.597657-11.464844-25.597657-25.601562 0-14.136719 11.460938-25.601563 25.597657-25.601563 14.140625 0 25.601562 11.464844 25.601562 25.601563zm0 0" fill="#e29c79"/><path d="m93.867188 273.070312c-2.183594 0-4.367188-.835937-6.03125-2.5-3.335938-3.335937-3.335938-8.730468 0-12.066406l34.132812-34.132812c3.328125-3.335938 8.738281-3.335938 12.066406 0 3.335938 3.335937 3.335938 8.730468 0 12.066406l-34.132812 34.132812c-1.664063 1.664063-3.847656 2.5-6.035156 2.5zm0 0" fill="#c5411e"/><path d="m128.003906 273.070312c-2.1875 0-4.371094-.835937-6.035156-2.5l-34.132812-34.132812c-3.335938-3.335938-3.335938-8.730469 0-12.066406 3.328124-3.335938 8.738281-3.335938 12.066406 0l34.132812 34.132812c3.335938 3.335938 3.335938 8.730469 0 12.066406-1.664062 1.664063-3.847656 2.5-6.03125 2.5zm0 0" fill="#c5411e"/><path d="m384.003906 384.003906c-2.1875 0-4.371094-.835937-6.035156-2.5-3.335938-3.335937-3.335938-8.730468 0-12.066406l34.132812-34.132812c3.335938-3.335938 8.730469-3.335938 12.066407 0 3.335937 3.335937 3.335937 8.730468 0 12.066406l-34.132813 34.132812c-1.664062 1.664063-3.847656 2.5-6.03125 2.5zm0 0" fill="#ed8a19"/><path d="m418.136719 384.003906c-2.1875 0-4.371094-.835937-6.035157-2.5l-34.132812-34.132812c-3.335938-3.335938-3.335938-8.730469 0-12.066406 3.335938-3.335938 8.730469-3.335938 12.066406 0l34.132813 34.132812c3.335937 3.335938 3.335937 8.730469 0 12.066406-1.664063 1.664063-3.847657 2.5-6.03125 2.5zm0 0" fill="#ed8a19"/></svg>