<svg height="512pt" viewBox="0 0 512 512" width="512pt" xmlns="http://www.w3.org/2000/svg"><path d="m88.277344 361.929688h35.308594v-238.34375c0-68.253907-55.332032-123.585938-123.585938-123.585938v388.414062c0-48.753906 39.519531-26.484374 88.277344-26.484374zm0 0" fill="#e7eced"/><path d="m0 388.414062v8.828126h.449219c-.289063-2.90625-.449219-5.84375-.449219-8.828126zm0 0" fill="#e7eced"/><path d="m423.722656 114.757812v8.828126h35.3125v105.929687h-35.3125v114.761719c45.773438 0 83.40625-9.296875 87.828125 35.308594h.449219v-353.101563c-48.753906 0-88.277344 39.519531-88.277344 88.273437zm0 0" fill="#e7eced"/><path d="m423.722656 432.550781h-335.445312c-48.757813 0-88.277344 4.617188-88.277344-44.136719v35.308594c0 48.757813 39.519531 88.277344 88.277344 88.277344h335.445312c48.757813 0 88.277344-39.519531 88.277344-88.277344v-35.308594c0 48.753907-39.519531 44.136719-88.277344 44.136719zm0 0" fill="#b02721"/><path d="m423.722656 476.691406h-335.445312c-48.757813 0-88.277344-39.523437-88.277344-88.277344 0-48.753906 39.519531-88.277343 88.277344-88.277343h335.445312c48.757813 0 88.277344 39.523437 88.277344 88.277343 0 48.753907-39.519531 88.277344-88.277344 88.277344zm0 0" fill="#dd352e"/><path d="m141.242188 388.414062c0 29.25-23.714844 52.964844-52.964844 52.964844-29.253906 0-52.96875-23.714844-52.96875-52.964844 0-29.253906 23.714844-52.964843 52.96875-52.964843 29.25 0 52.964844 23.710937 52.964844 52.964843zm0 0" fill="#fff"/><path d="m459.035156 388.414062c0 19.5-15.808594 35.308594-35.3125 35.308594-19.5 0-35.308594-15.808594-35.308594-35.308594s15.808594-35.3125 35.308594-35.3125c19.503906 0 35.3125 15.8125 35.3125 35.3125zm0 0" fill="#fff"/><g fill="#afb6bb"><path d="m105.929688 414.898438c-2.257813 0-4.519532-.867188-6.238282-2.589844l-35.3125-35.308594c-3.449218-3.453125-3.449218-9.03125 0-12.484375 3.453125-3.449219 9.03125-3.449219 12.484375 0l35.308594 35.3125c3.453125 3.453125 3.453125 9.03125 0 12.480469-1.722656 1.722656-3.980469 2.589844-6.242187 2.589844zm0 0"/><path d="m70.621094 414.898438c-2.261719 0-4.519532-.867188-6.242188-2.589844-3.449218-3.449219-3.449218-9.027344 0-12.480469l35.3125-35.3125c3.449219-3.449219 9.027344-3.449219 12.480469 0 3.453125 3.453125 3.453125 9.03125 0 12.484375l-35.308594 35.308594c-1.722656 1.722656-3.984375 2.589844-6.242187 2.589844zm0 0"/><path d="m423.722656 397.242188h-61.792968c-4.871094 0-8.828126-3.957032-8.828126-8.828126 0-4.875 3.957032-8.828124 8.828126-8.828124h61.792968c4.875 0 8.828125 3.953124 8.828125 8.828124 0 4.871094-3.953125 8.828126-8.828125 8.828126zm0 0"/><path d="m35.308594 203.035156c-4.871094 0-8.824219-3.957031-8.824219-8.828125v-70.621093c0-4.871094 3.953125-8.828126 8.824219-8.828126 4.875 0 8.828125 3.957032 8.828125 8.828126v70.621093c0 4.871094-3.953125 8.828125-8.828125 8.828125zm0 0"/></g></svg>