<svg height="512pt" viewBox="0 0 512 512" width="512pt" xmlns="http://www.w3.org/2000/svg"><path d="m0 0h512v512h-512z" fill="#28384c"/><path d="m35.308594 105.929688h150.070312v406.070312h-150.070312zm0 0" fill="#e7eced"/><path d="m185.378906 105.929688h150.070313v406.070312h-150.070313zm0 0" fill="#c2cbcc"/><path d="m370.757812 105.929688h105.933594v123.585937h-105.933594zm0 0" fill="#ed8a19"/><path d="m441.378906 176.550781h-35.308594c-4.875 0-8.828124-3.953125-8.828124-8.828125 0-4.871094 3.953124-8.824218 8.828124-8.824218h35.308594c4.875 0 8.828125 3.953124 8.828125 8.824218 0 4.875-3.953125 8.828125-8.828125 8.828125zm0 0" fill="#c5411e"/><path d="m441.378906 203.035156c-4.871094 0-8.828125-3.957031-8.828125-8.828125v-52.964843c0-4.875 3.957031-8.828126 8.828125-8.828126 4.875 0 8.828125 3.953126 8.828125 8.828126v52.964843c0 4.871094-3.953125 8.828125-8.828125 8.828125zm0 0" fill="#c5411e"/><path d="m370.757812 264.828125h35.3125v35.308594h-35.3125zm0 0" fill="#fff"/><path d="m441.378906 264.828125h35.3125v35.308594h-35.3125zm0 0" fill="#fff"/><path d="m158.898438 0h194.203124v52.964844h-194.203124zm0 0" fill="#ebba16"/><g fill="#405368"><path d="m476.691406 344.277344h-105.933594c-4.871093 0-8.828124-3.957032-8.828124-8.828125 0-4.875 3.957031-8.828125 8.828124-8.828125h105.933594c4.871094 0 8.824219 3.953125 8.824219 8.828125 0 4.871093-3.953125 8.828125-8.824219 8.828125zm0 0"/><path d="m476.691406 379.585938h-105.933594c-4.871093 0-8.828124-3.953126-8.828124-8.828126 0-4.871093 3.957031-8.828124 8.828124-8.828124h105.933594c4.871094 0 8.824219 3.957031 8.824219 8.828124 0 4.875-3.953125 8.828126-8.824219 8.828126zm0 0"/></g></svg>