<svg height="512pt" viewBox="0 0 512 512" width="512pt" xmlns="http://www.w3.org/2000/svg"><path d="m504.242188 466.792969-142.3125-142.316407c-10.945313 13.929688-23.515626 26.507813-37.453126 37.453126l142.308594 142.3125c10.347656 10.34375 27.109375 10.34375 37.457032 0 10.34375-10.347657 10.34375-27.109376 0-37.449219zm0 0" fill="#7383bf"/><path d="m441.378906 220.691406c0 121.882813-98.804687 220.6875-220.6875 220.6875-121.886718 0-220.691406-98.804687-220.691406-220.6875 0-121.886718 98.804688-220.691406 220.691406-220.691406 121.882813 0 220.6875 98.804688 220.6875 220.691406zm0 0" fill="#c6e2f7"/><path d="m279.691406 370.175781c15.75-12.515625 31.332032-25.253906 46.328125-38.671875 12.414063-11.105468 29.308594-22.769531 35.320313-38.859375 2.65625-7.109375 8.960937-9.941406 14.980468-9.648437 7.734376-19.28125 12.09375-40.265625 12.09375-62.304688 0-19.792968-3.601562-38.691406-9.894531-56.320312-6.296875.667968-13.074219-2.171875-15.707031-9.757813-12.144531-35.035156-55.558594-46.625-78.707031-73.117187-4.703125-5.382813-4.492188-11.742188-1.800781-16.691406-19.082032-7.558594-39.835938-11.839844-61.613282-11.839844-32.875 0-63.445312 9.597656-89.328125 25.945312 5.136719 5.058594 6.671875 13.011719-.574219 18.777344-11.8125 9.390625-21.0625 21.121094-30.394531 32.882812-10.34375 13.035157-19.824219 25.308594-24.027343 41.707032-2.445313 9.527344-11.40625 11.769531-18.582032 9.136718-3.035156 12.617188-4.820312 25.726563-4.820312 39.277344 0 92.625 75.097656 167.722656 167.726562 167.722656 18.960938 0 37.109375-3.292968 54.101563-9.09375.046875-3.175781 1.457031-6.40625 4.898437-9.144531zm0 0" fill="#366db6"/><g fill="#61b872"><path d="m194.664062 197.941406c-22.339843-.53125-39.035156-24.207031-28.820312-45.074218.664062-1.359376 1.429688-2.664063 1.941406-4.085938 4.40625-12.21875 1.6875-31.621094-2.082031-43.636719-2.191406-6.964843-5.660156-13.699219-11.105469-18.679687-2.816406-2.566406-6.074218-4.597656-9.605468-6.011719-2.285157-.90625-10.042969-3.9375-12.304688-2.53125-37.507812 23.171875-65.164062 60.699219-75.371094 104.925781 7.160156 6.152344 16.660156 8.859375 26.113282 8.429688 19.078124-.882813 58.808593.429687 58.808593 26.703125 0 19.015625-7.804687 32.792969-14.828125 41.347656-11.300781 13.761719-20.15625 29.5-24.101562 46.867187-2.222656 9.753907-3.59375 20.59375-2.84375 31.371094.144531 1.976563 6.914062 6.734375 8.441406 8.09375 3.097656 2.773438 6.300781 5.4375 9.605469 7.980469 6.824219 5.253906 14.050781 9.984375 21.601562 14.132813 7.617188 4.1875 15.5625 7.777343 23.734375 10.71875 3.171875 1.136718 21.53125 8.332031 21.453125 3.832031-.089843-5.289063-.503906-10.566407-1.246093-15.804688-.546876-3.863281-1.28125-7.800781-.636719-11.660156.832031-5.023437 3.921875-9.410156 7.488281-13.046875 26.695312-27.179688 73.691406-53.1875 57.757812-98.914062-.910156-2.613282-2.003906-5.164063-3.238281-7.644532-15.0625-30.242187-35.957031-36.960937-50.761719-37.3125zm0 0"/><path d="m378.101562 278.703125-14.527343-14.527344c-4.804688-4.679687-12.4375-6.214843-23.023438-6.214843-25.828125 0-34.4375 43.800781-34.4375 43.800781 0 17.523437-17.089843 24.53125-17.089843 24.53125s-43.238282 10.886719-31.054688 31.054687l13.859375 23.09375c49.179687-15.722656 88.488281-53.511718 106.273437-101.738281zm0 0"/><path d="m278.96875 63.382812-2.375 2.003907c-5.613281 7.363281-7.027344 14.125-5.941406 23.957031-25.34375 23.457031-6.320313 50.433594 1.882812 62.058594 9.496094 13.46875 35.839844 38.9375 67.53125 38.9375 13.089844 0 25.617188-4.457032 36.226563-12.898438l4.5625-3.636718.699219-.582032c-14.960938-50.792968-53.292969-91.566406-102.585938-109.839844zm0 0"/></g></svg>