<svg height="512pt" viewBox="-44 0 512 512" width="512pt" xmlns="http://www.w3.org/2000/svg"><path d="m79.449219 203.035156h344.273437v308.964844h-344.273437zm0 0" fill="#be6e41"/><path d="m256 273.65625 55.621094 51.710938c30.722656 28.558593 30.722656 74.867187 0 103.425781-30.71875 28.554687-80.523438 28.554687-111.242188 0-30.722656-28.558594-30.722656-74.867188 0-103.425781zm0 0" fill="#ebba16"/><path d="m79.449219 0h344.273437v194.207031h-344.273437zm0 0" fill="#f7e6a1"/><path d="m357.261719 86.429688-7.558594-11.589844c-7.226563-11.097656-7.226563-25.476563 0-36.570313.726563-1.125 1.652344-1.996093 2.507813-2.960937h-228.625v34.261718c11.007812-11.105468 29.933593-9.851562 38.964843 4.007813 7.230469 11.097656 7.230469 25.476563 0 36.574219l-5.003906 7.679687 1.351563-2.074219v87.277344h194.203124v-122.976562zm0 0" fill="#d1c17d"/><path d="m0 203.035156h88.277344v308.964844h-88.277344zm0 0" fill="#b02721"/><path d="m0 0h88.277344v203.035156h-88.277344zm0 0" fill="#b02721"/><path d="m256.625 344.277344 31.214844 31.027344c17.242187 17.132812 17.242187 44.914062 0 62.050781-17.238282 17.132812-45.179688 17.132812-62.417969 0-17.242187-17.136719-17.242187-44.917969 0-62.050781zm0 0" fill="#ed8a19"/><path d="m151.464844 108.898438c-4.777344 7.335937-15.414063 7.335937-20.191406 0l-7.6875-11.796876v105.933594h35.3125v-105.542968zm0 0" fill="#be7c6d"/><path d="m230.910156 108.898438c-4.773437 7.335937-15.410156 7.335937-20.1875 0l-7.6875-11.796876v105.933594h35.308594v-105.542968zm0 0" fill="#be7c6d"/><path d="m310.359375 108.898438c-4.773437 7.335937-15.410156 7.335937-20.1875 0l-7.6875-11.796876v105.933594h35.308594v-105.542968zm0 0" fill="#be7c6d"/><path d="m380.980469 82.777344c-4.773438 7.335937-15.414063 7.335937-20.1875 0l-7.691407-11.792969v132.050781h35.3125v-131.664062zm0 0" fill="#be7c6d"/><g fill="#871616"><path d="m44.136719 247.171875c-4.871094 0-8.828125-3.953125-8.828125-8.828125v-8.828125c0-4.871094 3.957031-8.824219 8.828125-8.824219 4.875 0 8.828125 3.953125 8.828125 8.824219v8.828125c0 4.875-3.953125 8.828125-8.828125 8.828125zm0 0"/><path d="m26.484375 282.484375c-4.875 0-8.828125-3.957031-8.828125-8.828125v-8.828125c0-4.875 3.953125-8.828125 8.828125-8.828125 4.871094 0 8.824219 3.953125 8.824219 8.828125v8.828125c0 4.871094-3.953125 8.828125-8.824219 8.828125zm0 0"/><path d="m61.792969 282.484375c-4.871094 0-8.828125-3.957031-8.828125-8.828125v-8.828125c0-4.875 3.957031-8.828125 8.828125-8.828125 4.871093 0 8.828125 3.953125 8.828125 8.828125v8.828125c0 4.871094-3.957032 8.828125-8.828125 8.828125zm0 0"/><path d="m44.136719 317.792969c-4.871094 0-8.828125-3.953125-8.828125-8.828125v-8.828125c0-4.871094 3.957031-8.828125 8.828125-8.828125 4.875 0 8.828125 3.957031 8.828125 8.828125v8.828125c0 4.875-3.953125 8.828125-8.828125 8.828125zm0 0"/><path d="m26.484375 353.101562c-4.875 0-8.828125-3.953124-8.828125-8.824218v-8.828125c0-4.875 3.953125-8.828125 8.828125-8.828125 4.871094 0 8.824219 3.953125 8.824219 8.828125v8.828125c0 4.871094-3.953125 8.824218-8.824219 8.824218zm0 0"/><path d="m61.792969 353.101562c-4.871094 0-8.828125-3.953124-8.828125-8.824218v-8.828125c0-4.875 3.957031-8.828125 8.828125-8.828125 4.871093 0 8.828125 3.953125 8.828125 8.828125v8.828125c0 4.871094-3.957032 8.824218-8.828125 8.824218zm0 0"/><path d="m44.136719 388.414062c-4.871094 0-8.828125-3.953124-8.828125-8.828124v-8.828126c0-4.871093 3.957031-8.828124 8.828125-8.828124 4.875 0 8.828125 3.957031 8.828125 8.828124v8.828126c0 4.875-3.953125 8.828124-8.828125 8.828124zm0 0"/><path d="m26.484375 423.722656c-4.875 0-8.828125-3.953125-8.828125-8.824218v-8.828126c0-4.875 3.953125-8.828124 8.828125-8.828124 4.871094 0 8.824219 3.953124 8.824219 8.828124v8.828126c0 4.871093-3.953125 8.824218-8.824219 8.824218zm0 0"/><path d="m61.792969 423.722656c-4.871094 0-8.828125-3.953125-8.828125-8.824218v-8.828126c0-4.875 3.957031-8.828124 8.828125-8.828124 4.871093 0 8.828125 3.953124 8.828125 8.828124v8.828126c0 4.871093-3.957032 8.824218-8.828125 8.824218zm0 0"/><path d="m44.136719 459.035156c-4.871094 0-8.828125-3.957031-8.828125-8.828125v-8.828125c0-4.871094 3.957031-8.828125 8.828125-8.828125 4.875 0 8.828125 3.957031 8.828125 8.828125v8.828125c0 4.871094-3.953125 8.828125-8.828125 8.828125zm0 0"/><path d="m26.484375 494.34375c-4.875 0-8.828125-3.953125-8.828125-8.828125v-8.824219c0-4.875 3.953125-8.828125 8.828125-8.828125 4.871094 0 8.824219 3.953125 8.824219 8.828125v8.824219c0 4.875-3.953125 8.828125-8.824219 8.828125zm0 0"/><path d="m61.792969 494.34375c-4.871094 0-8.828125-3.953125-8.828125-8.828125v-8.824219c0-4.875 3.957031-8.828125 8.828125-8.828125 4.871093 0 8.828125 3.953125 8.828125 8.828125v8.824219c0 4.875-3.957032 8.828125-8.828125 8.828125zm0 0"/></g><path d="m120.285156 73.578125c9.984375-15.386719 32.195313-15.386719 42.167969 0 7.195313 11.097656 7.195313 25.476563 0 36.5625l-11.035156 17.019531c-4.757813 7.328125-15.339844 7.328125-20.089844 0l-11.035156-17.019531c-7.210938-11.085937-7.210938-25.464844-.007813-36.5625zm0 0" fill="#cb465f"/><path d="m199.734375 73.578125c9.984375-15.386719 32.191406-15.386719 42.167969 0 7.195312 11.097656 7.195312 25.476563 0 36.5625l-11.035156 17.019531c-4.757813 7.328125-15.339844 7.328125-20.089844 0l-11.035156-17.019531c-7.210938-11.085937-7.210938-25.464844-.007813-36.5625zm0 0" fill="#cb465f"/><path d="m279.179688 73.578125c9.984374-15.386719 32.195312-15.386719 42.171874 0 7.195313 11.097656 7.195313 25.476563 0 36.5625l-11.035156 17.019531c-4.757812 7.328125-15.34375 7.328125-20.09375 0l-11.03125-17.019531c-7.214844-11.085937-7.214844-25.464844-.011718-36.5625zm0 0" fill="#cb465f"/><path d="m349.695312 38.269531c10.027344-15.386719 32.34375-15.386719 42.375 0 7.226563 11.09375 7.226563 25.472657 0 36.5625l-11.089843 17.019531c-4.773438 7.328126-15.414063 7.328126-20.1875 0l-11.089844-17.019531c-7.238281-11.089843-7.238281-25.46875-.007813-36.5625zm0 0" fill="#cb465f"/><path d="m0 194.207031h423.722656v17.65625h-423.722656zm0 0" fill="#a05530"/></svg>