<svg height="512pt" viewBox="-91 0 512 512" width="512pt" xmlns="http://www.w3.org/2000/svg"><path d="m140.339844 85.285156c-13.554688-13.554687-13.554688-35.535156 0-49.089844l24.542968-27.515624 24.539063 27.523437c13.554687 13.554687 13.554687 35.539063 0 49.09375s-35.527344 13.554687-49.082031-.011719zm0 0" fill="#ebba16"/><path d="m164.882812 138.847656c-4.792968 0-8.679687-3.878906-8.679687-8.679687v-60.746094c0-4.796875 3.886719-8.675781 8.679687-8.675781 4.789063 0 8.675782 3.878906 8.675782 8.675781v60.746094c0 4.800781-3.886719 8.679687-8.675782 8.679687zm0 0" fill="#e7eced"/><path d="m190.914062 190.914062h-52.066406v-34.710937c0-14.378906 11.65625-26.035156 26.035156-26.035156 14.378907 0 26.03125 11.65625 26.03125 26.035156zm0 0" fill="#afb6bb"/><path d="m26.035156 312.40625h277.695313v17.355469h-277.695313zm0 0" fill="#dc691d"/><path d="m121.5 213.632812c-2.570312 0-5.121094-1.136718-6.828125-3.3125l-112.816406-144.210937c-1.203125-1.535156-1.855469-3.417969-1.855469-5.363281v-52.066406c0-4.800782 3.886719-8.679688 8.679688-8.679688h78.101562c4.789062 0 8.675781 3.878906 8.675781 8.679688 0 4.796874-3.886719 8.675781-8.675781 8.675781h-69.425781v40.386719l110.957031 141.851562c2.960938 3.773438 2.308594 9.222656-1.457031 12.183594-1.589844 1.257812-3.480469 1.855468-5.355469 1.855468zm0 0" fill="#7383bf"/><path d="m208.261719 213.632812c-1.875 0-3.765625-.597656-5.351563-1.855468-3.769531-2.960938-4.425781-8.417969-1.460937-12.183594l110.957031-141.851562v-40.386719h-69.421875c-4.792969 0-8.679687-3.878907-8.679687-8.675781 0-4.800782 3.886718-8.679688 8.679687-8.679688h78.101563c4.789062 0 8.675781 3.878906 8.675781 8.679688v52.066406c0 1.945312-.648438 3.828125-1.855469 5.363281l-112.8125 144.210937c-1.710938 2.175782-4.253906 3.3125-6.832031 3.3125zm0 0" fill="#7383bf"/><path d="m269.015625 234.304688c-4.789063 0-8.675781-3.878907-8.675781-8.675782v-34.714844c0-4.796874 3.886718-8.675781 8.675781-8.675781 4.792969 0 8.679687 3.878907 8.679687 8.675781v34.714844c0 4.796875-3.886718 8.675782-8.679687 8.675782zm0 0" fill="#afb6bb"/><path d="m269.015625 216.949219h-43.386719c-4.792968 0-8.679687-3.878907-8.679687-8.679688 0-4.796875 3.886719-8.675781 8.679687-8.675781h43.386719c4.792969 0 8.679687 3.878906 8.679687 8.675781 0 4.800781-3.886718 8.679688-8.679687 8.679688zm0 0" fill="#afb6bb"/><path d="m104.136719 182.238281h121.492187v86.777344h-121.492187zm0 0" fill="#e7eced"/><path d="m17.355469 321.085938h295.050781v156.203124h-295.050781zm0 0" fill="#ed8a19"/><path d="m312.40625 321.085938h-295.050781c0-38.339844 31.085937-69.425782 69.425781-69.425782h156.203125c38.339844 0 69.421875 31.085938 69.421875 69.425782zm0 0" fill="#dc691d"/><path d="m260.339844 355.796875h52.066406v69.421875h-52.066406zm0 0" fill="#f2ecbf"/><path d="m17.355469 355.796875h104.136719v69.421875h-104.136719zm0 0" fill="#f2ecbf"/><path d="m0 459.933594h329.761719v52.066406h-329.761719zm0 0" fill="#dc691d"/></svg>