<svg height="512pt" viewBox="-97 0 512 512" width="512pt" xmlns="http://www.w3.org/2000/svg"><path d="m229.515625 44.136719h-141.238281v-26.515625c0-9.730469 7.890625-17.621094 17.617187-17.621094h106.003907c9.726562 0 17.617187 7.890625 17.617187 17.621094zm0 0" fill="#ebba16"/><path d="m256 88.277344h-194.207031v-35.347656c0-9.726563 7.890625-17.621094 17.621093-17.621094h158.964844c9.730469 0 17.621094 7.894531 17.621094 17.621094zm0 0" fill="#ed8a19"/><path d="m300.136719 370.757812h-282.480469v-255.992187c0-24.378906 19.765625-44.144531 44.144531-44.144531h194.179688c24.390625 0 44.15625 19.765625 44.15625 44.144531zm0 0" fill="#c6e2f7"/><path d="m264.828125 353.101562h-211.863281l8.828125-70.617187v-211.863281h194.207031v211.863281zm0 0" fill="#a5c4d6"/><path d="m133.933594 183.859375c-13.789063-13.785156-13.789063-36.148437 0-49.9375l24.964844-27.992187 24.960937 28.003906c13.789063 13.789062 13.789063 36.148437 0 49.9375-13.785156 13.789062-36.136719 13.789062-49.925781-.011719zm0 0" fill="#c7d3a5"/><path d="m300.128906 512h-282.464844c-9.753906 0-17.664062-7.910156-17.664062-17.664062v-123.570313c0-9.753906 7.910156-17.664063 17.664062-17.664063h282.464844c9.753906 0 17.664063 7.910157 17.664063 17.664063v123.570313c0 9.753906-7.910157 17.664062-17.664063 17.664062zm0 0" fill="#ebba16"/><path d="m264.828125 353.101562h-211.863281l8.828125-70.617187h194.207031zm0 0" fill="#e7eced"/><path d="m158.898438 238.34375c-4.875 0-8.828126-3.945312-8.828126-8.828125v-61.792969c0-4.878906 3.953126-8.824218 8.828126-8.824218 4.871093 0 8.824218 3.945312 8.824218 8.824218v61.792969c0 4.882813-3.953125 8.828125-8.824218 8.828125zm0 0" fill="#f2ecbf"/><path d="m185.378906 282.484375h-52.964844v-26.484375c0-14.628906 11.855469-26.484375 26.484376-26.484375 14.625 0 26.480468 11.855469 26.480468 26.484375zm0 0" fill="#86a3b2"/><path d="m35.308594 397.242188h247.175781v70.621093h-247.175781zm0 0" fill="#ed8a19"/><g fill="#afb6bb"><path d="m88.277344 282.484375h17.652344v70.617187h-17.652344zm0 0"/><path d="m123.585938 282.484375h17.65625v70.617187h-17.65625zm0 0"/><path d="m176.550781 282.484375h17.65625v70.617187h-17.65625zm0 0"/><path d="m211.863281 282.484375h17.652344v70.617187h-17.652344zm0 0"/></g><path d="m282.484375 423.722656h-35.3125c-4.871094 0-8.828125 3.949219-8.828125 8.828125 0 4.882813 3.957031 8.828125 8.828125 8.828125h35.3125zm0 0" fill="#dc691d"/><path d="m211.863281 423.722656h-176.554687v17.65625h176.554687c4.871094 0 8.828125-3.945312 8.828125-8.828125 0-4.878906-3.957031-8.828125-8.828125-8.828125zm0 0" fill="#dc691d"/></svg>