<svg height="512pt" viewBox="-26 0 512 512" width="512pt" xmlns="http://www.w3.org/2000/svg"><path d="m76.085938 400.179688 29.84375 41.199218 247.171874-8.828125 29.847657-32.371093c46.699219-42.007813 76.085937-102.902344 76.085937-170.664063 0-126.753906-102.761718-229.515625-229.519531-229.515625-126.753906 0-229.515625 102.761719-229.515625 229.515625 0 67.761719 29.386719 128.65625 76.085938 170.664063zm0 0" fill="#c6e2f7"/><path d="m289.246094 301.195312c-24.613282-45.609374-40.539063-95.433593-47.378906-146.808593l-12.351563-92.59375-12.339844 92.59375c-6.851562 51.375-22.773437 101.199219-47.386719 146.808593-26.613281 49.339844-55.03125 87.21875-55.03125 87.21875h70.621094c0-24.375 19.765625-44.136718 44.136719-44.136718 24.375 0 44.140625 19.761718 44.140625 44.136718h70.621094s-28.417969-37.878906-55.03125-87.21875zm0 0" fill="#afb6bb"/><path d="m414.898438 512h-370.761719l35.3125-123.585938h300.136719zm0 0" fill="#dd352e"/><path d="m282.484375 247.171875h-105.933594c-4.871093 0-8.828125-3.945313-8.828125-8.828125 0-4.878906 3.957032-8.828125 8.828125-8.828125h105.933594c4.871094 0 8.824219 3.949219 8.824219 8.828125 0 4.882812-3.953125 8.828125-8.824219 8.828125zm0 0" fill="#e7eced"/><path d="m317.792969 317.792969h-176.550781c-4.875 0-8.828126-3.945313-8.828126-8.828125 0-4.882813 3.953126-8.828125 8.828126-8.828125h176.550781c4.871093 0 8.828125 3.945312 8.828125 8.828125 0 4.882812-3.957032 8.828125-8.828125 8.828125zm0 0" fill="#e7eced"/><g fill="#91b1c4"><path d="m414.898438 238.34375c-4.875 0-8.820313-3.945312-8.828126-8.816406-.046874-36.882813-11.988281-73.703125-33.644531-103.671875-2.851562-3.957031-1.96875-9.472657 1.988281-12.324219 3.953126-2.851562 9.472657-1.976562 12.324219 1.988281 23.804688 32.953125 36.941407 73.433594 36.984375 113.996094.011719 4.875-3.945312 8.828125-8.816406 8.839844 0-.011719-.007812-.011719-.007812-.011719zm0 0"/><path d="m344.109375 92.617188c-1.90625 0-3.824219-.605469-5.4375-1.878907-17.128906-13.425781-35.761719-22.738281-58.617187-29.289062-4.6875-1.332031-7.398438-6.222657-6.054688-10.910157 1.339844-4.699218 6.230469-7.398437 10.917969-6.058593 25.125 7.195312 45.667969 17.480469 64.644531 32.363281 3.839844 3.011719 4.511719 8.5625 1.5 12.394531-1.738281 2.214844-4.332031 3.378907-6.953125 3.378907zm0 0"/><path d="m79.457031 344.277344c-2.796875 0-5.550781-1.324219-7.265625-3.804688-23.746094-34.304687-36.847656-73.703125-36.882812-110.945312 0-4.882813 3.949218-8.828125 8.820312-8.835938h.007813c4.875 0 8.828125 3.945313 8.828125 8.816406.035156 33.6875 12.015625 69.527344 33.738281 100.917969 2.773437 4.007813 1.777344 9.507813-2.230469 12.289063-1.527344 1.050781-3.285156 1.5625-5.015625 1.5625zm0 0"/></g><path d="m326.621094 476.691406h-194.207032c-14.628906 0-26.484374-11.855468-26.484374-26.484375 0-14.628906 11.855468-26.484375 26.484374-26.484375h194.207032c14.625 0 26.480468 11.855469 26.480468 26.484375 0 14.628907-11.855468 26.484375-26.480468 26.484375zm0 0" fill="#ebba16"/></svg>