<svg height="512pt" viewBox="0 -61 512 511" width="512pt" xmlns="http://www.w3.org/2000/svg"><path d="m82.386719 303.578125h347.957031v20.59375h-347.957031zm0 0" fill="#6c4127"/><path d="m114.757812 97.601562c-4.871093 0-8.828124-3.953124-8.828124-8.824218 0-4.875 3.957031-8.828125 8.828124-8.828125 14.601563 0 26.484376-11.882813 26.484376-26.484375 0-24.335938 19.800781-44.136719 44.136718-44.136719 4.875 0 8.828125 3.953125 8.828125 8.828125 0 4.871094-3.953125 8.828125-8.828125 8.828125-14.601562 0-26.480468 11.878906-26.480468 26.480469 0 24.339844-19.800782 44.136718-44.140626 44.136718zm0 0" fill="#e7eced"/><path d="m397.242188 97.601562c-24.339844 0-44.140626-19.796874-44.140626-44.136718 0-14.601563-11.878906-26.480469-26.480468-26.480469-4.875 0-8.828125-3.957031-8.828125-8.828125 0-4.875 3.953125-8.828125 8.828125-8.828125 24.335937 0 44.136718 19.800781 44.136718 44.136719 0 14.601562 11.882813 26.484375 26.484376 26.484375 4.871093 0 8.828124 3.953125 8.828124 8.828125 0 4.871094-3.957031 8.824218-8.828124 8.824218zm0 0" fill="#e7eced"/><path d="m185.378906.5h141.242188v35.308594h-141.242188zm0 0" fill="#afb6bb"/><path d="m476.691406 388.914062h-441.382812c-19.5 0-35.308594-15.808593-35.308594-35.3125 0-19.5 15.808594-35.308593 35.308594-35.308593h441.382812c19.5 0 35.308594 15.808593 35.308594 35.308593 0 19.503907-15.808594 35.3125-35.308594 35.3125zm0 0" fill="#28384c"/><g fill="#425a75"><path d="m123.585938 353.601562c0 19.503907-15.808594 35.3125-35.308594 35.3125-19.503906 0-35.3125-15.808593-35.3125-35.3125 0-19.5 15.808594-35.308593 35.3125-35.308593 19.5 0 35.308594 15.808593 35.308594 35.308593zm0 0"/><path d="m459.035156 353.601562c0 19.503907-15.808594 35.3125-35.3125 35.3125-19.5 0-35.308594-15.808593-35.308594-35.3125 0-19.5 15.808594-35.308593 35.308594-35.308593 19.503906 0 35.3125 15.808593 35.3125 35.308593zm0 0"/><path d="m344.277344 353.601562c0 19.503907-15.808594 35.3125-35.3125 35.3125-19.5 0-35.308594-15.808593-35.308594-35.3125 0-19.5 15.808594-35.308593 35.308594-35.308593 19.503906 0 35.3125 15.808593 35.3125 35.308593zm0 0"/><path d="m238.34375 353.601562c0 19.503907-15.808594 35.3125-35.308594 35.3125-19.503906 0-35.3125-15.808593-35.3125-35.3125 0-19.5 15.808594-35.308593 35.3125-35.308593 19.5 0 35.308594 15.808593 35.308594 35.308593zm0 0"/></g><path d="m432.542969 318.292969h-353.085938c-19.5 0-35.320312-15.820313-35.320312-35.320313v-158.878906c0-19.5 15.820312-35.316406 35.320312-35.316406h353.078125c19.507813 0 35.328125 15.816406 35.328125 35.316406v158.871094c0 19.507812-15.820312 35.328125-35.320312 35.328125zm0 0" fill="#6c4127"/><path d="m114.757812 88.777344h35.3125v229.515625h-35.3125zm0 0" fill="#be7c6d"/><path d="m361.929688 88.777344h35.3125v229.515625h-35.3125zm0 0" fill="#be7c6d"/><path d="m220.691406 141.742188v70.621093c7.484375 2.664063 13.371094-7.488281 16.027344 0l10.691406 16.03125c7.355469-5.476562 16.367188-8.828125 26.246094-8.828125 6.285156 0 12.242188 1.359375 17.652344 3.722656v-81.546874zm0 0" fill="#c5411e"/><path d="m317.792969 221.191406c0 24.375-19.761719 44.136719-44.136719 44.136719-24.378906 0-44.140625-19.761719-44.140625-44.136719 0-24.378906 19.761719-44.140625 44.140625-44.140625 24.375 0 44.136719 19.761719 44.136719 44.140625zm0 0" fill="#ebba16"/><path d="m238.316406 194.980469c0-.089844.027344-.175781.027344-.273438 0-14.628906-11.855469-26.484375-26.480469-26.484375-14.628906 0-26.484375 11.855469-26.484375 26.484375 0 14.628907 11.855469 26.484375 26.484375 26.484375 7.167969 0 13.636719-2.871094 18.40625-7.496094 1.199219-6.949218 4.015625-13.277343 8.046875-18.714843zm0 0" fill="#366db6"/></svg>