<svg height="512pt" viewBox="-88 0 512 512" width="512pt" xmlns="http://www.w3.org/2000/svg"><path d="m88.277344 0h158.894531v44.136719h-158.894531zm0 0" fill="#7383bf"/><path d="m176.550781 361.929688h44.140625v35.3125h-44.140625zm0 0" fill="#556080"/><path d="m114.757812 344.277344h44.140626v70.621094h-44.140626zm0 0" fill="#556080"/><path d="m150.070312 256h35.308594v256h-35.308594zm0 0" fill="#7383bf"/><path d="m114.757812 220.691406h105.933594v44.136719h-105.933594zm0 0" fill="#556080"/><path d="m88.277344 176.550781h158.894531v52.964844h-158.894531zm0 0" fill="#7383bf"/><path d="m317.828125 194.207031h-300.207031c-9.730469 0-17.621094-7.890625-17.621094-17.621093v-123.65625c0-9.726563 7.890625-17.621094 17.621094-17.621094h300.199218c9.734376 0 17.628907 7.894531 17.628907 17.621094v123.648437c0 9.738281-7.894531 17.628906-17.621094 17.628906zm0 0" fill="#e7eced"/><g fill="#afb6bb"><path d="m35.308594 141.242188c-4.871094 0-8.824219-3.945313-8.824219-8.828126v-35.3125c0-4.878906 3.953125-8.824218 8.824219-8.824218 4.875 0 8.828125 3.945312 8.828125 8.824218v35.3125c0 4.882813-3.953125 8.828126-8.828125 8.828126zm0 0"/><path d="m264.828125 97.101562h35.308594v35.3125h-35.308594zm0 0"/></g></svg>