<svg height="512pt" viewBox="-4 0 512 512" width="512pt" xmlns="http://www.w3.org/2000/svg"><path d="m190.914062 156.203125h121.492188v156.203125h-121.492188zm0 0" fill="#be6e41"/><path d="m121.492188 303.730469h260.339843v208.269531h-260.339843zm0 0" fill="#6c4127"/><path d="m251.660156 104.136719c-4.789062 0-8.675781-3.878907-8.675781-8.679688v-78.101562c0-4.796875 3.886719-8.675781 8.675781-8.675781 4.792969 0 8.679688 3.878906 8.679688 8.675781v78.101562c0 4.800781-3.886719 8.679688-8.679688 8.679688zm0 0" fill="#e7eced"/><path d="m303.730469 52.066406h-52.070313c-4.789062 0-8.675781-3.878906-8.675781-8.675781v-34.710937c0-4.800782 3.886719-8.679688 8.675781-8.679688h52.070313c4.789062 0 8.675781 3.878906 8.675781 8.679688v34.710937c0 4.796875-3.886719 8.675781-8.675781 8.675781zm0 0" fill="#dd352e"/><path d="m17.355469 260.339844h121.492187v251.660156h-121.492187zm0 0" fill="#be6e41"/><path d="m104.136719 373.152344h-52.070313v-43.390625c0-14.378907 11.65625-26.03125 26.035156-26.03125 14.378907 0 26.035157 11.652343 26.035157 26.03125zm0 0" fill="#fff"/><path d="m86.78125 416.542969h-34.714844c-4.789062 0-8.675781-3.878907-8.675781-8.679688 0-4.796875 3.886719-8.675781 8.675781-8.675781h34.714844c4.789062 0 8.675781 3.878906 8.675781 8.675781 0 4.800781-3.886719 8.679688-8.675781 8.679688zm0 0" fill="#6c4127"/><path d="m86.78125 485.964844h-34.714844c-4.789062 0-8.675781-3.878906-8.675781-8.675782 0-4.800781 3.886719-8.679687 8.675781-8.679687h34.714844c4.789062 0 8.675781 3.878906 8.675781 8.679687 0 4.796876-3.886719 8.675782-8.675781 8.675782zm0 0" fill="#6c4127"/><path d="m104.136719 451.253906h-34.714844c-4.789063 0-8.675781-3.878906-8.675781-8.675781 0-4.800781 3.886718-8.679687 8.675781-8.679687h34.714844c4.789062 0 8.675781 3.878906 8.675781 8.679687 0 4.796875-3.886719 8.675781-8.675781 8.675781zm0 0" fill="#6c4127"/><path d="m364.472656 260.339844h121.492188v251.660156h-121.492188zm0 0" fill="#be6e41"/><path d="m451.253906 373.152344h-52.066406v-43.390625c0-14.378907 11.652344-26.03125 26.03125-26.03125 14.382812 0 26.035156 11.652343 26.035156 26.03125zm0 0" fill="#fff"/><path d="m277.695312 269.015625h-52.066406v-43.386719c0-14.382812 11.652344-26.035156 26.03125-26.035156s26.035156 11.652344 26.035156 26.035156zm0 0" fill="#fff"/><path d="m329.761719 164.882812h-156.203125l78.101562-86.78125zm0 0" fill="#6c4127"/><path d="m312.40625 512h-121.492188v-95.457031c0-33.550781 27.199219-60.746094 60.746094-60.746094 33.550782 0 60.746094 27.195313 60.746094 60.746094zm0 0" fill="#be7c6d"/><g fill="#ddaea6"><path d="m329.761719 442.578125h-34.710938c-4.789062 0-8.679687-3.882813-8.679687-8.679687 0-4.800782 3.890625-8.679688 8.679687-8.679688h34.710938c4.792969 0 8.679687 3.878906 8.679687 8.679688 0 4.796874-3.886718 8.679687-8.679687 8.679687zm0 0"/><path d="m329.761719 485.964844h-34.710938c-4.789062 0-8.679687-3.878906-8.679687-8.675782 0-4.800781 3.890625-8.679687 8.679687-8.679687h34.710938c4.792969 0 8.679687 3.878906 8.679687 8.679687 0 4.796876-3.886718 8.675782-8.679687 8.675782zm0 0"/><path d="m208.269531 442.578125h-34.710937c-4.789063 0-8.675782-3.882813-8.675782-8.679687 0-4.800782 3.886719-8.679688 8.675782-8.679688h34.710937c4.792969 0 8.679688 3.878906 8.679688 8.679688 0 4.796874-3.886719 8.679687-8.679688 8.679687zm0 0"/><path d="m208.269531 485.964844h-34.710937c-4.789063 0-8.675782-3.878906-8.675782-8.675782 0-4.800781 3.886719-8.679687 8.675782-8.679687h34.710937c4.792969 0 8.679688 3.878906 8.679688 8.679687 0 4.796876-3.886719 8.675782-8.679688 8.675782zm0 0"/></g><path d="m451.253906 416.542969h-34.710937c-4.789063 0-8.679688-3.878907-8.679688-8.679688 0-4.796875 3.890625-8.675781 8.679688-8.675781h34.710937c4.789063 0 8.679688 3.878906 8.679688 8.675781 0 4.800781-3.890625 8.679688-8.679688 8.679688zm0 0" fill="#6c4127"/><path d="m451.253906 485.964844h-34.710937c-4.789063 0-8.679688-3.878906-8.679688-8.675782 0-4.800781 3.890625-8.679687 8.679688-8.679687h34.710937c4.789063 0 8.679688 3.878906 8.679688 8.679687 0 4.796876-3.890625 8.675782-8.679688 8.675782zm0 0" fill="#6c4127"/><path d="m433.898438 451.253906h-34.710938c-4.792969 0-8.679688-3.878906-8.679688-8.675781 0-4.800781 3.886719-8.679687 8.679688-8.679687h34.710938c4.789062 0 8.679687 3.878906 8.679687 8.679687 0 4.796875-3.890625 8.675781-8.679687 8.675781zm0 0" fill="#6c4127"/><path d="m242.984375 356.492188v155.507812h17.355469v-155.507812c-2.839844-.410157-5.726563-.695313-8.679688-.695313-2.949218 0-5.839844.285156-8.675781.695313zm0 0" fill="#ddaea6"/><path d="m121.492188 208.269531v26.035157h-26.035157v-26.035157h-34.710937v26.035157h-26.035156v-26.035157h-34.710938v60.746094h156.203125v-60.746094zm0 0" fill="#6c4127"/><path d="m468.609375 208.269531v26.035157h-26.03125v-26.035157h-34.714844v26.035157h-26.03125v-26.035157h-34.714843v60.746094h156.203124v-60.746094zm0 0" fill="#6c4127"/></svg>