<svg height="512pt" viewBox="0 -71 512 512" width="512pt" xmlns="http://www.w3.org/2000/svg"><path d="m414.898438 0h52.964843v44.136719h-52.964843zm0 0" fill="#afb6bb"/><path d="m397.242188 35.308594h88.273437v44.140625h-88.273437zm0 0" fill="#e7eced"/><path d="m61.792969 79.449219c-4.871094 0-8.828125-3.945313-8.828125-8.828125v-26.484375c0-4.878907 3.957031-8.828125 8.828125-8.828125 4.871093 0 8.828125 3.949218 8.828125 8.828125v26.484375c0 4.882812-3.957032 8.828125-8.828125 8.828125zm0 0" fill="#afb6bb"/><path d="m61.792969 52.964844c-2.257813 0-4.519531-.863282-6.242188-2.585938-3.449219-3.453125-3.449219-9.03125 0-12.480468l26.484375-26.484376c3.453125-3.453124 9.03125-3.453124 12.480469 0 3.453125 3.453126 3.453125 9.03125 0 12.480469l-26.480469 26.484375c-1.722656 1.722656-3.980468 2.585938-6.242187 2.585938zm0 0" fill="#afb6bb"/><path d="m61.792969 52.964844c-2.257813 0-4.519531-.863282-6.242188-2.585938l-26.480469-26.484375c-3.453124-3.449219-3.453124-9.027343 0-12.480469 3.449219-3.453124 9.03125-3.453124 12.480469 0l26.484375 26.484376c3.449219 3.449218 3.449219 9.027343 0 12.480468-1.722656 1.722656-3.980468 2.585938-6.242187 2.585938zm0 0" fill="#afb6bb"/><path d="m370.757812 70.621094-35.308593-70.621094h-158.898438l-35.308593 70.621094h-123.578126c-9.753906 0-17.664062 7.910156-17.664062 17.664062v264.808594c0 9.753906 7.910156 17.664062 17.664062 17.664062h476.671876c9.753906 0 17.664062-7.910156 17.664062-17.664062v-264.808594c0-9.753906-7.910156-17.664062-17.664062-17.664062zm0 0" fill="#28384c"/><path d="m184.875 220.691406c0-22.777344 6.71875-43.945312 18.160156-61.792968h-203.035156v123.585937h203.035156c-11.441406-17.851563-18.160156-39.019531-18.160156-61.792969zm0 0" fill="#405368"/><path d="m326.117188 158.898438c11.441406 17.847656 18.160156 39.015624 18.160156 61.792968 0 22.773438-6.71875 43.941406-18.160156 61.792969h185.882812v-123.585937zm0 0" fill="#405368"/><path d="m326.621094 70.621094h-141.242188l17.65625-35.3125h105.929688zm0 0" fill="#ebba16"/><g fill="#72889b"><path d="m432.550781 229.515625h-26.480469c-4.875 0-8.828124-3.945313-8.828124-8.824219 0-4.882812 3.953124-8.828125 8.828124-8.828125h26.480469c4.875 0 8.828125 3.945313 8.828125 8.828125 0 4.878906-3.953125 8.824219-8.828125 8.824219zm0 0"/><path d="m476.691406 229.515625h-8.828125c-4.875 0-8.828125-3.945313-8.828125-8.824219 0-4.882812 3.953125-8.828125 8.828125-8.828125h8.828125c4.871094 0 8.824219 3.945313 8.824219 8.828125 0 4.878906-3.953125 8.824219-8.824219 8.824219zm0 0"/><path d="m61.792969 229.515625h-26.484375c-4.871094 0-8.824219-3.945313-8.824219-8.824219 0-4.882812 3.953125-8.828125 8.824219-8.828125h26.484375c4.871093 0 8.828125 3.945313 8.828125 8.828125 0 4.878906-3.957032 8.824219-8.828125 8.824219zm0 0"/><path d="m105.929688 229.515625h-8.828126c-4.871093 0-8.824218-3.945313-8.824218-8.824219 0-4.882812 3.953125-8.828125 8.824218-8.828125h8.828126c4.875 0 8.828124 3.945313 8.828124 8.828125 0 4.878906-3.953124 8.824219-8.828124 8.824219zm0 0"/></g><path d="m370.757812 220.691406c0 63.378906-51.378906 114.757813-114.757812 114.757813s-114.757812-51.378907-114.757812-114.757813c0-63.382812 51.378906-114.761718 114.757812-114.761718s114.757812 51.378906 114.757812 114.761718zm0 0" fill="#7383bf"/><path d="m326.621094 220.691406c0 39-31.617188 70.617188-70.621094 70.617188s-70.621094-31.617188-70.621094-70.617188c0-39.003906 31.617188-70.621094 70.621094-70.621094s70.621094 31.617188 70.621094 70.621094zm0 0" fill="#fff"/><path d="m256 256c-19.472656 0-35.308594-15.835938-35.308594-35.308594 0-19.476562 15.835938-35.3125 35.308594-35.3125 4.871094 0 8.828125 3.945313 8.828125 8.828125 0 4.882813-3.957031 8.828125-8.828125 8.828125-9.738281 0-17.65625 7.917969-17.65625 17.65625 0 9.734375 7.917969 17.652344 17.65625 17.652344s17.65625-7.917969 17.65625-17.652344c0-4.882812 3.953125-8.828125 8.828125-8.828125 4.871094 0 8.824219 3.945313 8.824219 8.828125 0 19.472656-15.835938 35.308594-35.308594 35.308594zm0 0" fill="#366db6"/></svg>