<svg height="512pt" viewBox="0 -49 512 512" width="512pt" xmlns="http://www.w3.org/2000/svg"><path d="m459.035156 35.308594v300.140625h-158.898437l-44.136719 26.480469-44.136719-26.480469h-158.898437v-300.140625h-52.964844v353.105468h211.863281l44.136719 26.484376 44.136719-26.484376h211.863281v-353.105468zm0 0" fill="#dd352e"/><path d="m256 344.277344v-300.140625c0-24.398438-19.738281-44.136719-44.136719-44.136719h-176.554687v353.101562h176.554687l44.136719 26.484376zm0 0" fill="#e7eced"/><path d="m256 344.277344v-300.140625c0-24.398438 19.738281-44.136719 44.136719-44.136719h176.554687v353.101562h-176.554687l-44.136719 26.484376zm0 0" fill="#c2cbcc"/><path d="m220.691406 291.308594h-17.65625c-4.875 0-8.828125-3.953125-8.828125-8.824219 0-4.875 3.953125-8.828125 8.828125-8.828125h17.65625c4.871094 0 8.824219 3.953125 8.824219 8.828125 0 4.871094-3.953125 8.824219-8.824219 8.824219zm0 0" fill="#eb7937"/><path d="m167.722656 291.308594h-97.101562c-4.875 0-8.828125-3.953125-8.828125-8.824219 0-4.875 3.953125-8.828125 8.828125-8.828125h97.101562c4.875 0 8.828125 3.953125 8.828125 8.828125 0 4.871094-3.953125 8.824219-8.828125 8.824219zm0 0" fill="#cb465f"/><path d="m88.277344 326.621094h-17.65625c-4.875 0-8.828125-3.957032-8.828125-8.828125 0-4.871094 3.953125-8.828125 8.828125-8.828125h17.65625c4.871094 0 8.824218 3.957031 8.824218 8.828125 0 4.871093-3.953124 8.828125-8.824218 8.828125zm0 0" fill="#75348b"/><path d="m220.691406 326.621094h-97.105468c-4.871094 0-8.828126-3.957032-8.828126-8.828125 0-4.871094 3.957032-8.828125 8.828126-8.828125h97.105468c4.871094 0 8.824219 3.957031 8.824219 8.828125 0 4.871093-3.953125 8.828125-8.824219 8.828125zm0 0" fill="#57abc1"/><path d="m141.242188 185.378906c-43.8125 0-79.449219-35.644531-79.449219-79.449218 0-43.800782 35.636719-79.445313 79.449219-79.445313 43.808593 0 79.449218 35.644531 79.449218 79.445313 0 43.804687-35.640625 79.449218-79.449218 79.449218zm0-141.242187c-34.074219 0-61.792969 27.71875-61.792969 61.792969 0 34.074218 27.71875 61.792968 61.792969 61.792968 34.074218 0 61.792968-27.71875 61.792968-61.792968 0-34.074219-27.71875-61.792969-61.792968-61.792969zm0 0" fill="#7383bf"/><path d="m70.621094 211.863281h150.070312v35.308594h-150.070312zm0 0" fill="#ebba16"/><path d="m308.964844 88.277344h-17.65625c-4.871094 0-8.824219-3.957032-8.824219-8.828125 0-4.875 3.953125-8.828125 8.824219-8.828125h17.65625c4.875 0 8.828125 3.953125 8.828125 8.828125 0 4.871093-3.953125 8.828125-8.828125 8.828125zm0 0" fill="#1f436d"/><path d="m441.378906 88.277344h-97.101562c-4.875 0-8.828125-3.957032-8.828125-8.828125 0-4.875 3.953125-8.828125 8.828125-8.828125h97.101562c4.875 0 8.828125 3.953125 8.828125 8.828125 0 4.871093-3.953125 8.828125-8.828125 8.828125zm0 0" fill="#be6e41"/><path d="m441.378906 52.964844h-17.65625c-4.871094 0-8.824218-3.953125-8.824218-8.828125 0-4.871094 3.953124-8.828125 8.824218-8.828125h17.65625c4.875 0 8.828125 3.957031 8.828125 8.828125 0 4.875-3.953125 8.828125-8.828125 8.828125zm0 0" fill="#61b872"/><path d="m388.414062 52.964844h-97.105468c-4.871094 0-8.824219-3.953125-8.824219-8.828125 0-4.871094 3.953125-8.828125 8.824219-8.828125h97.105468c4.871094 0 8.828126 3.957031 8.828126 8.828125 0 4.875-3.957032 8.828125-8.828126 8.828125zm0 0" fill="#cb465f"/><path d="m441.378906 150.070312h-150.070312v-35.3125h150.070312zm0 0" fill="#eb7937"/><path d="m141.242188 185.378906c-23.183594 0-35.3125-39.960937-35.3125-79.449218 0-39.484376 12.128906-79.445313 35.3125-79.445313 23.179687 0 35.308593 39.960937 35.308593 79.445313 0 39.488281-12.128906 79.449218-35.308593 79.449218zm0-141.242187c-5.121094 0-17.65625 21.65625-17.65625 61.792969 0 40.140624 12.535156 61.792968 17.65625 61.792968 5.121093 0 17.65625-21.652344 17.65625-61.792968 0-40.136719-12.535157-61.792969-17.65625-61.792969zm0 0" fill="#7383bf"/><path d="m211.863281 114.757812h-141.242187c-4.875 0-8.828125-3.953124-8.828125-8.828124 0-4.871094 3.953125-8.828126 8.828125-8.828126h141.242187c4.871094 0 8.828125 3.957032 8.828125 8.828126 0 4.875-3.957031 8.828124-8.828125 8.828124zm0 0" fill="#7383bf"/><path d="m326.621094 291.308594c-1.527344 0-3.035156-.078125-4.511719-.238282-24.699219-2.609374-37.941406-28.230468-26.816406-48.515624l31.328125-57.175782 31.335937 57.175782c11.125 20.285156-2.125 45.90625-26.816406 48.515624-1.484375.160157-2.992187.238282-4.519531.238282zm0 0" fill="#25ae88"/><path d="m326.621094 326.621094c-4.875 0-8.828125-3.957032-8.828125-8.828125v-52.964844c0-4.875 3.953125-8.828125 8.828125-8.828125 4.871094 0 8.828125 3.953125 8.828125 8.828125v52.964844c0 4.871093-3.957031 8.828125-8.828125 8.828125zm0 0" fill="#be6e41"/><path d="m406.070312 194.207031h35.308594v35.308594h-35.308594zm0 0" fill="#366db6"/><path d="m406.070312 273.65625h35.308594v35.308594h-35.308594zm0 0" fill="#cb465f"/></svg>