<svg height="512pt" viewBox="0 0 512 512" width="512pt" xmlns="http://www.w3.org/2000/svg"><path d="m124.964844 273.433594c-6.402344 7.390625-21.433594 7.566406-25.511719-4.792969-1.945313-5.871094-5.324219-10.894531-6.761719-17.105469-1.40625-6.058594-2.015625-12.226562-3.699218-18.238281-.152344-.523437-.335938-1.027344-.496094-1.546875-2.019532 5.332031-4.148438 10.648438-6.761719 15.828125-5.332031 10.566406-14.925781 22.121094-13.699219 34.523437 1.410156 14.265626-15.503906 17.304688-24.019531 9.472657l-44.015625 105.667969v114.757812h88.277344l54.625-195.511719zm0 0" fill="#426d5f"/><path d="m365.710938 309.125-60.710938-131.980469c-6.222656 4.007813-15.492188 4.128907-20.929688-3.65625-8.992187-12.886719-17.546874-23.046875-23.089843-38.074219-2.058594-5.578124-4.28125-11.164062-6.429688-16.78125-3.125 7.824219-6.273437 15.636719-9.363281 23.472657-5.785156 14.679687-16.03125 27.824219-20.878906 42.65625.335937 3.609375-.804688 7.414062-4.148438 10.75-.371094.371093-.734375.734375-1.105468 1.105469-6.617188 6.628906-15.597657 4.75-20.585938-.945313l-145.503906 316.328125h272.878906s13.558594-33.058594 32.589844-79.449219l21.152344-51.5625c9.542968-23.25-23.761719-47.746093-13.875-71.863281zm0 0" fill="#61b872"/><path d="m467.90625 273.769531c-1.527344.539063-3.257812.839844-5.199219.804688-14.308593-.230469-17.285156-12.820313-20.929687-24.074219-5.09375-15.730469-11.089844-30.753906-17.648438-45.742188-7.183594 15.808594-14.757812 31.496094-19.324218 48.445313-2.671876 9.9375-12.4375 11.960937-19.738282 8.730469-14.871094 36.246094-32.261718 78.632812-48.851562 119.066406l-21.140625 51.550781c-11.574219 28.207031-32.589844 79.449219-32.589844 79.449219h229.515625v-132.414062zm0 0" fill="#3d6f44"/><path d="m306.671875 180.769531-50.671875-110.148437-58.402344 126.976562 23.09375 23.09375 26.480469-26.484375 26.484375 26.484375 8.828125-26.484375zm0 0" fill="#e7eced"/><path d="m423.722656 167.722656s-23.585937 57.488282-39.503906 96.285156l21.851562 27.300782 17.652344-17.652344 17.65625 17.652344 26.855469-16.78125zm0 0" fill="#e7eced"/><path d="m194.207031 70.621094c-4.871093 0-8.828125-3.945313-8.828125-8.828125 0-9.738281-7.917968-17.65625-17.65625-17.65625-4.871094 0-8.824218-3.945313-8.824218-8.828125 0-4.878906 3.953124-8.824219 8.824218-8.824219 9.394532 0 17.9375 3.6875 24.277344 9.691406 9.039062-16.296875 26.429688-27.347656 46.34375-27.347656 4.875 0 8.828125 3.945313 8.828125 8.828125 0 4.878906-3.953125 8.828125-8.828125 8.828125-19.472656 0-35.308594 15.835937-35.308594 35.308594 0 4.882812-3.957031 8.828125-8.828125 8.828125zm0 0" fill="#28384c"/><path d="m485.515625 26.484375c-3.371094 0-6.566406.6875-9.53125 1.835937-3.242187-16.148437-17.496094-28.320312-34.605469-28.320312s-31.363281 12.171875-34.605468 28.320312c-2.964844-1.148437-6.160157-1.835937-9.53125-1.835937-14.628907 0-26.484376 11.855469-26.484376 26.480469 0 14.628906 11.855469 26.484375 26.484376 26.484375h88.273437c14.628906 0 26.484375-11.855469 26.484375-26.484375 0-14.625-11.855469-26.480469-26.484375-26.480469zm0 0" fill="#afb6bb"/><path d="m114.757812 88.277344c-3.371093 0-6.566406.6875-9.53125 1.835937-3.242187-16.148437-17.496093-28.320312-34.605468-28.320312s-31.363282 12.171875-34.605469 28.320312c-2.964844-1.148437-6.160156-1.835937-9.53125-1.835937-14.628906 0-26.484375 11.855468-26.484375 26.480468 0 14.628907 11.855469 26.484376 26.484375 26.484376h88.273437c14.628907 0 26.484376-11.855469 26.484376-26.484376 0-14.625-11.855469-26.480468-26.484376-26.480468zm0 0" fill="#839594"/><g fill="#e7eced"><path d="m344.277344 379.585938c-3.375 0-6.570313.6875-9.535156 1.835937-3.238282-16.144531-17.496094-28.320313-34.605469-28.320313-17.105469 0-31.363281 12.175782-34.601563 28.320313-2.96875-1.148437-6.164062-1.835937-9.535156-1.835937-14.628906 0-26.484375 11.855468-26.484375 26.484374 0 14.625 11.855469 26.480469 26.484375 26.480469h88.277344c14.625 0 26.480468-11.855469 26.480468-26.480469 0-14.628906-11.855468-26.484374-26.480468-26.484374zm0 0"/><path d="m88.277344 185.378906-45.613282 109.460938 19.128907 22.953125 17.65625-17.65625 26.480469 8.828125 21.371093-29.925782zm0 0"/></g></svg>