<svg height="512pt" viewBox="-143 0 512 512" width="512pt" xmlns="http://www.w3.org/2000/svg"><path d="m78.101562 34.710938h69.425782v52.070312h-69.425782zm0 0" fill="#c6e2f7"/><path d="m225.628906 321.042969v-17.269531c0-9.609376-7.785156-17.402344-17.402344-17.402344h-190.828124c-9.605469 0-17.398438 7.792968-17.398438 17.402344v17.269531c0 9.605469 7.792969 17.398437 17.398438 17.398437-9.605469 0-17.398438 7.792969-17.398438 17.398438v17.269531c0 9.605469 7.792969 17.398437 17.398438 17.398437-9.605469 0-17.398438 7.792969-17.398438 17.398438v69.382812c0 9.605469 7.792969 17.398438 17.398438 17.398438h190.828124c9.617188 0 17.402344-7.792969 17.402344-17.398438v-69.382812c0-9.605469-7.785156-17.398438-17.402344-17.398438 9.617188 0 17.402344-7.792968 17.402344-17.398437v-17.269531c0-9.605469-7.785156-17.398438-17.402344-17.398438 9.617188 0 17.402344-7.792968 17.402344-17.398437zm0 0" fill="#7fabda"/><path d="m190.957031 286.371094h-156.289062c-19.144531 0-34.667969-15.523438-34.667969-34.667969v-104.175781h225.628906v104.175781c0 19.144531-15.527344 34.667969-34.671875 34.667969zm0 0" fill="#c6e2f7"/><path d="m147.527344 78.101562h-69.425782l-68.277343 43.648438c-6.238281 5.347656-9.824219 13.140625-9.824219 21.359375v21.773437h225.628906v-21.773437c0-8.210937-3.585937-16.011719-9.824218-21.359375zm0 0" fill="#7fabda"/><g fill="#638fb7"><path d="m147.527344 347.117188h-130.171875c-4.789063 0-8.675781-3.878907-8.675781-8.675782 0-4.800781 3.886718-8.679687 8.675781-8.679687h130.171875c4.789062 0 8.675781 3.878906 8.675781 8.679687 0 4.796875-3.886719 8.675782-8.675781 8.675782zm0 0"/><path d="m208.269531 347.117188h-17.355469c-4.789062 0-8.675781-3.878907-8.675781-8.675782 0-4.800781 3.886719-8.679687 8.675781-8.679687h17.355469c4.792969 0 8.679688 3.878906 8.679688 8.679687 0 4.796875-3.886719 8.675782-8.679688 8.675782zm0 0"/><path d="m208.269531 399.1875h-130.167969c-4.789062 0-8.679687-3.878906-8.679687-8.679688 0-4.796874 3.890625-8.675781 8.679687-8.675781h130.167969c4.792969 0 8.679688 3.878907 8.679688 8.675781 0 4.800782-3.886719 8.679688-8.679688 8.679688zm0 0"/><path d="m34.710938 399.1875h-17.355469c-4.789063 0-8.675781-3.878906-8.675781-8.679688 0-4.796874 3.886718-8.675781 8.675781-8.675781h17.355469c4.792968 0 8.679687 3.878907 8.679687 8.675781 0 4.800782-3.886719 8.679688-8.679687 8.679688zm0 0"/></g><path d="m156.230469 43.390625h-86.832031c-4.78125 0-8.652344-3.871094-8.652344-8.652344v-26.085937c0-4.78125 3.871094-8.652344 8.652344-8.652344h86.832031c4.78125 0 8.652343 3.871094 8.652343 8.652344v26.085937c0 4.78125-3.871093 8.652344-8.652343 8.652344zm0 0" fill="#366db6"/><path d="m112.8125 512c-28.707031 0-52.066406-19.464844-52.066406-43.390625 0-4.796875 3.886718-8.675781 8.675781-8.675781 4.792969 0 8.679687 3.878906 8.679687 8.675781 0 14.355469 15.570313 26.035156 34.710938 26.035156 19.144531 0 34.714844-11.679687 34.714844-26.035156 0-4.796875 3.886718-8.675781 8.675781-8.675781s8.679687 3.878906 8.679687 8.675781c0 23.925781-23.363281 43.390625-52.070312 43.390625zm0 0" fill="#638fb7"/><path d="m208.269531 399.1875h-130.167969c-4.789062 0-8.679687-3.878906-8.679687-8.679688 0-4.796874 3.890625-8.675781 8.679687-8.675781h130.167969c4.792969 0 8.679688 3.878907 8.679688 8.675781 0 4.800782-3.886719 8.679688-8.679688 8.679688zm0 0" fill="#638fb7"/><path d="m34.710938 399.1875h-17.355469c-4.789063 0-8.675781-3.878906-8.675781-8.679688 0-4.796874 3.886718-8.675781 8.675781-8.675781h17.355469c4.792968 0 8.679687 3.878907 8.679687 8.675781 0 4.800782-3.886719 8.679688-8.679687 8.679688zm0 0" fill="#638fb7"/><path d="m0 199.59375h86.78125v52.066406h-86.78125zm0 0" fill="#7fabda"/><path d="m173.558594 199.59375h52.070312v52.066406h-52.070312zm0 0" fill="#7fabda"/></svg>