<svg height="512pt" viewBox="-69 0 511 512" width="512pt" xmlns="http://www.w3.org/2000/svg"><path d="m373.652344 407.863281h-173.558594v-208.269531l86.777344-69.425781 86.78125 69.425781zm0 0" fill="#dd352e"/><path d="m312.90625 216.949219c0 14.378906-11.65625 26.035156-26.035156 26.035156-14.375 0-26.03125-11.65625-26.03125-26.035156 0-14.378907 11.65625-26.035157 26.03125-26.035157 14.378906 0 26.035156 11.65625 26.035156 26.035157zm0 0" fill="#fff"/><path d="m286.871094 225.628906c-4.789063 0-8.675782-3.878906-8.675782-8.679687v-104.136719c0-52.628906-42.824218-95.457031-95.457031-95.457031-52.632812 0-95.457031 42.828125-95.457031 95.457031v43.390625c0 4.800781-3.890625 8.679687-8.679688 8.679687-4.789062 0-8.679687-3.878906-8.679687-8.679687v-43.390625c0-62.203125 50.613281-112.8125 112.816406-112.8125s112.8125 50.609375 112.8125 112.8125v104.136719c0 4.800781-3.886719 8.679687-8.679687 8.679687zm0 0" fill="#afb6bb"/><g fill="#ebba16"><path d="m338.941406 329.761719h-34.710937c-4.792969 0-8.679688-3.878907-8.679688-8.675781 0-4.800782 3.886719-8.679688 8.679688-8.679688h26.03125v-17.355469h-26.03125c-4.792969 0-8.679688-3.878906-8.679688-8.679687 0-4.796875 3.886719-8.675782 8.679688-8.675782h34.710937c4.789063 0 8.675782 3.878907 8.675782 8.675782v34.714844c0 4.796874-3.886719 8.675781-8.675782 8.675781zm0 0"/><path d="m338.941406 364.472656h-34.710937c-4.792969 0-8.679688-3.878906-8.679688-8.675781 0-4.800781 3.886719-8.679687 8.679688-8.679687h26.03125v-17.355469h-26.03125c-4.792969 0-8.679688-3.878907-8.679688-8.675781 0-4.800782 3.886719-8.679688 8.679688-8.679688h34.710937c4.789063 0 8.675782 3.878906 8.675782 8.679688v34.710937c0 4.796875-3.886719 8.675781-8.675782 8.675781zm0 0"/><path d="m269.515625 364.472656h-34.710937c-4.789063 0-8.675782-3.878906-8.675782-8.675781 0-4.800781 3.886719-8.679687 8.675782-8.679687h26.035156v-17.355469h-26.035156c-4.789063 0-8.675782-3.878907-8.675782-8.675781v-34.714844c0-4.796875 3.886719-8.675782 8.675782-8.675782h34.710937c4.792969 0 8.679687 3.878907 8.679687 8.675782 0 4.800781-3.886718 8.679687-8.679687 8.679687h-26.03125v17.355469h26.03125c4.792969 0 8.679687 3.878906 8.679687 8.679688v34.710937c0 4.796875-3.886718 8.675781-8.679687 8.675781zm0 0"/></g><path d="m43.890625 433.898438 26.03125-17.355469-26.03125-17.355469 26.03125-17.355469-26.03125-17.359375 26.03125-17.355468-26.03125-17.355469v-69.421875h69.421875v190.914062l-34.710938 60.746094-34.710937-60.746094zm0 0" fill="#e7eced"/><path d="m139.332031 277.695312h-121.457031c-9.589844 0-17.375-7.785156-17.375-17.375v-86.734374c0-9.597657 7.785156-17.382813 17.375-17.382813h121.445312c9.597657 0 17.382813 7.785156 17.382813 17.375v86.734375c0 9.597656-7.785156 17.382812-17.371094 17.382812zm0 0" fill="#28384c"/><path d="m61.246094 199.59375h34.710937v34.710938h-34.710937zm0 0" fill="#fff"/></svg>