<svg height="512pt" viewBox="-4 0 512 512" width="512pt" xmlns="http://www.w3.org/2000/svg"><path d="m52.066406 433.898438c-28.757812 0-52.066406-23.308594-52.066406-52.066407v-199.59375c0-28.761719 23.308594-52.070312 52.066406-52.070312 28.761719 0 52.070313 23.308593 52.070313 52.070312v199.59375c0 28.757813-23.308594 52.066407-52.070313 52.066407zm0 0" fill="#61b872"/><path d="m425.21875 303.730469c-28.757812 0-52.066406-23.3125-52.066406-52.070313v-199.59375c0-28.757812 23.308594-52.066406 52.066406-52.066406 28.761719 0 52.070312 23.308594 52.070312 52.066406v199.59375c0 28.757813-23.308593 52.070313-52.070312 52.070313zm0 0" fill="#61b872"/><g fill="#bf5a45"><path d="m52.066406 364.472656c-2.21875 0-4.441406-.847656-6.132812-2.539062-3.394532-3.394532-3.394532-8.878906 0-12.273438l17.355468-17.355468c3.382813-3.390626 8.886719-3.390626 12.269532 0 3.394531 3.394531 3.394531 8.878906 0 12.269531l-17.355469 17.359375c-1.691406 1.691406-3.914063 2.539062-6.136719 2.539062zm0 0"/><path d="m52.066406 260.339844c-2.21875 0-4.441406-.851563-6.132812-2.542969-3.394532-3.394531-3.394532-8.878906 0-12.269531l17.355468-17.359375c3.382813-3.390625 8.886719-3.390625 12.269532 0 3.394531 3.394531 3.394531 8.878906 0 12.273437l-17.355469 17.355469c-1.691406 1.691406-3.914063 2.542969-6.136719 2.542969zm0 0"/><path d="m52.066406 407.863281c-2.21875 0-4.441406-.847656-6.132812-2.542969l-17.355469-17.355468c-3.394531-3.390625-3.394531-8.875 0-12.269532 3.382813-3.394531 8.882813-3.394531 12.269531 0l17.355469 17.355469c3.394531 3.394531 3.394531 8.878907 0 12.269531-1.691406 1.695313-3.914063 2.542969-6.136719 2.542969zm0 0"/><path d="m52.066406 512c-4.789062 0-8.675781-3.878906-8.675781-8.679688v-321.082031c0-4.800781 3.886719-8.679687 8.675781-8.679687 4.792969 0 8.679688 3.878906 8.679688 8.679687v321.082031c0 4.800782-3.886719 8.679688-8.679688 8.679688zm0 0"/><path d="m52.066406 303.730469c-2.21875 0-4.441406-.851563-6.132812-2.542969l-17.355469-17.355469c-3.394531-3.394531-3.394531-8.878906 0-12.273437 3.382813-3.390625 8.882813-3.390625 12.269531 0l17.355469 17.355468c3.394531 3.394532 3.394531 8.878907 0 12.273438-1.691406 1.691406-3.914063 2.542969-6.136719 2.542969zm0 0"/><path d="m425.21875 234.304688c-2.21875 0-4.441406-.851563-6.132812-2.542969-3.394532-3.390625-3.394532-8.875 0-12.269531l17.355468-17.355469c3.382813-3.394531 8.886719-3.394531 12.269532 0 3.394531 3.390625 3.394531 8.875 0 12.269531l-17.355469 17.355469c-1.691407 1.691406-3.914063 2.542969-6.136719 2.542969zm0 0"/><path d="m425.21875 130.167969c-2.21875 0-4.441406-.847657-6.132812-2.542969-3.394532-3.390625-3.394532-8.875 0-12.269531l17.355468-17.355469c3.382813-3.394531 8.886719-3.394531 12.269532 0 3.394531 3.394531 3.394531 8.878906 0 12.269531l-17.355469 17.355469c-1.691407 1.695312-3.914063 2.542969-6.136719 2.542969zm0 0"/><path d="m425.21875 277.695312c-2.21875 0-4.441406-.851562-6.132812-2.542968l-17.355469-17.355469c-3.394531-3.394531-3.394531-8.878906 0-12.269531 3.382812-3.394532 8.886719-3.394532 12.269531 0l17.355469 17.355468c3.394531 3.390626 3.394531 8.875 0 12.269532-1.691407 1.691406-3.914063 2.542968-6.136719 2.542968zm0 0"/><path d="m425.21875 416.542969c-4.789062 0-8.675781-3.878907-8.675781-8.679688v-355.796875c0-4.796875 3.886719-8.675781 8.675781-8.675781 4.792969 0 8.679688 3.878906 8.679688 8.675781v355.796875c0 4.800781-3.886719 8.679688-8.679688 8.679688zm0 0"/><path d="m425.21875 173.558594c-2.21875 0-4.441406-.851563-6.132812-2.542969l-17.355469-17.355469c-3.394531-3.390625-3.394531-8.878906 0-12.269531 3.382812-3.394531 8.886719-3.394531 12.269531 0l17.355469 17.355469c3.394531 3.394531 3.394531 8.878906 0 12.269531-1.691407 1.691406-3.914063 2.542969-6.136719 2.542969zm0 0"/></g><path d="m182.238281 338.441406-86.78125 164.878906h199.59375zm0 0" fill="#1f436d"/><path d="m503.320312 503.320312h-234.304687l-86.777344-164.878906h216.949219zm0 0" fill="#366db6"/><path d="m433.898438 468.609375h-130.167969l-52.070313-95.457031h121.492188zm0 0" fill="#1f436d"/><path d="m182.238281 260.339844c-4.792969 0-8.679687-3.878906-8.679687-8.679688 0-9.570312-7.785156-17.355468-17.355469-17.355468-4.789063 0-8.675781-3.878907-8.675781-8.675782 0-4.800781 3.886718-8.679687 8.675781-8.679687 9.234375 0 17.632813 3.628906 23.863281 9.527343 8.886719-16.019531 25.984375-26.882812 45.5625-26.882812 4.789063 0 8.675782 3.878906 8.675782 8.675781 0 4.800781-3.886719 8.679688-8.675782 8.679688-19.144531 0-34.714844 15.566406-34.714844 34.710937 0 4.800782-3.886718 8.679688-8.675781 8.679688zm0 0" fill="#28384c"/><path d="m303.730469 86.78125c-3.316407 0-6.457031.675781-9.375 1.804688-3.183594-15.875-17.199219-27.839844-34.015625-27.839844-16.820313 0-30.832032 11.964844-34.019532 27.839844-2.914062-1.128907-6.054687-1.804688-9.371093-1.804688-14.378907 0-26.035157 11.652344-26.035157 26.03125s11.65625 26.035156 26.035157 26.035156h86.78125c14.378906 0 26.03125-11.65625 26.03125-26.035156s-11.652344-26.03125-26.03125-26.03125zm0 0" fill="#e7eced"/><path d="m109.289062.261719c2.257813 5.25 3.523438 11.019531 3.523438 17.09375 0 23.960937-19.429688 43.390625-43.390625 43.390625-6.074219 0-11.84375-1.265625-17.09375-3.523438 2.59375 26.335938 24.792969 46.914063 51.808594 46.914063 28.757812 0 52.066406-23.308594 52.066406-52.070313 0-27.011718-20.574219-49.21875-46.914063-51.804687zm0 0" fill="#efce4a"/><path d="m173.558594 354.929688v148.390624h17.355468v-148.390624l-8.675781-16.488282zm0 0" fill="#14304c"/></svg>