<svg height="512pt" viewBox="0 0 512 512" width="512pt" xmlns="http://www.w3.org/2000/svg"><path d="m70.621094 61.792969h370.757812v132.414062h-370.757812zm0 0" fill="#f7e6a1"/><path d="m61.792969 238.34375h388.414062v176.554688h-388.414062zm0 0" fill="#f7e6a1"/><g fill="#ccbc7a"><path d="m17.65625 406.070312h476.6875v61.792969h-476.6875zm0 0"/><path d="m459.035156 176.550781h-406.070312c0 29.273438-23.691406 52.964844-52.964844 52.964844v35.3125h512v-35.3125c-29.273438 0-52.964844-23.691406-52.964844-52.964844zm0 0"/><path d="m459.035156 0h-406.070312c0 29.273438-23.691406 52.964844-52.964844 52.964844v35.3125h512v-35.3125c-29.273438 0-52.964844-23.691406-52.964844-52.964844zm0 0"/></g><path d="m105.929688 132.414062h70.621093v44.136719h-70.621093zm0 0" fill="#ed8a19"/><path d="m335.449219 132.414062h70.621093v44.136719h-70.621093zm0 0" fill="#ed8a19"/><path d="m220.691406 132.414062h70.617188v44.136719h-70.617188zm0 0" fill="#ed8a19"/><path d="m308.964844 406.070312h-105.929688v-52.96875c0-29.253906 23.710938-52.964843 52.964844-52.964843s52.964844 23.710937 52.964844 52.964843zm0 0" fill="#ebba16"/><path d="m97.101562 300.136719h70.621094v105.933593h-70.621094zm0 0" fill="#ed8a19"/><path d="m344.277344 300.136719h70.621094v105.933593h-70.621094zm0 0" fill="#ed8a19"/><path d="m132.414062 379.585938c-4.875 0-8.828124-3.945313-8.828124-8.828126v-35.308593c0-4.882813 3.953124-8.828125 8.828124-8.828125 4.871094 0 8.828126 3.945312 8.828126 8.828125v35.308593c0 4.882813-3.957032 8.828126-8.828126 8.828126zm0 0" fill="#fff"/><path d="m379.585938 379.585938c-4.871094 0-8.828126-3.945313-8.828126-8.828126v-35.308593c0-4.882813 3.957032-8.828125 8.828126-8.828125 4.875 0 8.828124 3.945312 8.828124 8.828125v35.308593c0 4.882813-3.953124 8.828126-8.828124 8.828126zm0 0" fill="#fff"/><path d="m494.34375 423.722656h-406.066406c-4.875 0-8.828125 3.949219-8.828125 8.828125 0 4.882813 3.953125 8.828125 8.828125 8.828125h406.066406zm0 0" fill="#ad9f63"/><path d="m52.964844 423.722656h-35.308594v17.65625h35.308594c4.875 0 8.828125-3.945312 8.828125-8.828125 0-4.878906-3.953125-8.828125-8.828125-8.828125zm0 0" fill="#ad9f63"/><path d="m247.171875 300.933594v105.136718h17.65625v-105.136718c-2.878906-.488282-5.808594-.796875-8.828125-.796875s-5.949219.308593-8.828125.796875zm0 0" fill="#bf9316"/><path d="m0 459.035156h512v52.964844h-512zm0 0" fill="#f7e6a1"/><path d="m512 476.691406h-35.308594c-4.875 0-8.828125 3.945313-8.828125 8.824219 0 4.882813 3.953125 8.828125 8.828125 8.828125h35.308594zm0 0" fill="#ccbc7a"/><path d="m441.378906 476.691406h-441.378906v17.652344h441.378906c4.875 0 8.828125-3.945312 8.828125-8.828125 0-4.878906-3.953125-8.824219-8.828125-8.824219zm0 0" fill="#ccbc7a"/></svg>