<svg height="512pt" viewBox="0 -40 512 512" width="512pt" xmlns="http://www.w3.org/2000/svg"><path d="m414.898438 167.722656c-9.199219 0-18.054688-1.359375-26.484376-3.75v233.269532h52.964844v-233.269532c-8.429687 2.390625-17.285156 3.75-26.480468 3.75zm0 0" fill="#405368"/><path d="m264.828125 167.722656c-24.339844 0-44.136719-19.796875-44.136719-44.136718 0-14.601563-11.882812-26.484376-26.484375-26.484376h-52.964843c-14.601563 0-26.484376 11.882813-26.484376 26.484376 0 24.339843-19.800781 44.136718-44.136718 44.136718-4.875 0-8.828125-3.945312-8.828125-8.824218 0-4.882813 3.953125-8.828126 8.828125-8.828126 14.601562 0 26.480468-11.882812 26.480468-26.484374 0-24.335938 19.800782-44.136719 44.140626-44.136719h52.964843c24.335938 0 44.136719 19.800781 44.136719 44.136719 0 14.601562 11.882812 26.484374 26.484375 26.484374 4.871094 0 8.828125 3.945313 8.828125 8.828126 0 4.878906-3.957031 8.824218-8.828125 8.824218zm0 0" fill="#afb6bb"/><path d="m0 379.585938h512v52.964843h-512zm0 0" fill="#28384c"/><path d="m347.355469 152.054688c22.132812 7.511718 43.132812 26.660156 66.730469 26.324218 24.433593-.34375 52.152343-17.992187 74.980468-26.695312 2.453125-.933594 4.679688-1.121094 6.683594-.828125 10.246094-15.394531 16.25-33.871094 16.25-53.753907 0-53.625-43.476562-97.101562-97.101562-97.101562-53.628907 0-97.105469 43.476562-97.105469 97.101562 0 21.011719 6.734375 40.40625 18.078125 56.296876 2.957031-2.101563 6.859375-2.914063 11.484375-1.34375zm0 0" fill="#e7eced"/><path d="m414.898438 97.101562c-4.875 0-8.828126-3.945312-8.828126-8.824218v-44.140625c0-4.878907 3.953126-8.828125 8.828126-8.828125 4.871093 0 8.824218 3.949218 8.824218 8.828125v44.140625c0 4.878906-3.953125 8.824218-8.824218 8.824218zm0 0" fill="#839594"/><path d="m467.863281 105.929688h-44.140625c-4.871094 0-8.824218-3.945313-8.824218-8.828126 0-4.878906 3.953124-8.824218 8.824218-8.824218h44.140625c4.871094 0 8.828125 3.945312 8.828125 8.824218 0 4.882813-3.957031 8.828126-8.828125 8.828126zm0 0" fill="#839594"/><path d="m397.242188 79.449219h35.308593v35.308593h-35.308593zm0 0" fill="#ebba16"/><path d="m496.226562 150.070312h-162.660156c17.332032 26.550782 47.253906 44.136719 81.332032 44.136719 34.074218 0 64-17.585937 81.328124-44.136719zm0 0" fill="#dd352e"/><path d="m273.691406 326.621094h-211.933594c-14.601562 0-26.449218-11.847656-26.449218-26.449219v-123.65625c0-14.601563 11.847656-26.445313 26.449218-26.445313h211.925782c14.609375 0 26.453125 11.84375 26.453125 26.445313v123.648437c0 14.609376-11.84375 26.457032-26.445313 26.457032zm0 0" fill="#be6e41"/><path d="m88.277344 150.070312h35.308594v176.550782h-35.308594zm0 0" fill="#6c4127"/><path d="m211.863281 150.070312h35.308594v176.550782h-35.308594zm0 0" fill="#6c4127"/><path d="m264.828125 379.585938h-194.207031c-29.253906 0-52.964844-23.710938-52.964844-52.964844h300.136719c0 29.253906-23.710938 52.964844-52.964844 52.964844zm0 0" fill="#405368"/></svg>