<svg height="512pt" viewBox="0 -4 512 511" width="512pt" xmlns="http://www.w3.org/2000/svg"><path d="m59.734375 427.167969c-28.28125 0-51.199219-22.921875-51.199219-51.203125v-196.265625c0-28.277344 22.917969-51.199219 51.199219-51.199219 28.277344 0 51.199219 22.921875 51.199219 51.199219v196.265625c0 28.28125-22.921875 51.203125-51.199219 51.203125zm0 0" fill="#23a24d"/><path d="m452.265625 420.765625c-28.277344 0-51.199219-22.917969-51.199219-51.199219v-196.265625c0-28.28125 22.921875-51.199219 51.199219-51.199219 28.28125 0 51.199219 22.917969 51.199219 51.199219v196.265625c0 28.28125-22.917969 51.199219-51.199219 51.199219zm0 0" fill="#23a24d"/><g fill="#6b4842"><path d="m59.734375 358.898438c-2.1875 0-4.371094-.835938-6.035156-2.5-3.335938-3.335938-3.335938-8.726563 0-12.066407l17.066406-17.066406c3.335937-3.335937 8.730469-3.335937 12.066406 0 3.335938 3.335937 3.335938 8.730469 0 12.066406l-17.066406 17.066407c-1.664063 1.664062-3.847656 2.5-6.03125 2.5zm0 0"/><path d="m59.734375 256.5c-2.1875 0-4.371094-.835938-6.035156-2.5-3.335938-3.335938-3.335938-8.730469 0-12.066406l17.066406-17.066406c3.335937-3.335938 8.730469-3.335938 12.066406 0 3.335938 3.335937 3.335938 8.730468 0 12.066406l-17.066406 17.066406c-1.664063 1.664062-3.847656 2.5-6.03125 2.5zm0 0"/><path d="m59.734375 401.566406c-2.1875 0-4.371094-.835937-6.035156-2.5l-17.066407-17.066406c-3.335937-3.335938-3.335937-8.730469 0-12.066406 3.335938-3.335938 8.730469-3.335938 12.066407 0l17.066406 17.066406c3.335937 3.335938 3.335937 8.730469 0 12.066406-1.664063 1.664063-3.847656 2.5-6.03125 2.5zm0 0"/><path d="m59.734375 503.964844c-4.710937 0-8.535156-3.8125-8.535156-8.53125v-315.734375c0-4.71875 3.824219-8.53125 8.535156-8.53125s8.53125 3.8125 8.53125 8.53125v315.734375c0 4.71875-3.820313 8.53125-8.53125 8.53125zm0 0"/><path d="m59.734375 299.167969c-2.1875 0-4.371094-.835938-6.035156-2.5l-17.066407-17.066407c-3.335937-3.339843-3.335937-8.730468 0-12.066406 3.335938-3.339844 8.730469-3.339844 12.066407 0l17.066406 17.066406c3.335937 3.335938 3.335937 8.726563 0 12.066407-1.664063 1.664062-3.847656 2.5-6.03125 2.5zm0 0"/><path d="m452.265625 352.5c-2.183594 0-4.367187-.835938-6.03125-2.5-3.335937-3.335938-3.335937-8.730469 0-12.066406l17.066406-17.066406c3.335938-3.335938 8.730469-3.335938 12.066407 0 3.335937 3.335937 3.335937 8.730468 0 12.066406l-17.066407 17.066406c-1.664062 1.664062-3.847656 2.5-6.035156 2.5zm0 0"/><path d="m452.265625 250.101562c-2.183594 0-4.367187-.835937-6.03125-2.5-3.335937-3.339843-3.335937-8.730468 0-12.066406l17.066406-17.066406c3.335938-3.339844 8.730469-3.339844 12.066407 0 3.335937 3.335938 3.335937 8.726562 0 12.0625l-17.066407 17.070312c-1.664062 1.664063-3.847656 2.5-6.035156 2.5zm0 0"/><path d="m452.265625 395.167969c-2.183594 0-4.367187-.835938-6.03125-2.5l-17.066406-17.066407c-3.335938-3.339843-3.335938-8.730468 0-12.066406 3.335937-3.339844 8.730469-3.339844 12.066406 0l17.066406 17.066406c3.335938 3.335938 3.335938 8.726563 0 12.066407-1.664062 1.664062-3.847656 2.5-6.035156 2.5zm0 0"/><path d="m452.265625 503.964844c-4.710937 0-8.53125-3.8125-8.53125-8.53125v-322.132813c0-4.71875 3.820313-8.535156 8.53125-8.535156s8.535156 3.816406 8.535156 8.535156v322.132813c0 4.71875-3.824219 8.53125-8.535156 8.53125zm0 0"/><path d="m452.265625 292.765625c-2.183594 0-4.367187-.835937-6.03125-2.5l-17.066406-17.066406c-3.335938-3.335938-3.335938-8.730469 0-12.066407 3.335937-3.335937 8.730469-3.335937 12.066406 0l17.066406 17.066407c3.335938 3.335937 3.335938 8.730469 0 12.066406-1.664062 1.664063-3.847656 2.5-6.035156 2.5zm0 0"/></g><path d="m264.535156 230.898438-153.601562 264.535156h307.199218zm0 0" fill="#ed8a19"/><path d="m264.535156 401.566406-51.203125 93.867188h102.402344zm0 0" fill="#c5411e"/><path d="m264.535156 401.566406 76.796875 42.667969-25.597656 51.199219zm0 0" fill="#9b301b"/><path d="m187.734375 222.367188c-4.710937 0-8.535156-3.816407-8.535156-8.535157 0-9.410156-7.652344-17.066406-17.066407-17.066406-4.710937 0-8.53125-3.8125-8.53125-8.53125s3.820313-8.535156 8.53125-8.535156c9.078126 0 17.347657 3.566406 23.46875 9.371093 8.738282-15.753906 25.546876-26.4375 44.796876-26.4375 4.710937 0 8.535156 3.816407 8.535156 8.535157s-3.824219 8.53125-8.535156 8.53125c-18.824219 0-34.132813 15.308593-34.132813 34.132812 0 4.71875-3.820313 8.535157-8.53125 8.535157zm0 0" fill="#28384c"/><path d="m298.667969 154.101562c-4.710938 0-8.535157-3.816406-8.535157-8.535156 0-9.410156-7.652343-17.066406-17.066406-17.066406-4.710937 0-8.53125-3.8125-8.53125-8.535156 0-4.71875 3.820313-8.53125 8.53125-8.53125 9.078125 0 17.347656 3.566406 23.46875 9.371094 8.734375-15.753907 25.546875-26.4375 44.796875-26.4375 4.710938 0 8.535157 3.8125 8.535157 8.53125s-3.824219 8.535156-8.535157 8.535156c-18.824219 0-34.132812 15.308594-34.132812 34.132812 0 4.71875-3.820313 8.535156-8.53125 8.535156zm0 0" fill="#6b4842"/><path d="m477.867188 34.632812c-3.261719 0-6.347657.667969-9.214844 1.777344-3.132813-15.609375-16.914063-27.375-33.453125-27.375-16.535157 0-30.316407 11.765625-33.449219 27.375-2.867188-1.109375-5.957031-1.777344-9.214844-1.777344-14.140625 0-25.601562 11.460938-25.601562 25.601563s11.460937 25.597656 25.601562 25.597656h85.332032c14.140624 0 25.597656-11.457031 25.597656-25.597656s-11.457032-25.601563-25.597656-25.601563zm0 0" fill="#afb6bb"/><path d="m119.464844 26.101562c-3.257813 0-6.347656.664063-9.214844 1.773438-3.132812-15.609375-16.914062-27.375-33.449219-27.375-16.539062 0-30.320312 11.765625-33.453125 27.375-2.867187-1.109375-5.953125-1.773438-9.214844-1.773438-14.140624 0-25.597656 11.457032-25.597656 25.597657s11.457032 25.601562 25.597656 25.601562h85.332032c14.140625 0 25.601562-11.460937 25.601562-25.601562s-11.460937-25.597657-25.601562-25.597657zm0 0" fill="#e7eced"/><path d="m503.464844 503.964844h-494.929688c-4.710937 0-8.535156-3.8125-8.535156-8.53125s3.824219-8.535156 8.535156-8.535156h494.929688c4.710937 0 8.535156 3.816406 8.535156 8.535156s-3.824219 8.53125-8.535156 8.53125zm0 0" fill="#61b872"/></svg>