<svg height="512pt" viewBox="-115 0 512 512" width="512pt" xmlns="http://www.w3.org/2000/svg"><path d="m0 61.792969v370.757812h282.484375v-370.757812zm0 0" fill="#ebba16"/><path d="m259.398438 0h-236.3125c-12.75 0-23.085938 10.335938-23.085938 23.085938v47.535156h282.484375v-47.535156c0-12.75-10.339844-23.085938-23.085937-23.085938zm0 0" fill="#e7eced"/><path d="m23.085938 512h236.320312c12.738281 0 23.078125-10.335938 23.078125-23.085938v-65.191406h-282.484375v65.191406c0 12.75 10.335938 23.085938 23.085938 23.085938zm0 0" fill="#e7eced"/><g fill="#afb6bb"><path d="m185.378906 44.136719h-88.277344c-4.871093 0-8.824218-3.945313-8.824218-8.828125 0-4.878906 3.953125-8.824219 8.824218-8.824219h88.277344c4.875 0 8.828125 3.945313 8.828125 8.824219 0 4.882812-3.953125 8.828125-8.828125 8.828125zm0 0"/><path d="m247.171875 44.136719h-8.828125c-4.871094 0-8.828125-3.945313-8.828125-8.828125 0-4.878906 3.957031-8.824219 8.828125-8.824219h8.828125c4.875 0 8.828125 3.945313 8.828125 8.824219 0 4.882812-3.953125 8.828125-8.828125 8.828125zm0 0"/><path d="m152.195312 485.515625h-21.917968c-8.570313 0-15.519532-6.945313-15.519532-15.527344v-4.261719c0-8.574218 6.949219-15.519531 15.527344-15.519531h21.921875c8.570313 0 15.515625 6.945313 15.515625 15.527344v4.265625c0 8.570312-6.945312 15.515625-15.527344 15.515625zm0 0"/></g><path d="m203.035156 176.550781-141.242187 52.964844 70.621093 17.65625 17.65625 70.621094zm0 0" fill="#366db6"/><path d="m44.136719 105.929688h35.3125v35.3125h-35.3125zm0 0" fill="#dd352e"/><path d="m203.035156 105.929688h35.308594v35.3125h-35.308594zm0 0" fill="#7383bf"/><path d="m123.585938 105.929688h35.3125v35.3125h-35.3125zm0 0" fill="#61b872"/><path d="m44.136719 353.101562h35.3125v35.3125h-35.3125zm0 0" fill="#dc691d"/><path d="m203.035156 353.101562h35.308594v35.3125h-35.308594zm0 0" fill="#fc3952"/><path d="m123.585938 353.101562h35.3125v35.3125h-35.3125zm0 0" fill="#75348b"/></svg>