<svg height="512pt" viewBox="0 -18 512 512" width="512pt" xmlns="http://www.w3.org/2000/svg"><path d="m158.898438 114.757812c-4.875 0-8.828126-3.953124-8.828126-8.828124 0-4.871094 3.953126-8.828126 8.828126-8.828126 14.597656 0 26.480468-11.878906 26.480468-26.480468 0-24.339844 19.800782-44.136719 44.136719-44.136719 4.875 0 8.828125 3.953125 8.828125 8.824219 0 4.875-3.953125 8.828125-8.828125 8.828125-14.597656 0-26.480469 11.882812-26.480469 26.484375 0 24.335937-19.800781 44.136718-44.136718 44.136718zm0 0" fill="#e7eced"/><path d="m441.378906 114.757812c-24.335937 0-44.136718-19.800781-44.136718-44.136718 0-14.601563-11.882813-26.484375-26.484376-26.484375-4.871093 0-8.828124-3.953125-8.828124-8.828125 0-4.871094 3.957031-8.824219 8.828124-8.824219 24.339844 0 44.140626 19.796875 44.140626 44.136719 0 14.601562 11.878906 26.480468 26.480468 26.480468 4.875 0 8.828125 3.957032 8.828125 8.828126 0 4.875-3.953125 8.828124-8.828125 8.828124zm0 0" fill="#e7eced"/><path d="m229.515625 17.65625h141.242187v35.308594h-141.242187zm0 0" fill="#afb6bb"/><path d="m459.027344 335.449219h-317.777344c-19.5 0-35.320312-15.820313-35.320312-35.320313v-158.878906c0-19.5 15.820312-35.320312 35.320312-35.320312h317.765625c19.511719 0 35.328125 15.820312 35.328125 35.320312v158.871094c0 19.507812-15.816406 35.328125-35.316406 35.328125zm0 0" fill="#6c4127"/><path d="m16.542969 0c-11.539063 0-19.527344 11.527344-15.476563 22.332031l25.417969 52.96875v268.976563h35.308594v-268.976563l-29.765625-64.574219c-2.417969-6.453124-8.589844-10.726562-15.484375-10.726562zm0 0" fill="#556080"/><path d="m123.585938 423.722656c0 29.253906-23.714844 52.96875-52.964844 52.96875-29.253906 0-52.964844-23.714844-52.964844-52.96875 0-29.25 23.710938-52.964844 52.964844-52.964844 29.25 0 52.964844 23.714844 52.964844 52.964844zm0 0" fill="#28384c"/><path d="m52.964844 406.070312h35.3125v35.308594h-35.3125zm0 0" fill="#e7eced"/><path d="m494.34375 423.722656c0 29.253906-23.710938 52.96875-52.964844 52.96875-29.25 0-52.964844-23.714844-52.964844-52.96875 0-29.25 23.714844-52.964844 52.964844-52.964844 29.253906 0 52.964844 23.714844 52.964844 52.964844zm0 0" fill="#28384c"/><path d="m423.722656 406.070312h35.3125v35.308594h-35.3125zm0 0" fill="#e7eced"/><path d="m0 335.449219h512v35.308593h-512zm0 0" fill="#7383bf"/><path d="m158.898438 105.929688h35.308593v229.519531h-35.308593zm0 0" fill="#be7c6d"/><path d="m406.070312 105.929688h35.308594v229.519531h-35.308594zm0 0" fill="#be7c6d"/><path d="m264.828125 158.898438v70.617187c7.484375 2.667969 13.375-7.484375 16.03125 0l10.6875 16.03125c7.355469-5.472656 16.367187-8.828125 26.246094-8.828125 6.285156 0 12.242187 1.359375 17.65625 3.726562v-81.546874zm0 0" fill="#c5411e"/><path d="m361.929688 238.34375c0 24.378906-19.761719 44.140625-44.136719 44.140625s-44.136719-19.761719-44.136719-44.140625c0-24.375 19.761719-44.136719 44.136719-44.136719s44.136719 19.761719 44.136719 44.136719zm0 0" fill="#ebba16"/><path d="m282.457031 212.136719c0-.089844.027344-.175781.027344-.273438 0-14.628906-11.855469-26.484375-26.484375-26.484375s-26.484375 11.855469-26.484375 26.484375c0 14.625 11.855469 26.480469 26.484375 26.480469 7.167969 0 13.636719-2.867188 18.40625-7.492188 1.199219-6.949218 4.015625-13.277343 8.050781-18.714843zm0 0" fill="#366db6"/></svg>