<svg height="512pt" viewBox="0 0 512 512" width="512pt" xmlns="http://www.w3.org/2000/svg"><path d="m459.035156 326.621094h35.308594v185.378906h-35.308594zm0 0" fill="#556080"/><path d="m432.550781 300.136719h-70.621093c-9.753907 0-17.652344-7.898438-17.652344-17.652344 0-9.757813 7.898437-17.65625 17.652344-17.65625h70.621093c9.753907 0 17.65625 7.898437 17.65625 17.65625 0 9.753906-7.902343 17.652344-17.65625 17.652344zm0 0" fill="#e7eced"/><path d="m291.308594 88.277344h211.863281v123.585937h-211.863281zm0 0" fill="#ebba16"/><path d="m291.308594 185.378906h211.863281v35.3125h-211.863281zm0 0" fill="#e7eced"/><path d="m423.722656 264.828125h-52.964844l8.828126-44.136719h35.3125zm0 0" fill="#afb6bb"/><path d="m229.515625 300.136719h282.484375v35.3125h-282.484375zm0 0" fill="#7383bf"/><path d="m17.65625 61.792969h229.515625v317.792969h-229.515625zm0 0" fill="#28384c"/><path d="m17.65625 397.242188h229.515625v114.757812h-229.515625zm0 0" fill="#7383bf"/><path d="m0 0h264.828125v70.621094h-264.828125zm0 0" fill="#425870"/><path d="m0 370.757812h264.828125v35.3125h-264.828125zm0 0" fill="#425870"/><path d="m61.792969 44.136719h-17.65625c-4.871094 0-8.828125-3.953125-8.828125-8.828125 0-4.871094 3.957031-8.824219 8.828125-8.824219h17.65625c4.871093 0 8.828125 3.953125 8.828125 8.824219 0 4.875-3.957032 8.828125-8.828125 8.828125zm0 0" fill="#dd352e"/><path d="m220.691406 44.136719h-17.65625c-4.875 0-8.828125-3.953125-8.828125-8.828125 0-4.871094 3.953125-8.824219 8.828125-8.824219h17.65625c4.871094 0 8.824219 3.953125 8.824219 8.824219 0 4.875-3.953125 8.828125-8.824219 8.828125zm0 0" fill="#cb465f"/><path d="m167.722656 44.136719h-17.652344c-4.875 0-8.828124-3.953125-8.828124-8.828125 0-4.871094 3.953124-8.824219 8.828124-8.824219h17.652344c4.875 0 8.828125 3.953125 8.828125 8.824219 0 4.875-3.953125 8.828125-8.828125 8.828125zm0 0" fill="#61b872"/><path d="m114.757812 44.136719h-17.65625c-4.871093 0-8.824218-3.953125-8.824218-8.828125 0-4.871094 3.953125-8.824219 8.824218-8.824219h17.65625c4.875 0 8.828126 3.953125 8.828126 8.824219 0 4.875-3.953126 8.828125-8.828126 8.828125zm0 0" fill="#ebba16"/><path d="m52.964844 273.65625h158.898437v97.101562h-158.898437zm0 0" fill="#be7c6d"/><path d="m88.277344 238.34375h88.273437v35.3125h-88.273437zm0 0" fill="#e7eced"/><path d="m44.136719 176.550781c-14.625 0-26.480469-11.855469-26.480469-26.480469v-79.449218h52.964844v79.449218c0 14.625-11.855469 26.480469-26.484375 26.480469zm0 0" fill="#7383bf"/><path d="m101.515625 176.550781c-17.0625 0-30.894531-13.832031-30.894531-30.894531v-75.035156h61.792968v75.035156c0 17.0625-13.832031 30.894531-30.898437 30.894531zm0 0" fill="#556080"/><path d="m163.308594 176.550781c-17.0625 0-30.894532-13.832031-30.894532-30.894531v-75.035156h61.792969v75.035156c0 17.0625-13.832031 30.894531-30.898437 30.894531zm0 0" fill="#7383bf"/><g fill="#556080"><path d="m220.691406 176.550781c-14.628906 0-26.484375-11.855469-26.484375-26.480469v-79.449218h52.964844v79.449218c0 14.625-11.855469 26.480469-26.480469 26.480469zm0 0"/><path d="m17.65625 441.378906h229.515625v35.3125h-229.515625zm0 0"/></g></svg>