<svg height="512pt" viewBox="0 0 512 512" width="512pt" xmlns="http://www.w3.org/2000/svg"><path d="m0 0h512v512h-512z" fill="#e7eced"/><path d="m264.828125 512h-105.929687c0-131.425781 106.917968-238.34375 238.34375-238.34375h114.757812v105.929688h-114.757812c-73.015626 0-132.414063 59.402343-132.414063 132.414062zm0 0" fill="#28384c"/><path d="m222.359375 459.113281c-.972656 0-1.96875-.167969-2.941406-.503906-4.597657-1.621094-7.007813-6.664063-5.394531-11.261719 4.195312-11.890625 9.578124-23.421875 16.015624-34.269531 2.488282-4.191406 7.910157-5.570313 12.09375-3.097656 4.191407 2.488281 5.578126 7.910156 3.097657 12.09375-5.851563 9.867187-10.742188 20.339843-14.546875 31.144531-1.273438 3.625-4.679688 5.894531-8.324219 5.894531zm42.792969-68.421875c-2.230469 0-4.472656-.847656-6.195313-2.542968-3.476562-3.425782-3.511719-9.011719-.097656-12.480469 8.863281-8.996094 18.628906-17.144531 29.027344-24.234375 4.03125-2.753906 9.523437-1.703125 12.261719 2.324218 2.742187 4.03125 1.703124 9.523438-2.324219 12.261719-9.453125 6.441407-18.335938 13.847657-26.386719 22.03125-1.71875 1.765625-4.003906 2.640625-6.285156 2.640625zm67.753906-43.792968c-3.59375 0-6.964844-2.207032-8.28125-5.773438-1.683594-4.574219.644531-9.648438 5.21875-11.34375 11.800781-4.371094 24.117188-7.582031 36.589844-9.570312 4.828125-.742188 9.339844 2.515624 10.105468 7.335937.761719 4.8125-2.515624 9.339844-7.335937 10.109375-11.332031 1.800781-22.515625 4.730469-33.242187 8.695312-1.007813.359376-2.039063.546876-3.054688.546876zm116.144531-11.449219h-36.15625c-4.875 0-8.828125-3.957031-8.828125-8.828125 0-4.875 3.953125-8.828125 8.828125-8.828125h36.15625c4.871094 0 8.828125 3.953125 8.828125 8.828125 0 4.871094-3.957031 8.828125-8.828125 8.828125zm0 0" fill="#fff"/><path d="m141.242188 150.070312c-1.527344 0-3.039063-.082031-4.511719-.238281-24.699219-2.613281-37.941407-28.230469-26.816407-48.519531l31.328126-57.175781 31.335937 57.175781c11.125 20.289062-2.125 45.90625-26.816406 48.519531-1.484375.15625-2.992188.238281-4.519531.238281zm0 0" fill="#3d6f44"/><path d="m141.242188 203.035156c-4.875 0-8.828126-3.957031-8.828126-8.828125v-70.621093c0-4.871094 3.953126-8.828126 8.828126-8.828126 4.871093 0 8.828124 3.957032 8.828124 8.828126v70.621093c0 4.871094-3.957031 8.828125-8.828124 8.828125zm0 0" fill="#6b4842"/><path d="m370.757812 150.070312c-1.527343 0-3.035156-.082031-4.511718-.238281-24.699219-2.613281-37.9375-28.230469-26.816406-48.519531l31.328124-57.175781 31.339844 57.175781c11.121094 20.289062-2.128906 45.90625-26.820312 48.519531-1.480469.15625-2.992188.238281-4.519532.238281zm0 0" fill="#25ae88"/><path d="m370.757812 203.035156c-4.871093 0-8.828124-3.957031-8.828124-8.828125v-70.621093c0-4.871094 3.957031-8.828126 8.828124-8.828126 4.875 0 8.828126 3.957032 8.828126 8.828126v70.621093c0 4.871094-3.953126 8.828125-8.828126 8.828125zm0 0" fill="#6b4842"/><path d="m256 185.378906c-1.527344 0-3.035156-.078125-4.511719-.238281-24.699219-2.613281-37.941406-28.230469-26.816406-48.515625l31.328125-57.175781 31.339844 57.175781c11.121094 20.285156-2.128906 45.902344-26.820313 48.515625-1.484375.160156-2.992187.238281-4.519531.238281zm0 0" fill="#61b872"/><path d="m256 238.34375c-4.871094 0-8.828125-3.953125-8.828125-8.828125v-70.617187c0-4.875 3.957031-8.828126 8.828125-8.828126s8.828125 3.953126 8.828125 8.828126v70.617187c0 4.875-3.957031 8.828125-8.828125 8.828125zm0 0" fill="#6b4842"/><path d="m37.023438 173.921875 9.234374-17.160156c4.800782-8.925781 16.691407-8.925781 21.492188 0l9.234375 17.160156c4.839844 8.996094-1.148437 20.285156-10.742187 20.285156h-18.46875c-9.601563 0-15.589844-11.289062-10.75-20.285156zm0 0" fill="#be6e41"/><path d="m434.265625 191.578125 9.230469-17.164063c4.804687-8.921874 16.695312-8.921874 21.496094 0l9.234374 17.164063c4.835938 8.992187-1.148437 20.285156-10.742187 20.285156h-18.46875c-9.605469 0-15.589844-11.292969-10.75-20.285156zm0 0" fill="#6c4127"/><path d="m37.023438 429.921875 9.234374-17.160156c4.800782-8.925781 16.691407-8.925781 21.492188 0l9.234375 17.160156c4.839844 8.996094-1.148437 20.285156-10.742187 20.285156h-18.46875c-9.601563 0-15.589844-11.289062-10.75-20.285156zm0 0" fill="#6b4842"/><path d="m132.414062 335.449219c-2.261718 0-4.519531-.867188-6.242187-2.585938l-61.792969-61.792969c-3.449218-3.453124-3.449218-9.03125 0-12.484374 3.453125-3.449219 9.03125-3.449219 12.484375 0l61.792969 61.792968c3.449219 3.453125 3.449219 9.03125 0 12.484375-1.722656 1.71875-3.984375 2.585938-6.242188 2.585938zm0 0" fill="#dd352e"/><path d="m70.621094 335.449219c-2.261719 0-4.519532-.867188-6.242188-2.585938-3.449218-3.453125-3.449218-9.03125 0-12.484375l61.792969-61.792968c3.453125-3.449219 9.03125-3.449219 12.484375 0 3.449219 3.453124 3.449219 9.03125 0 12.484374l-61.792969 61.792969c-1.722656 1.71875-3.984375 2.585938-6.242187 2.585938zm0 0" fill="#dd352e"/><g fill="#61b872"><path d="m379.585938 441.378906c-2.257813 0-4.519532-.863281-6.242188-2.585937-3.449219-3.453125-3.449219-9.03125 0-12.480469l8.828125-8.828125c3.453125-3.453125 9.03125-3.453125 12.484375 0 3.449219 3.449219 3.449219 9.027344 0 12.480469l-8.828125 8.828125c-1.722656 1.722656-3.980469 2.585937-6.242187 2.585937zm0 0"/><path d="m353.101562 476.691406c-2.257812 0-4.519531-.867187-6.238281-2.589844-3.453125-3.449218-3.453125-9.027343 0-12.480468l8.828125-8.828125c3.449219-3.453125 9.027344-3.453125 12.480469 0s3.453125 9.03125 0 12.484375l-8.828125 8.824218c-1.71875 1.722657-3.980469 2.589844-6.242188 2.589844zm0 0"/><path d="m397.242188 476.691406c-2.261719 0-4.519532-.867187-6.242188-2.589844-3.453125-3.449218-3.453125-9.027343 0-12.480468l8.828125-8.828125c3.453125-3.453125 9.03125-3.453125 12.480469 0 3.453125 3.453125 3.453125 9.03125 0 12.484375l-8.824219 8.824218c-1.722656 1.722657-3.984375 2.589844-6.242187 2.589844zm0 0"/><path d="m441.378906 476.691406c-2.257812 0-4.519531-.867187-6.242187-2.589844-3.449219-3.449218-3.449219-9.027343 0-12.480468l8.828125-8.828125c3.453125-3.453125 9.03125-3.453125 12.484375 0 3.449219 3.453125 3.449219 9.03125 0 12.484375l-8.828125 8.824218c-1.722656 1.722657-3.980469 2.589844-6.242188 2.589844zm0 0"/><path d="m335.449219 441.378906c-2.261719 0-4.519531-.863281-6.242188-2.585937-3.453125-3.453125-3.453125-9.03125 0-12.480469l8.828125-8.828125c3.453125-3.453125 9.03125-3.453125 12.480469 0 3.453125 3.449219 3.453125 9.027344 0 12.480469l-8.828125 8.828125c-1.71875 1.722656-3.980469 2.585937-6.238281 2.585937zm0 0"/><path d="m423.722656 441.378906c-2.257812 0-4.519531-.863281-6.238281-2.585937-3.453125-3.453125-3.453125-9.03125 0-12.480469l8.828125-8.828125c3.449219-3.453125 9.027344-3.453125 12.480469 0 3.453125 3.449219 3.453125 9.027344 0 12.480469l-8.828125 8.828125c-1.722656 1.722656-3.980469 2.585937-6.242188 2.585937zm0 0"/><path d="m467.863281 441.378906c-2.261719 0-4.519531-.863281-6.242187-2.585937-3.453125-3.453125-3.453125-9.03125 0-12.480469l8.828125-8.828125c3.449219-3.453125 9.03125-3.453125 12.480469 0 3.453124 3.449219 3.453124 9.027344 0 12.480469l-8.828126 8.828125c-1.71875 1.722656-3.980468 2.585937-6.238281 2.585937zm0 0"/></g></svg>